<?xml version="1.0" encoding="UTF-8"?>
<svg version="1.1" xmlns="http://www.w3.org/2000/svg" width="1024" height="1024">
<path d="M0 0 C337.92 0 675.84 0 1024 0 C1024 337.92 1024 675.84 1024 1024 C686.08 1024 348.16 1024 0 1024 C0 686.08 0 348.16 0 0 Z " fill="#FEFEFE" transform="translate(0,0)"/>
<path d="M0 0 C12.40091116 3.38206668 12.40091116 3.38206668 16.8046875 5.12890625 C18.28207397 5.71381836 18.28207397 5.71381836 19.78930664 6.31054688 C20.80758545 6.72369141 21.82586426 7.13683594 22.875 7.5625 C23.9570874 8.00013672 25.0391748 8.43777344 26.15405273 8.88867188 C45.9903691 17.01085692 64.3966984 26.31700998 81.5703125 39.2109375 C84.32060421 41.23607191 87.1471424 43.12290239 90 45 C91.00675781 44.18917969 92.01351562 43.37835938 93.05078125 42.54296875 C103.49727776 34.26501649 114.26304987 27.30195638 126 21 C127.02625488 20.44554199 127.02625488 20.44554199 128.07324219 19.87988281 C165.24953917 0 165.24953917 0 178 0 C178 7.92 178 15.84 178 24 C181.3825 23.175 184.765 22.35 188.25 21.5 C198.77268639 18.96181366 209.31916678 16.5347889 219.88195801 14.16967773 C221.5002037 13.80703335 223.11812578 13.4429418 224.73571777 13.07739258 C227.02727849 12.56020537 229.32005403 12.04880274 231.61328125 11.5390625 C232.30084 11.38309601 232.98839874 11.22712952 233.6967926 11.06643677 C236.92171525 10.35658114 239.670836 10 243 10 C242.13688187 16.93624986 240.68123437 23.74604522 239.27734375 30.58984375 C239.00955153 31.90259727 238.74194069 33.2153878 238.47450256 34.5282135 C237.77433772 37.9627832 237.07172926 41.39684846 236.36859131 44.83081055 C235.64983502 48.34328287 234.93341773 51.85623213 234.21679688 55.36914062 C232.81347228 62.24655936 231.40756267 69.12344743 230 76 C226.99116736 74.56383203 225.01620147 73.21782162 222.765625 70.7421875 C221.90517578 69.80439453 221.90517578 69.80439453 221.02734375 68.84765625 C220.14755859 67.87119141 220.14755859 67.87119141 219.25 66.875 C218.64800781 66.21628906 218.04601562 65.55757813 217.42578125 64.87890625 C215.94519785 63.25731491 214.47022875 61.63097546 213 60 C209.97125541 61.35631828 207.8748059 62.87646766 205.53588867 65.22119141 C204.87807907 65.87592438 204.22026947 66.53065735 203.54252625 67.20523071 C202.84142227 67.9135202 202.1403183 68.62180969 201.41796875 69.3515625 C200.68556473 70.08442474 199.95316071 70.81728699 199.19856262 71.57235718 C197.64880153 73.12513829 196.10147055 74.68034803 194.55639648 76.23779297 C192.21187332 78.60043828 189.85958252 80.95511735 187.50585938 83.30859375 C185.99692583 84.82244833 184.48844785 86.33675717 182.98046875 87.8515625 C181.93792183 88.89577866 181.93792183 88.89577866 180.87431335 89.96109009 C177.75592626 93.10929264 174.72417193 96.28001207 171.85058594 99.65380859 C166.37865345 105.98483404 160.33599581 111.78653811 154.41015625 117.6875 C153.09714694 118.99864101 151.78436063 120.31000537 150.4717865 121.62158203 C147.03980344 125.04977237 143.60482651 128.47494722 140.16918945 131.8994751 C136.65457813 135.40380204 133.14284511 138.91101083 129.63085938 142.41796875 C122.75669956 149.28144857 115.87936931 156.14174201 109 163 C110.66500241 166.48549143 112.67803463 169.25049406 115.125 172.25 C116.21167969 173.58804688 116.21167969 173.58804688 117.3203125 174.953125 C117.87460937 175.62859375 118.42890625 176.3040625 119 177 C122.84945924 175.80291207 126.45507111 174.3633006 130.09765625 172.63964844 C146.62369129 164.91109714 166.90159761 158.88348385 185.24365234 158.97216797 C186.86151138 158.97819534 186.86151138 158.97819534 188.51205444 158.98434448 C189.33307648 158.9895108 190.15409851 158.99467712 191 159 C190.95780838 158.19028244 190.91561676 157.38056488 190.87214661 156.54631042 C190.4877084 148.8270439 190.20042718 141.11254939 190.01556873 133.38613415 C189.91730614 129.41522604 189.78476394 125.45235846 189.56665039 121.48608398 C188.08439214 93.83022573 188.08439214 93.83022573 195.27880859 84.56103516 C199.69538297 79.79068522 204.52836842 75.52832584 210 72 C210.33 72 210.66 72 211 72 C211 106.98 211 141.96 211 178 C202.42 178.33 193.84 178.66 185 179 C154.31074311 182.62303727 124.70277505 194.45450847 99.9375 212.9921875 C98.98484253 213.70290405 98.98484253 213.70290405 98.01293945 214.42797852 C96.8279997 215.32670706 95.65616832 216.24308707 94.50073242 217.17944336 C92.91796875 218.39453125 92.91796875 218.39453125 90 220 C85.87895673 219.20966294 83.09416497 216.65754115 79.875 214.0625 C68.67979499 205.49657676 56.0639438 198.31364905 43 193 C44.63857295 188.82448073 47.69596492 186.03136705 50.82119751 182.93829346 C51.42318856 182.33459356 52.0251796 181.73089366 52.6454128 181.10889983 C54.66594784 179.08506774 56.69355346 177.06847175 58.72119141 175.05175781 C60.17017337 173.60333991 61.61871523 172.15448163 63.06684875 170.70521545 C67.00222114 166.76926838 70.9437371 162.83952563 74.88636446 158.91084766 C79.0045823 154.80511776 83.11715104 150.69373742 87.23031616 146.58294678 C95.02130442 138.79817898 102.81737769 131.01852421 110.61527956 123.24068236 C119.49212913 114.38617416 128.363312 105.52599792 137.23401761 96.66533518 C155.48303572 78.43723189 173.73917748 60.21627714 192 42 C190.22503686 38.15577404 187.9476067 35.80754485 184.875 32.875 C183.21276567 31.28810774 181.57775654 29.67090822 180 28 C180 27.34 180 26.68 180 26 C179.34 26 178.68 26 178 26 C178.08701172 27.97033203 178.08701172 27.97033203 178.17578125 29.98046875 C178.22269048 31.71611023 178.26818939 33.45179023 178.3125 35.1875 C178.3753418 36.48397461 178.3753418 36.48397461 178.43945312 37.80664062 C178.56338342 44.27580203 178.56338342 44.27580203 175.93359375 47.65625 C174.48146484 48.81640625 174.48146484 48.81640625 173 50 C171.81498902 51.17044187 170.64397758 52.35516131 169.484375 53.55078125 C168.23962179 54.80472568 166.99482949 56.0586313 165.75 57.3125 C165.11320313 57.95767578 164.47640625 58.60285156 163.8203125 59.26757812 C162.91152344 60.18120117 162.91152344 60.18120117 161.984375 61.11328125 C161.16018066 61.94533081 161.16018066 61.94533081 160.31933594 62.79418945 C159 64 159 64 158 64 C158 52.45 158 40.9 158 29 C140.04472923 36.88786461 123.87297822 45.52807093 108 57 C108.40992188 57.60328125 108.81984375 58.2065625 109.2421875 58.828125 C109.78101563 59.62734375 110.31984375 60.4265625 110.875 61.25 C111.40867187 62.03890625 111.94234375 62.8278125 112.4921875 63.640625 C112.98976563 64.41921875 113.48734375 65.1978125 114 66 C114.38671875 66.5878125 114.7734375 67.175625 115.171875 67.78125 C117.47490118 73.95162203 117.00789214 83.22040448 115.3125 89.578125 C114.35244961 91.54622829 113.28455462 93.22739271 112 95 C111.48308594 95.79148437 110.96617187 96.58296875 110.43359375 97.3984375 C109.39641163 98.98295188 108.34310866 100.55710285 107.26953125 102.1171875 C104.10846421 106.80529307 104.78874198 107.90132216 104 115 C94.43 115 84.86 115 75 115 C74.01 109.555 74.01 109.555 73 104 C71.3015039 100.86875539 71.3015039 100.86875539 69 98 C67.91900777 96.28233315 66.85778157 94.55212928 65.8125 92.8125 C65.30332031 91.97332031 64.79414063 91.13414062 64.26953125 90.26953125 C61.06701595 84.54441928 61.34655951 78.38193548 62 72 C63.95459239 66.19095142 67.12731537 61.70018135 71 57 C62.55781626 50.90417738 53.99542292 45.22555685 44.875 40.1875 C44.10188477 39.75655029 43.32876953 39.32560059 42.53222656 38.8815918 C35.49164767 35.06246499 28.45542338 32.19518145 21 29 C21 58.7 21 88.4 21 119 C23.97 119.33 26.94 119.66 30 120 C46.78370039 123.74464711 66.44796077 130.96927039 80 142 C78.47981211 145.55252464 76.38710542 147.94252306 73.6875 150.6875 C72.92824219 151.47511719 72.16898437 152.26273438 71.38671875 153.07421875 C68.69241878 155.24817928 67.45884044 155.98972113 64 156 C61.59899524 154.90890301 59.49250326 153.79002186 57.25 152.4375 C39.49142835 142.34009719 20.19215372 138.75347551 0 136 C0 91.12 0 46.24 0 0 Z " fill="#8AB6E2" transform="translate(169,402)"/>
<path d="M0 0 C5.73729322 0 10.39119889 0.17841583 15.9375 0.9375 C17.24589844 1.11152344 18.55429688 1.28554688 19.90234375 1.46484375 C23 2 23 2 24 3 C24.08651611 4.41570123 24.10704904 5.835595 24.09765625 7.25390625 C24.09443359 8.10791016 24.09121094 8.96191406 24.08789062 9.84179688 C24.07951172 10.73962891 24.07113281 11.63746094 24.0625 12.5625 C24.05798828 13.46419922 24.05347656 14.36589844 24.04882812 15.29492188 C24.03700225 17.53001314 24.0205222 19.76497437 24 22 C22.35 22 20.7 22 19 22 C19.33 57.97 19.66 93.94 20 131 C25.28 131.66 30.56 132.32 36 133 C39.25425223 133.51588822 42.46160332 134.0452815 45.6875 134.6875 C46.91146484 134.93089111 46.91146484 134.93089111 48.16015625 135.17919922 C59.24253517 137.52241498 70.91269644 140.75448843 81 146 C79.37695158 149.93096698 76.71897255 152.78803804 73.8125 155.8125 C73.12704102 156.5849707 73.12704102 156.5849707 72.42773438 157.37304688 C71.01953125 158.83203125 71.01953125 158.83203125 68 161 C63.08109463 161.00592639 58.47289842 159.32878065 53.78149414 157.93041992 C36.02353582 152.67016092 18.467011 151.23113407 0 150 C0 100.5 0 51 0 0 Z " fill="#719CCF" transform="translate(137,429)"/>
<path d="M0 0 C3.96 0 7.92 0 12 0 C12 24.09 12 48.18 12 73 C8.04 73 4.08 73 0 73 C-0.33 71.68 -0.66 70.36 -1 69 C-1.55945313 69.3609375 -2.11890625 69.721875 -2.6953125 70.09375 C-10.05417384 74.35289804 -16.5955593 75.18548877 -25 74 C-33.02839242 71.55047704 -37.88273658 66.96813858 -42.25 60.0078125 C-45.63192524 53.59624589 -46.07704676 47.10850862 -45 40 C-42.35593279 31.87480076 -38.47326237 26.18443964 -31 22 C-29.9275 21.38125 -28.855 20.7625 -27.75 20.125 C-20.20769257 17.86230777 -13.42775611 17.92064705 -6.3125 21.4375 C-2.33695652 23.66304348 -2.33695652 23.66304348 -1 25 C-0.67 16.75 -0.34 8.5 0 0 Z " fill="#1A3357" transform="translate(808,468)"/>
<path d="M0 0 C3.97559917 3.18047934 7.16857425 6.31822275 8.8125 11.25 C8.89794291 12.58528807 8.93024625 13.92443888 8.92602539 15.26245117 C8.92594986 16.06305466 8.92587433 16.86365814 8.92579651 17.68852234 C8.92063522 18.54798965 8.91547394 19.40745697 8.91015625 20.29296875 C8.9087413 21.1765657 8.90732635 22.06016266 8.90586853 22.97053528 C8.90027069 25.79289128 8.88771861 28.61516797 8.875 31.4375 C8.86998472 33.35091031 8.86542186 35.26432187 8.86132812 37.17773438 C8.85030197 41.86852014 8.83303883 46.55924663 8.8125 51.25 C4.8525 51.25 0.8925 51.25 -3.1875 51.25 C-3.1875 49.6 -3.1875 47.95 -3.1875 46.25 C-3.90099609 46.79140625 -3.90099609 46.79140625 -4.62890625 47.34375 C-11.72205254 52.04638842 -18.85987617 52.34935628 -27.1875 51.25 C-32.60545222 48.9694351 -36.55402925 46.1280199 -39.5 40.9375 C-40.82211684 35.76922508 -40.90281442 31.90822887 -38.8125 27.0625 C-34.34748303 22.27855325 -30.27792855 19.57915883 -23.57226562 19.03955078 C-17.10607383 18.82307767 -10.64977437 18.97445038 -4.1875 19.25 C-5.03441149 13.56197472 -5.03441149 13.56197472 -8.453125 9.27734375 C-14.05567992 7.17238383 -20.2298594 7.26554038 -25.8984375 9.15234375 C-27.43415718 9.85062406 -28.95315137 10.58792599 -30.4453125 11.375 C-32.1875 12.25 -32.1875 12.25 -34.1875 12.25 C-35.5075 9.28 -36.8275 6.31 -38.1875 3.25 C-26.82374917 -4.60131875 -12.55890447 -6.89508481 0 0 Z " fill="#1E3659" transform="translate(532.1875,490.75)"/>
<path d="M0 0 C16.83 0 33.66 0 51 0 C51 3.3 51 6.6 51 10 C38.13 10 25.26 10 12 10 C12 16.27 12 22.54 12 29 C23.55 29 35.1 29 47 29 C47 32.3 47 35.6 47 39 C35.45 39 23.9 39 12 39 C12 45.6 12 52.2 12 59 C25.2 59 38.4 59 52 59 C52 62.3 52 65.6 52 69 C34.84 69 17.68 69 0 69 C0 46.23 0 23.46 0 0 Z " fill="#173156" transform="translate(703,472)"/>
<path d="M0 0 C16.83 0 33.66 0 51 0 C51 3.3 51 6.6 51 10 C38.13 10 25.26 10 12 10 C12 16.27 12 22.54 12 29 C23.55 29 35.1 29 47 29 C47 32.3 47 35.6 47 39 C35.45 39 23.9 39 12 39 C12 45.6 12 52.2 12 59 C25.2 59 38.4 59 52 59 C52 62.3 52 65.6 52 69 C34.84 69 17.68 69 0 69 C0 46.23 0 23.46 0 0 Z " fill="#173257" transform="translate(431,472)"/>
<path d="M0 0 C4.29 0 8.58 0 13 0 C17.10859449 7.89282626 20.80216829 15.91494816 24.375 24.0625 C24.82794434 25.08609619 25.28088867 26.10969238 25.74755859 27.16430664 C26.16859863 28.13231201 26.58963867 29.10031738 27.0234375 30.09765625 C27.40419434 30.96914307 27.78495117 31.84062988 28.17724609 32.73852539 C29 35 29 35 29 38 C29.66 38 30.32 38 31 38 C31.10505859 37.32348389 31.21011719 36.64696777 31.31835938 35.94995117 C32.14060787 32.39148822 33.47645444 29.14662907 34.90625 25.80078125 C35.19101196 25.12452194 35.47577393 24.44826263 35.76916504 23.75151062 C36.67507391 21.6032971 37.58751355 19.45792659 38.5 17.3125 C39.11369589 15.85889895 39.72698149 14.4051246 40.33984375 12.95117188 C44.77219845 2.45560311 44.77219845 2.45560311 46 0 C49.96 0 53.92 0 58 0 C57.10607822 4.46960889 55.77619335 8.20610481 53.97265625 12.3359375 C53.51583717 13.39812248 53.51583717 13.39812248 53.04978943 14.48176575 C52.05911756 16.78174865 51.06134534 19.07855605 50.0625 21.375 C49.37607615 22.95864232 48.68987944 24.54238312 48.00390625 26.1262207 C46.97358385 28.50491757 45.94283886 30.88342108 44.90994263 33.26100159 C42.908956 37.87310392 40.94863554 42.4986692 39.02734375 47.14453125 C38.59349365 48.18109863 38.15964355 49.21766602 37.71264648 50.28564453 C36.93345918 52.15023488 36.16509213 54.01940423 35.41040039 55.89404297 C32.57623417 62.60029392 28.88795405 68.76058574 22.4296875 72.48046875 C15.0451154 74.05948497 7.54795016 73.92877009 1 70 C-0.39195915 65.82412255 1.17676781 63.86525224 3 60 C3.56847656 60.14824219 4.13695312 60.29648437 4.72265625 60.44921875 C11.98966452 62.29935934 11.98966452 62.29935934 19 60.5 C21.59723708 57.25345365 21.75363041 55.12817324 22 51 C21.12706446 47.79330335 21.12706446 47.79330335 19.5703125 44.67578125 C19.02592529 43.49089111 18.48153809 42.30600098 17.9206543 41.08520508 C17.32231653 39.82753504 16.72376099 38.5699686 16.125 37.3125 C15.52534094 36.01993879 14.92745176 34.72655508 14.33129883 33.43237305 C13.13532105 30.84154358 11.93090962 28.25494324 10.71826172 25.671875 C8.32714962 20.57358331 6.00414677 15.44496318 3.6875 10.3125 C3.30932129 9.48854736 2.93114258 8.66459473 2.54150391 7.81567383 C0 2.22593183 0 2.22593183 0 0 Z " fill="#1D3558" transform="translate(599,488)"/>
<path d="M0 0 C4.29 0 8.58 0 13 0 C13.01458252 1.03406982 13.02916504 2.06813965 13.04418945 3.13354492 C13.10230882 6.98236082 13.17954023 10.83059999 13.26245117 14.67895508 C13.29563655 16.34227108 13.32368834 18.00569796 13.34643555 19.66918945 C13.38009999 22.06509499 13.4324194 24.45999035 13.48828125 26.85546875 C13.49467117 27.5952446 13.5010611 28.33502045 13.50764465 29.09721375 C13.66809754 34.77429078 15.01893717 38.01893717 19 42 C23.80464209 42.59574467 28.45244684 42.58033244 33 40.875 C36.55024509 37.54664522 37.87301214 34.08975802 38.43237305 29.28955078 C38.4732783 27.92516147 38.4990942 26.56025647 38.51171875 25.1953125 C38.52966995 24.4713327 38.54762115 23.74735291 38.56611633 23.00143433 C38.61991138 20.70934723 38.65401402 18.41746459 38.6875 16.125 C38.72070049 14.56247173 38.75519266 12.99997034 38.79101562 11.4375 C38.87561923 7.62514831 38.94257559 3.812854 39 0 C43.29 0 47.58 0 52 0 C52 17.49 52 34.98 52 53 C48.04 53 44.08 53 40 53 C40 51.35 40 49.7 40 48 C39.46890625 48.34933594 38.9378125 48.69867187 38.390625 49.05859375 C37.33101562 49.74115234 37.33101562 49.74115234 36.25 50.4375 C35.55390625 50.88996094 34.8578125 51.34242188 34.140625 51.80859375 C28.33024327 55.04247409 21.45481078 54.55525254 15 54 C8.31620947 52.06936035 4.9794273 48.23540909 1.4128418 42.40576172 C-0.387611 38.06563444 -0.38042307 34.52616781 -0.29296875 29.8828125 C-0.28872391 29.02565643 -0.28447906 28.16850037 -0.28010559 27.28536987 C-0.26339886 24.56491836 -0.22576219 21.84522518 -0.1875 19.125 C-0.17244278 17.27344825 -0.1587562 15.42188481 -0.14648438 13.5703125 C-0.11352165 9.04658567 -0.06179537 4.52342113 0 0 Z " fill="#1E3759" transform="translate(835,488)"/>
<path d="M0 0 C1 3 1 3 0.22265625 5.04296875 C-0.35162109 6.10451172 -0.35162109 6.10451172 -0.9375 7.1875 C-1.50791016 8.26064453 -1.50791016 8.26064453 -2.08984375 9.35546875 C-2.39019531 9.89816406 -2.69054687 10.44085938 -3 11 C-4.03125 10.505 -5.0625 10.01 -6.125 9.5 C-12.15310646 7.21646237 -18.65129099 7.37884296 -25 8 C-25.99 8.66 -26.98 9.32 -28 10 C-28.5 12.5 -28.5 12.5 -28 15 C-25.18138977 16.87907348 -23.95536504 17.36314554 -20.76171875 17.9296875 C-19.94123047 18.08566406 -19.12074219 18.24164063 -18.27539062 18.40234375 C-16.56284269 18.71512609 -14.84929788 19.02250305 -13.13476562 19.32421875 C-6.97125919 20.5096938 -2.61771612 22.28820106 1.84765625 26.9140625 C4.10447469 30.99928639 3.56974458 35.48788492 3 40 C0.78628678 45.07309279 -2.16068672 46.9982085 -7 49.23828125 C-16.90277772 53.00984698 -29.26832336 52.00821758 -38.99609375 48.265625 C-41.40497245 46.74422792 -42.21846642 45.73792157 -43 43 C-42.06434658 40.35435928 -40.54985485 38.37036624 -39 36 C-35 37.33333333 -31 38.66666667 -27 40 C-24.66894093 40.12047541 -22.33413858 40.17534303 -20 40.1875 C-18.14375 40.20876953 -18.14375 40.20876953 -16.25 40.23046875 C-12.85240575 40.25871019 -12.85240575 40.25871019 -10 38 C-9.74969023 35.41619823 -9.74969023 35.41619823 -10 33 C-15.01127209 30.89526572 -19.78007954 29.59298255 -25.125 28.5625 C-32.15570231 27.10528179 -35.63843661 25.73444182 -40.375 20.25 C-42.36617451 16.26765099 -42.86437141 13.36551215 -42 9 C-38.95319787 3.13208478 -35.00994776 -0.39881681 -28.875 -2.75 C-19.08970871 -5.67266951 -9.23903873 -4.22396419 0 0 Z " fill="#1E3658" transform="translate(594,491)"/>
<path d="M0 0 C4.75814358 2.66873921 8.00029965 6.12589896 9.75 11.375 C10.93560438 21.22912164 6.61201827 27.41250261 1.1171875 35.19921875 C-0.56846796 37.7373027 -0.56846796 37.7373027 -2.25 42.375 C-5.88 42.375 -9.51 42.375 -13.25 42.375 C-13.95125 40.910625 -14.6525 39.44625 -15.375 37.9375 C-17.60187214 33.45830575 -20.13808759 29.37155603 -23.015625 25.28515625 C-26.12721154 20.47007455 -25.92164026 14.89480215 -25.25 9.375 C-23.31540496 4.62960321 -19.74413265 1.31254261 -15.19921875 -0.96484375 C-9.93409684 -2.74802131 -5.0282491 -2.25371617 0 0 Z " fill="#FAFDFD" transform="translate(266.25,464.625)"/>
<path d="M0 0 C3.4515921 1.92492637 5.09248625 3.53627542 7.25 6.8125 C7.6625 7.410625 8.075 8.00875 8.5 8.625 C10.17609433 13.51360847 9.60297319 17.71642536 8.0625 22.5 C5.86593192 26.51441753 3.40560773 29.73469613 -0.75 31.8125 C-6.23320778 32.31321209 -11.14459862 32.50052916 -16.25 30.3125 C-20.85925777 25.70324223 -22.95410376 21.23667009 -23.25 14.6875 C-23.04345269 10.04374661 -21.87246457 7.35691924 -18.75 3.8125 C-12.65376603 -1.55799183 -7.7393192 -2.45078441 0 0 Z " fill="#F9FAFB" transform="translate(798.75,499.1875)"/>
<path d="M0 0 C0 7.92 0 15.84 0 24 C3.3825 23.175 6.765 22.35 10.25 21.5 C20.77268639 18.96181366 31.31916678 16.5347889 41.88195801 14.16967773 C43.5002037 13.80703335 45.11812578 13.4429418 46.73571777 13.07739258 C49.02727849 12.56020537 51.32005403 12.04880274 53.61328125 11.5390625 C54.30084 11.38309601 54.98839874 11.22712952 55.6967926 11.06643677 C58.92171525 10.35658114 61.670836 10 65 10 C64.13688187 16.93624986 62.68123437 23.74604522 61.27734375 30.58984375 C61.00955153 31.90259727 60.74194069 33.2153878 60.47450256 34.5282135 C59.77433772 37.9627832 59.07172926 41.39684846 58.36859131 44.83081055 C57.64983502 48.34328287 56.93341773 51.85623213 56.21679688 55.36914062 C54.81347228 62.24655936 53.40756267 69.12344743 52 76 C48.59837913 74.41051534 46.67505674 72.76641381 44.25 69.875 C43.63640625 69.15054688 43.0228125 68.42609375 42.390625 67.6796875 C41.93171875 67.12539063 41.4728125 66.57109375 41 66 C41.99 66 42.98 66 44 66 C44.33 66.99 44.66 67.98 45 69 C47.50447516 70.21869929 47.50447516 70.21869929 50 71 C51.14814997 68.70370006 51.30769809 66.92301914 51.5625 64.375 C51.68818359 63.14910156 51.68818359 63.14910156 51.81640625 61.8984375 C51.87699219 61.27195312 51.93757813 60.64546875 52 60 C52.66 60 53.32 60 54 60 C53.81179688 59.28585937 53.62359375 58.57171875 53.4296875 57.8359375 C52.94812118 54.65759981 53.31779896 52.72635136 54.125 49.625 C54.4034375 48.5009375 54.681875 47.376875 54.96875 46.21875 C55.12988281 45.57035156 55.29101562 44.92195313 55.45703125 44.25390625 C56.58751449 39.56118085 57.59792094 34.84120982 58.625 30.125 C58.95201904 28.64507568 58.95201904 28.64507568 59.28564453 27.13525391 C60.38499222 22.10148861 61.3590897 17.11303996 62 12 C60.22109375 12.48919922 60.22109375 12.48919922 58.40625 12.98828125 C49.2210614 15.47979468 40.09116409 17.65104884 30.72265625 19.3203125 C21.93116146 20.92547524 13.41946324 23.0032419 5 26 C5.66 26.78375 6.32 27.5675 7 28.375 C9 31 9 31 9 33 C9.66 33 10.32 33 11 33 C11 33.66 11 34.32 11 35 C11.61875 35.309375 12.2375 35.61875 12.875 35.9375 C14.25 36.625 15.625 37.3125 17 38 C16.49329868 42.40440379 15.07447297 44.48496283 12.0625 47.6875 C11.258125 48.54472656 10.45375 49.40195312 9.625 50.28515625 C8.75875 51.18105469 7.8925 52.07695312 7 53 C6.0925 53.94746094 5.185 54.89492188 4.25 55.87109375 C-0.79627786 61.04206161 -0.79627786 61.04206161 -3 63 C-3.66 63 -4.32 63 -5 63 C-5.20496094 63.53367187 -5.40992188 64.06734375 -5.62109375 64.6171875 C-7.57832646 67.99937434 -10.2596965 70.43037488 -13.0625 73.125 C-17.0044894 76.69553366 -17.0044894 76.69553366 -20 81 C-20.99 80.67 -21.98 80.34 -23 80 C-18.75789864 74.93288701 -14.32282911 70.18776629 -9.6328125 65.53515625 C-8.95322479 64.85698349 -8.27363708 64.17881073 -7.57345581 63.48008728 C-5.42632998 61.33850859 -3.27573373 59.20045471 -1.125 57.0625 C0.34137773 55.60114411 1.8075258 54.13955774 3.2734375 52.67773438 C6.84631 49.11582065 10.42229684 45.55706135 14 42 C12.22503686 38.15577404 9.9476067 35.80754485 6.875 32.875 C5.21276567 31.28810774 3.57775654 29.67090822 2 28 C2 27.34 2 26.68 2 26 C1.34 26 0.68 26 0 26 C0.05800781 27.31355469 0.11601562 28.62710937 0.17578125 29.98046875 C0.22269048 31.71611023 0.26818939 33.45179023 0.3125 35.1875 C0.35439453 36.05181641 0.39628906 36.91613281 0.43945312 37.80664062 C0.56338342 44.27580203 0.56338342 44.27580203 -2.06640625 47.65625 C-3.03449219 48.4296875 -4.00257813 49.203125 -5 50 C-6.18501098 51.17044187 -7.35602242 52.35516131 -8.515625 53.55078125 C-9.76037821 54.80472568 -11.00517051 56.0586313 -12.25 57.3125 C-12.88679688 57.95767578 -13.52359375 58.60285156 -14.1796875 59.26757812 C-14.78554688 59.87666016 -15.39140625 60.48574219 -16.015625 61.11328125 C-16.56508789 61.66798096 -17.11455078 62.22268066 -17.68066406 62.79418945 C-19 64 -19 64 -20 64 C-20 52.45 -20 40.9 -20 29 C-34.44583818 35.34614856 -47.84976388 41.86537999 -60.9453125 50.63964844 C-64.25308803 52.8296348 -67.62475717 54.91602605 -71 57 C-70.19042969 53.15380859 -70.19042969 53.15380859 -68.4765625 51.76953125 C-67.86554688 51.45371094 -67.25453125 51.13789063 -66.625 50.8125 C-66.01914062 50.48894531 -65.41328125 50.16539062 -64.7890625 49.83203125 C-63 49 -63 49 -60 48 C-60 47.34 -60 46.68 -60 46 C-58.700625 45.38125 -58.700625 45.38125 -57.375 44.75 C-53.95043153 43.06193844 -53.95043153 43.06193844 -50.8125 40.8125 C-48 39 -48 39 -45 39 C-45 38.34 -45 37.68 -45 37 C-44.00355469 36.58234375 -43.00710938 36.1646875 -41.98046875 35.734375 C-39.34109198 34.6050167 -36.75041317 33.41045115 -34.17578125 32.140625 C-33.22155273 31.67462891 -33.22155273 31.67462891 -32.24804688 31.19921875 C-30.94203417 30.5587322 -29.63999733 29.91008289 -28.34179688 29.25390625 C-23.5630152 26.94489248 -23.5630152 26.94489248 -20.60546875 27.234375 C-19 28 -19 28 -18 29 C-17.8415735 31.0708472 -17.74875578 33.14678029 -17.68359375 35.22265625 C-17.64169922 36.48271484 -17.59980469 37.74277344 -17.55664062 39.04101562 C-17.51682404 40.38150736 -17.47711186 41.7220022 -17.4375 43.0625 C-17.39431958 44.40691523 -17.35070544 45.7513166 -17.30664062 47.09570312 C-17.20014642 50.3970234 -17.0981354 53.69842236 -17 57 C-13.21269053 55.28350631 -11.57103959 53.2722322 -9 50 C-7.700625 49.071875 -7.700625 49.071875 -6.375 48.125 C-2.45708681 44.61949873 -2.07449519 40.33212909 -1.78881836 35.22363281 C-1.79578007 33.8833737 -1.81317481 32.54313684 -1.83984375 31.203125 C-1.84504532 30.48767517 -1.85024689 29.77222534 -1.85560608 29.03509521 C-1.87326233 26.77317963 -1.90443083 24.5117384 -1.9375 22.25 C-1.96517359 19.97402805 -1.98985573 17.69812087 -2.00868225 15.42205811 C-2.02088572 14.01188337 -2.03843647 12.60174215 -2.06199646 11.19171143 C-2.09304752 8.15900159 -1.96845536 5.90536607 -1 3 C-2.0725 3.350625 -3.145 3.70125 -4.25 4.0625 C-7.78720743 4.94680186 -8.74811124 5.02880551 -12 4 C-10.3767313 3.3291288 -8.75132422 2.66342971 -7.125 2 C-6.22007812 1.62875 -5.31515625 1.2575 -4.3828125 0.875 C-2 0 -2 0 0 0 Z " fill="#A9CAE2" transform="translate(347,402)"/>
<path d="M0 0 C0 10.23 0 20.46 0 31 C-3.3721875 31.3403125 -3.3721875 31.3403125 -6.8125 31.6875 C-15.79770349 32.71291822 -24.37359718 34.98947349 -33.05566406 37.45922852 C-35.02933696 38.00815939 -37.01182584 38.50657402 -39 39 C-34.69849478 33.86187175 -30.19337975 29.0461448 -25.44921875 24.31640625 C-24.74980667 23.61603745 -24.05039459 22.91566864 -23.32978821 22.19407654 C-21.86455991 20.72817238 -20.39808666 19.26351161 -18.93041992 17.80004883 C-16.67314318 15.54817756 -14.42131555 13.2909546 -12.16992188 11.03320312 C-10.74250846 9.60644965 -9.31478535 8.18000594 -7.88671875 6.75390625 C-6.87275276 5.73690392 -6.87275276 5.73690392 -5.83830261 4.69935608 C-5.21708023 4.08128586 -4.59585785 3.46321564 -3.95581055 2.82641602 C-3.40765182 2.27905289 -2.8594931 1.73168976 -2.29472351 1.16773987 C-1 0 -1 0 0 0 Z " fill="#90BBE5" transform="translate(347,507)"/>
<path d="M0 0 C9.24 0 18.48 0 28 0 C28 3.63 28 7.26 28 11 C18.76 11 9.52 11 0 11 C0 7.37 0 3.74 0 0 Z " fill="#253C5C" transform="translate(661,508)"/>
<path d="M0 0 C0.88816406 0.01353516 1.77632812 0.02707031 2.69140625 0.04101562 C4.87822578 0.07628691 7.06379966 0.12557248 9.25 0.1875 C9.4609375 6.8359375 9.4609375 6.8359375 7.5625 10 C3.85105527 13.51082609 0.75657327 14.30511398 -4.25 14.5625 C-7.48303634 14.47074438 -8.83831977 14.1424389 -11.8125 12.625 C-13.75 10.1875 -13.75 10.1875 -14.3125 6.625 C-13.75 3.1875 -13.75 3.1875 -12.32421875 1.484375 C-8.31592495 -0.53497787 -4.41615157 -0.12720082 0 0 Z " fill="#F8FBFC" transform="translate(518.75,518.8125)"/>
<path d="M0 0 C0.99 0.33 1.98 0.66 3 1 C-5.88671875 9.88671875 -5.88671875 9.88671875 -7.49707031 11.49682617 C-8.77858262 12.77854665 -10.0592967 14.06106514 -11.33984375 15.34375 C-13.61502044 17.61558575 -15.89640125 19.88085697 -18.1796875 22.14453125 C-19.74485315 23.70045899 -21.3099557 25.2564502 -22.875 26.8125 C-23.65230469 27.58142578 -24.42960937 28.35035156 -25.23046875 29.14257812 C-28.74717419 32.64450749 -32.18997995 36.15447703 -35.41796875 39.92578125 C-40.64651948 46.00937692 -46.49886443 51.50413171 -52.23242188 57.10546875 C-53.10318359 57.96527344 -53.97394531 58.82507813 -54.87109375 59.7109375 C-55.66443115 60.48743652 -56.45776855 61.26393555 -57.27514648 62.06396484 C-59.22173694 63.81672808 -59.22173694 63.81672808 -59 66 C-58.030625 66.45375 -57.06125 66.9075 -56.0625 67.375 C-53 69 -53 69 -52 71 C-50.33927151 71.68132451 -48.672233 72.34742127 -47 73 C-46.34 73.66 -45.68 74.32 -45 75 C-49.71370756 74.35014905 -53.57686444 72.48438608 -57.8125 70.4375 C-58.50537109 70.10814453 -59.19824219 69.77878906 -59.91210938 69.43945312 C-61.61044948 68.63127749 -63.30555769 67.81631623 -65 67 C-63.34986235 62.74443702 -60.17055778 59.90420204 -56.98974609 56.76269531 C-56.3749791 56.14763626 -55.7602121 55.53257721 -55.1268158 54.89888 C-53.09706176 52.87051742 -51.06031925 50.84932774 -49.0234375 48.828125 C-47.61338475 47.42180303 -46.20377342 46.01503836 -44.79458618 44.60784912 C-41.08687958 40.90777382 -37.37320576 37.21374433 -33.65826416 33.52093506 C-29.86751741 29.75065747 -26.08243543 25.97470239 -22.296875 22.19921875 C-14.87012159 14.7939064 -7.43705286 7.39496768 0 0 Z " fill="#86A6CA" transform="translate(277,528)"/>
<path d="M0 0 C0 34.98 0 69.96 0 106 C-5.61 106 -11.22 106 -17 106 C-17 105.67 -17 105.34 -17 105 C-11.72 105 -6.44 105 -1 105 C-1.33 72.33 -1.66 39.66 -2 6 C-4.31 7.98 -6.62 9.96 -9 12 C-9.79148437 12.56203125 -10.58296875 13.1240625 -11.3984375 13.703125 C-15.21946681 16.69349576 -16.80658197 18.94330374 -17.69140625 23.77734375 C-17.98418703 27.63924077 -17.99707011 31.49631347 -17.98339844 35.36767578 C-18.01341153 40.12651677 -18.31034445 44.87370955 -18.5625 49.625 C-18.6485533 51.42962045 -18.73331358 53.23430331 -18.81640625 55.0390625 C-18.87699219 56.34617187 -18.93757813 57.65328125 -19 59 C-19.33 59 -19.66 59 -20 59 C-23.30078278 22.10339574 -23.30078278 22.10339574 -15.8046875 12.11328125 C-4.44773923 0 -4.44773923 0 0 0 Z " fill="#B5CFE4" transform="translate(380,474)"/>
<path d="M0 0 C7.26 0 14.52 0 22 0 C20.96418824 6.21487057 20.49754628 7.16063122 16 11 C12.76645861 12.6167707 10.57239465 12.47631929 7 12 C2.5934107 8.52369066 1.10371346 5.5185673 0 0 Z " fill="#7FAADA" transform="translate(247,521)"/>
<path d="M0 0 C0 10.23 0 20.46 0 31 C-3.3721875 31.3403125 -3.3721875 31.3403125 -6.8125 31.6875 C-15.79770349 32.71291822 -24.37359718 34.98947349 -33.05566406 37.45922852 C-35.02933696 38.00815939 -37.01182584 38.50657402 -39 39 C-34.69849478 33.86187175 -30.19337975 29.0461448 -25.44921875 24.31640625 C-24.74980667 23.61603745 -24.05039459 22.91566864 -23.32978821 22.19407654 C-21.86455991 20.72817238 -20.39808666 19.26351161 -18.93041992 17.80004883 C-16.67314318 15.54817756 -14.42131555 13.2909546 -12.16992188 11.03320312 C-10.74250846 9.60644965 -9.31478535 8.18000594 -7.88671875 6.75390625 C-6.87275276 5.73690392 -6.87275276 5.73690392 -5.83830261 4.69935608 C-5.21708023 4.08128586 -4.59585785 3.46321564 -3.95581055 2.82641602 C-3.40765182 2.27905289 -2.8594931 1.73168976 -2.29472351 1.16773987 C-1 0 -1 0 0 0 Z M-3 6 C-3.42410156 6.45890625 -3.84820312 6.9178125 -4.28515625 7.390625 C-7.18679579 10.42618636 -9.77181663 13.06754236 -13.5625 14.9375 C-17.23656193 16.86045001 -19.10566764 19.46409509 -21.4453125 22.828125 C-24.03227823 26.44207712 -27.03163442 29.69791284 -30 33 C-26.33213994 34.22262002 -24.82721356 33.61165349 -21.125 32.625 C-14.38533509 30.96472259 -7.92469834 30.38047793 -1 30 C-1 22.41 -1 14.82 -1 7 C-1.66 6.67 -2.32 6.34 -3 6 Z " fill="#9CBBD8" transform="translate(347,507)"/>
<path d="M0 0 C0.33 0 0.66 0 1 0 C1.96155505 27.0872104 2.11278196 54.17052339 2.12338257 81.27172852 C2.1249974 83.99560913 2.12855761 86.71948132 2.13256836 89.44335938 C2.13846814 93.80498347 2.13861509 98.16657258 2.13431931 102.52819824 C2.13332806 104.154256 2.13389734 105.78031558 2.13615799 107.40637207 C2.14558056 115.66394313 2.02513209 123.79079921 1 132 C1.78761719 132.03738281 2.57523438 132.07476563 3.38671875 132.11328125 C13.95413837 132.75107817 23.88833146 134.94298393 34 138 C34 138.33 34 138.66 34 139 C29.74794021 139.1389975 26.17285476 138.69358644 22.0625 137.625 C14.7995011 135.95386751 7.38739729 134.98498631 0 134 C0 89.78 0 45.56 0 0 Z " fill="#7D9EC4" transform="translate(170,404)"/>
<path d="M0 0 C-2.42482541 2.42482541 -4.39407501 2.97854274 -7.625 4.125 C-22.22864616 9.61545572 -36.9082158 16.99902653 -49.4765625 26.2421875 C-50.238479 26.80067383 -51.00039551 27.35916016 -51.78540039 27.93457031 C-53.27964779 29.04384114 -54.76125283 30.17039111 -56.22827148 31.31542969 C-58.11371227 32.72352387 -59.88030956 33.97812202 -62 35 C-66.2832876 34.35274765 -69.37539459 31.3746931 -72.75 28.75 C-77.70919086 24.95081789 -82.74867268 21.38153653 -88 18 C-85 17 -85 17 -82 18.25 C-78.718159 20.16440725 -76.6948277 21.6103446 -75 25 C-73.68545779 25.70299431 -72.34828182 26.36410822 -71 27 C-69.57356548 27.85898429 -68.15671114 28.73408294 -66.75 29.625 C-66.04359375 30.07101562 -65.3371875 30.51703125 -64.609375 30.9765625 C-64.07828125 31.31429687 -63.5471875 31.65203125 -63 32 C-62.30132812 31.4946875 -61.60265625 30.989375 -60.8828125 30.46875 C-59.51769531 29.49421875 -59.51769531 29.49421875 -58.125 28.5 C-56.76761719 27.52546875 -56.76761719 27.52546875 -55.3828125 26.53125 C-53 25 -53 25 -51 25 C-51 24.34 -51 23.68 -51 23 C-48.09451118 20.95830515 -46.59857954 20 -43 20 C-43 19.34 -43 18.68 -43 18 C-42.21496094 17.61328125 -41.42992187 17.2265625 -40.62109375 16.828125 C-39.57050781 16.30734375 -38.51992188 15.7865625 -37.4375 15.25 C-35.88869141 14.48429688 -35.88869141 14.48429688 -34.30859375 13.703125 C-32.07224927 12.55194886 -29.86837893 11.33575852 -27.69921875 10.0625 C-23.41633889 7.59008063 -18.92630903 5.6700835 -14.375 3.75 C-13.12589844 3.20472656 -13.12589844 3.20472656 -11.8515625 2.6484375 C-11.04203125 2.30554688 -10.2325 1.96265625 -9.3984375 1.609375 C-8.67317871 1.29967773 -7.94791992 0.98998047 -7.20068359 0.67089844 C-4.7066705 -0.08942417 -2.59293161 -0.11721394 0 0 Z " fill="#88A8CB" transform="translate(321,587)"/>
<path d="M0 0 C5.43722721 -0.09092353 10.54976569 0.20011778 15.9375 0.9375 C17.24589844 1.11152344 18.55429688 1.28554688 19.90234375 1.46484375 C23 2 23 2 24 3 C24.08651611 4.41570123 24.10704904 5.835595 24.09765625 7.25390625 C24.09443359 8.10791016 24.09121094 8.96191406 24.08789062 9.84179688 C24.07951172 10.73962891 24.07113281 11.63746094 24.0625 12.5625 C24.05798828 13.46419922 24.05347656 14.36589844 24.04882812 15.29492188 C24.03700225 17.53001314 24.0205222 19.76497437 24 22 C23.67 22 23.34 22 23 22 C22.10395632 15.95170514 21.88730557 10.1105424 22 4 C20.7625 4.020625 19.525 4.04125 18.25 4.0625 C15.28742823 4.06768839 12.86527601 3.73942607 10 3 C7.66699067 2.96111651 5.33290199 2.9551365 3 3 C1.86033577 12.06210521 1.8717127 21.05016348 1.90234375 30.1640625 C1.90421235 31.80886797 1.90563416 33.453674 1.90663147 35.09848022 C1.91042187 39.39574766 1.92022186 43.69298048 1.93133545 47.99023438 C1.94162492 52.38801607 1.94614513 56.78580345 1.95117188 61.18359375 C1.96184776 69.78907826 1.97888165 78.39453481 2 87 C1.67 87 1.34 87 1 87 C-0.20994726 27.31575291 -0.20994726 27.31575291 0 0 Z " fill="#7B9EC9" transform="translate(137,429)"/>
<path d="M0 0 C1.7265625 1.6796875 1.7265625 1.6796875 3.625 3.875 C4.25664062 4.59429688 4.88828125 5.31359375 5.5390625 6.0546875 C7 8 7 8 7 10 C4.98828125 11.54296875 4.98828125 11.54296875 2.3125 13.1875 C1.44238281 13.73792969 0.57226562 14.28835938 -0.32421875 14.85546875 C-3.45916262 16.19640095 -4.80787843 16.06763525 -8 15 C-10.3125 13.4375 -10.3125 13.4375 -12 12 C-10.53033642 8.60140297 -8.61962486 6.35036291 -6 3.75 C-5.29875 3.04359375 -4.5975 2.3371875 -3.875 1.609375 C-2 0 -2 0 0 0 Z " fill="#F0F9FC" transform="translate(263,581)"/>
<path d="M0 0 C-0.95261719 0.39832031 -1.90523438 0.79664063 -2.88671875 1.20703125 C-4.1537288 1.74199105 -5.42065126 2.27715832 -6.6875 2.8125 C-7.31333984 3.07353516 -7.93917969 3.33457031 -8.58398438 3.60351562 C-11.36375543 4.78237141 -13.99726969 5.99833699 -16.578125 7.5703125 C-19.33482302 9.19765359 -22.00996994 10.10930793 -25.0625 11.0625 C-28.54964639 12.15745517 -31.78013992 13.27021601 -35 15 C-35.78375 15.40476562 -36.5675 15.80953125 -37.375 16.2265625 C-48.85753002 22.34374367 -59.6520197 29.76264113 -70.0703125 37.546875 C-74.7068118 41 -74.7068118 41 -78 41 C-76.74822456 38.49644912 -75.48005724 37.87519661 -73.125 36.375 C-69.60954658 34.09216626 -66.22809898 31.70232423 -62.875 29.1875 C-47.87213715 18.2326975 -31.33050868 10.10223199 -14.25 2.9375 C-12.81998657 2.32745117 -12.81998657 2.32745117 -11.36108398 1.70507812 C-10.46333252 1.33705078 -9.56558105 0.96902344 -8.640625 0.58984375 C-7.84172852 0.25847412 -7.04283203 -0.07289551 -6.21972656 -0.41430664 C-3.73266354 -1.07053895 -2.39946663 -0.84104663 0 0 Z " fill="#A5C5DE" transform="translate(335,408)"/>
<path d="M0 0 C4.89238251 1.46165608 9.162377 3.51506022 13.625 5.9375 C14.27984375 6.28490234 14.9346875 6.63230469 15.609375 6.99023438 C18.93706349 8.77869853 22.06098943 10.62044575 25 13 C23.47981211 16.55252464 21.38710542 18.94252306 18.6875 21.6875 C17.92824219 22.47511719 17.16898438 23.26273438 16.38671875 24.07421875 C13.68513687 26.25405487 12.46886566 26.99487612 9 27 C6.51130184 25.89065106 4.32488215 24.75770416 2 23.375 C-4.80718884 19.51852328 -11.60404923 16.59419521 -19 14 C-19 13.34 -19 12.68 -19 12 C-9.72117358 13.56896519 -1.37095126 18.11471376 6.52734375 23.05859375 C8.99229404 24.26784324 8.99229404 24.26784324 11.61328125 23.33984375 C13.8378737 22.09101362 15.46811987 20.93501508 17.25 19.125 C17.75015625 18.63257813 18.2503125 18.14015625 18.765625 17.6328125 C20.1675882 15.77831687 20.58739982 14.269301 21 12 C20.32324219 11.74347656 19.64648438 11.48695313 18.94921875 11.22265625 C15.48607897 9.786944 12.1541438 8.13101854 8.8125 6.4375 C8.18408203 6.12103516 7.55566406 5.80457031 6.90820312 5.47851562 C5.27132555 4.65394949 3.63558748 3.82712219 2 3 C1.34 2.67 0.68 2.34 0 2 C0 1.34 0 0.68 0 0 Z " fill="#86A4C8" transform="translate(224,531)"/>
<path d="M0 0 C4.91637126 4.50667365 9.04524657 9.23255841 9.53125 16.12109375 C9.5480485 17.55983548 9.53698835 18.99913572 9.5 20.4375 C9.48791504 21.1903125 9.47583008 21.943125 9.46337891 22.71875 C9.26168154 28.34182809 8.33853406 32.39302594 5 37 C4.48308594 37.79148437 3.96617187 38.58296875 3.43359375 39.3984375 C2.39641163 40.98295188 1.34310866 42.55710285 0.26953125 44.1171875 C-2.89153579 48.80529307 -2.21125802 49.90132216 -3 57 C-12.57 57 -22.14 57 -32 57 C-32 55.35 -32 53.7 -32 52 C-31.67 53.32 -31.34 54.64 -31 56 C-22.09 56 -13.18 56 -4 56 C-4.33 54.02 -4.66 52.04 -5 50 C-4.0625 46.125 -4.0625 46.125 -3 43 C-2.34 43 -1.68 43 -1 43 C-0.88527344 42.41734375 -0.77054687 41.8346875 -0.65234375 41.234375 C0.04784991 38.83610688 1.01525508 37.29263068 2.4375 35.25 C7.5723682 27.16184056 7.25580685 19.32273852 7 10 C6.34 10 5.68 10 5 10 C5 9.01 5 8.02 5 7 C4.34 7 3.68 7 3 7 C0.70351351 4.4385343 0 3.52032428 0 0 Z " fill="#99B6D0" transform="translate(276,460)"/>
<path d="M0 0 C0.495 1.485 0.495 1.485 1 3 C-1.96223958 5.96223958 -4.92447917 8.92447917 -7.88671875 11.88671875 C-8.6744165 12.6753833 -8.6744165 12.6753833 -9.47802734 13.47998047 C-10.86222707 14.86240387 -12.25302221 16.23821545 -13.64453125 17.61328125 C-15.84872524 19.84671828 -17.9364614 22.13691547 -20 24.5 C-25.84252666 31.091847 -32.06769565 36.57530359 -39 42 C-39.66 41.67 -40.32 41.34 -41 41 C-27.47 27.47 -13.94 13.94 0 0 Z " fill="#93B5D4" transform="translate(319,486)"/>
<path d="M0 0 C22.05042981 6.79366555 48.08037038 14.90105282 66 30 C61.41044745 29.40554367 57.79594435 27.46880629 53.8125 25.25 C52.45869389 24.51496053 51.10452753 23.7805842 49.75 23.046875 C48.49984821 22.3648615 47.2498315 21.68260028 46 21 C32.66471661 13.74893965 18.2013662 8.42725933 3.67578125 4.10546875 C2.79277344 3.74066406 1.90976563 3.37585938 1 3 C0.67 2.01 0.34 1.02 0 0 Z " fill="#91B3D1" transform="translate(170,402)"/>
<path d="M0 0 C0.66 0.33 1.32 0.66 2 1 C1.48501953 1.50450684 0.97003906 2.00901367 0.43945312 2.52880859 C-1.87885984 4.80568564 -4.18949158 7.09020471 -6.5 9.375 C-7.31082031 10.1690625 -8.12164062 10.963125 -8.95703125 11.78125 C-9.72402344 12.54179688 -10.49101562 13.30234375 -11.28125 14.0859375 C-11.99345703 14.7876709 -12.70566406 15.4894043 -13.43945312 16.21240234 C-15.21921489 17.85562056 -15.21921489 17.85562056 -15 20 C-14.030625 20.45375 -13.06125 20.9075 -12.0625 21.375 C-9 23 -9 23 -8 25 C-6.33927151 25.68132451 -4.672233 26.34742127 -3 27 C-2.34 27.66 -1.68 28.32 -1 29 C-5.71370756 28.35014905 -9.57686444 26.48438608 -13.8125 24.4375 C-14.50537109 24.10814453 -15.19824219 23.77878906 -15.91210938 23.43945312 C-17.61044948 22.63127749 -19.30555769 21.81631623 -21 21 C-19.66682603 18.0429903 -18.20298906 15.94683565 -15.91796875 13.65234375 C-15.31533203 13.04712891 -14.71269531 12.44191406 -14.09179688 11.81835938 C-13.46337891 11.19767578 -12.83496094 10.57699219 -12.1875 9.9375 C-11.57068359 9.31294922 -10.95386719 8.68839844 -10.31835938 8.04492188 C-7.13129643 4.87140649 -4.13723591 1.90892213 0 0 Z " fill="#7FA0C6" transform="translate(233,574)"/>
<path d="M0 0 C1.32 0.33 2.64 0.66 4 1 C-4.25 9.25 -12.5 17.5 -21 26 C-19.2062572 29.5874856 -17.3896203 32.16756222 -14.875 35.25 C-14.15054687 36.14203125 -13.42609375 37.0340625 -12.6796875 37.953125 C-12.12539063 38.62859375 -11.57109375 39.3040625 -11 40 C-11.99 40.495 -11.99 40.495 -13 41 C-13 40.34 -13 39.68 -13 39 C-13.99 38.67 -14.98 38.34 -16 38 C-17.28125 36.4765625 -17.28125 36.4765625 -18.5 34.625 C-19.79423473 32.67535153 -20.93735108 31.05821622 -22.65625 29.4609375 C-24 28 -24 28 -24 25 C-23.34 25 -22.68 25 -22 25 C-22 24.01 -22 23.02 -22 22 C-20.68 21.67 -19.36 21.34 -18 21 C-18 20.34 -18 19.68 -18 19 C-17.34 19 -16.68 19 -16 19 C-15.835 18.319375 -15.67 17.63875 -15.5 16.9375 C-13.61530515 13.24663925 -11.1282046 11.33055163 -7.96875 8.71484375 C-5.65846506 6.70251222 -3.8911953 4.40036327 -2 2 C-1.34 2 -0.68 2 0 2 C0 1.34 0 0.68 0 0 Z " fill="#8FAECE" transform="translate(299,539)"/>
<path d="M0 0 C2.71435596 0.93305986 3.78043163 1.62673377 5.25 4.125 C5.4975 4.74375 5.745 5.3625 6 6 C6.66 6 7.32 6 8 6 C11 10.38461538 11 10.38461538 11 13 C9.9275 13.598125 8.855 14.19625 7.75 14.8125 C5.60124236 16.0249516 3.7876128 17.17490711 1.875 18.75 C-0.70629146 20.47086097 -1.94751222 20.58142624 -5 20 C-7.21355255 18.49290039 -9.0275352 16.83485098 -11 15 C-10.34 14.67 -9.68 14.34 -9 14 C-8.46375 14.515625 -7.9275 15.03125 -7.375 15.5625 C-5.05255907 17.25822856 -5.05255907 17.25822856 -2.125 16.9375 C1.4556362 15.86330914 3.95896095 14.14255024 7 12 C7.66 12 8.32 12 9 12 C8.4946875 11.44570313 7.989375 10.89140625 7.46875 10.3203125 C6.8190625 9.59585938 6.169375 8.87140625 5.5 8.125 C4.8503125 7.40570312 4.200625 6.68640625 3.53125 5.9453125 C2 4 2 4 2 2 C1.48050781 2.45890625 0.96101563 2.9178125 0.42578125 3.390625 C-3.31712166 6.68382608 -7.06978801 9.92952189 -11 13 C-11.33 12.01 -11.66 11.02 -12 10 C-8.87378374 6.60582235 -6.43458973 4.3937282 -2 3 C-2 2.34 -2 1.68 -2 1 C-1.34 0.67 -0.68 0.34 0 0 Z " fill="#81A3C9" transform="translate(261,579)"/>
<path d="M0 0 C0 3 0 3 -1.29508972 4.65585327 C-1.90177994 5.25588165 -2.50847015 5.85591003 -3.13354492 6.47412109 C-3.81813278 7.15848236 -4.50272064 7.84284363 -5.20805359 8.54794312 C-6.33289909 9.64956284 -6.33289909 9.64956284 -7.48046875 10.7734375 C-8.24547195 11.53419586 -9.01047516 12.29495422 -9.79866028 13.07876587 C-12.25467474 15.51795329 -14.72087639 17.94654604 -17.1875 20.375 C-18.83206435 22.00451816 -20.47595314 23.63471843 -22.11914062 25.265625 C-25.14841029 28.2703759 -28.18151901 31.27112955 -31.21948242 34.26708984 C-34.15859594 37.16600996 -37.08574691 40.07609825 -40 43 C-39.67 41.35 -39.34 39.7 -39 38 C-37.515 37.505 -37.515 37.505 -36 37 C-35.31513275 35.67592331 -34.65129797 34.34090759 -34 33 C-32 30.75 -32 30.75 -30 29 C-29.34 29 -28.68 29 -28 29 C-28 28.34 -28 27.68 -28 27 C-27.34 27 -26.68 27 -26 27 C-26 26.34 -26 25.68 -26 25 C-25.34 25 -24.68 25 -24 25 C-23.73832031 24.40058594 -23.47664063 23.80117188 -23.20703125 23.18359375 C-21.92779812 20.86938236 -20.73749558 19.70340555 -18.6875 18.0625 C-15.60958164 15.52624429 -12.78621341 12.85953481 -10 10 C-5 5 -5 5 0 0 Z " fill="#9EBEDB" transform="translate(379,460)"/>
<path d="M0 0 C7.26 0 14.52 0 22 0 C20.96418824 6.21487057 20.49754628 7.16063122 16 11 C12.76645861 12.6167707 10.57239465 12.47631929 7 12 C2.5934107 8.52369066 1.10371346 5.5185673 0 0 Z M2 2 C3.64739285 6.86204199 3.64739285 6.86204199 7 10 C10.34491658 10.50489307 12.77999341 10.69524393 15.7890625 8.98046875 C17.68351394 7.55824952 17.68351394 7.55824952 20 5 C20 4.01 20 3.02 20 2 C14.06 2 8.12 2 2 2 Z " fill="#96B1CD" transform="translate(247,521)"/>
<path d="M0 0 C0.99 0.33 1.98 0.66 3 1 C2.28972656 1.51304687 1.57945312 2.02609375 0.84765625 2.5546875 C-3.51219684 6.18687927 -7.01601498 9.19644323 -7.8515625 14.93359375 C-8.13417919 18.75457145 -8.08885754 22.57121343 -8.015625 26.39990234 C-7.98708513 31.14911552 -8.30403591 35.88434115 -8.5625 40.625 C-8.64885003 42.42960627 -8.73363716 44.23428844 -8.81640625 46.0390625 C-8.87699219 47.34617187 -8.93757813 48.65328125 -9 50 C-9.33 50 -9.66 50 -10 50 C-10.24903175 44.48682029 -10.4294749 38.97697556 -10.54931641 33.45947266 C-10.59930959 31.5871473 -10.66733455 29.71520651 -10.75439453 27.84423828 C-11.49893323 11.42059048 -11.49893323 11.42059048 -7.72949219 6.47949219 C-5.27389021 4.02389021 -2.87413714 1.94093365 0 0 Z " fill="#A6C5E0" transform="translate(370,483)"/>
<path d="M0 0 C5.39155707 2.98958231 8.32025746 7.5178341 10.48046875 13.1953125 C11.54392154 16.99246452 12.28229883 20.39119482 10.63671875 24.09375 C9.54296875 25.7578125 9.54296875 25.7578125 7.48046875 28.1953125 C6.82046875 27.8653125 6.16046875 27.5353125 5.48046875 27.1953125 C5.81046875 26.5559375 6.14046875 25.9165625 6.48046875 25.2578125 C8.21563842 19.94385538 8.17957489 15.14545068 6.29296875 9.8828125 C3.29521224 5.43786319 -0.33477214 2.60933771 -5.51953125 1.1953125 C-11.33397058 0.58042745 -15.42365042 1.05938584 -20.51953125 4.1953125 C-20.51953125 3.2053125 -20.51953125 2.2153125 -20.51953125 1.1953125 C-14.71890033 -2.37982883 -6.33121739 -2.02206323 0 0 Z " fill="#9BBBD8" transform="translate(267.51953125,462.8046875)"/>
<path d="M0 0 C9.45454545 2.18181818 9.45454545 2.18181818 12 6 C12.33 6.66 12.66 7.32 13 8 C14.31454221 8.70299431 15.65171818 9.36410822 17 10 C18.42643452 10.85898429 19.84328886 11.73408294 21.25 12.625 C21.95640625 13.07101562 22.6628125 13.51703125 23.390625 13.9765625 C23.92171875 14.31429687 24.4528125 14.65203125 25 15 C25.62648438 14.566875 26.25296875 14.13375 26.8984375 13.6875 C27.71570313 13.130625 28.53296875 12.57375 29.375 12 C30.18710937 11.443125 30.99921875 10.88625 31.8359375 10.3125 C34 9 34 9 36 9 C34.81552623 12.55342132 33.77159276 13.21639509 30.75 15.3125 C29.59757812 16.14201172 29.59757812 16.14201172 28.421875 16.98828125 C26 18 26 18 23.5625 17.43359375 C20.57244317 15.76080281 17.95508036 13.85395139 15.25 11.75 C10.79140871 8.32880372 6.2830977 5.11687087 1.546875 2.09375 C1.03640625 1.7328125 0.5259375 1.371875 0 1 C0 0.67 0 0.34 0 0 Z " fill="#81A1C4" transform="translate(233,604)"/>
<path d="M0 0 C-1.44077046 3.36179774 -3.24750021 5.59156268 -6 8 C-6.66 8 -7.32 8 -8 8 C-8.20496094 8.53367187 -8.40992188 9.06734375 -8.62109375 9.6171875 C-10.57832646 12.99937434 -13.2596965 15.43037488 -16.0625 18.125 C-20.0044894 21.69553366 -20.0044894 21.69553366 -23 26 C-23.99 25.67 -24.98 25.34 -26 25 C-21.19509514 19.22636432 -16.0577806 13.87456107 -10.75 8.5625 C-9.9353125 7.73556641 -9.120625 6.90863281 -8.28125 6.05664062 C-7.50265625 5.27611328 -6.7240625 4.49558594 -5.921875 3.69140625 C-5.21643555 2.98185791 -4.51099609 2.27230957 -3.78417969 1.54125977 C-2 0 -2 0 0 0 Z " fill="#A4C4DE" transform="translate(350,457)"/>
<path d="M0 0 C0.99 0.33 1.98 0.66 3 1 C-5.88671875 9.88671875 -5.88671875 9.88671875 -7.4753418 11.47338867 C-8.88403667 12.88388812 -10.28607392 14.30102827 -11.6875 15.71875 C-14.3400419 18.33544674 -17.11237627 20.64960859 -20 23 C-20.66 22.67 -21.32 22.34 -22 22 C-14.74 14.74 -7.48 7.48 0 0 Z " fill="#8DADCF" transform="translate(277,528)"/>
<path d="M0 0 C1.65 0 3.3 0 5 0 C1.33366482 3.10333989 -2.4137131 5.44947759 -6.625 7.75 C-13.13948472 11.36973493 -19.08156082 15.45850381 -25 20 C-25.33 19.01 -25.66 18.02 -26 17 C-24.54550599 15.9944239 -23.08627557 14.99569565 -21.625 14 C-20.81289063 13.443125 -20.00078125 12.88625 -19.1640625 12.3125 C-17 11 -17 11 -15 11 C-15 10.34 -15 9.68 -15 9 C-14.13375 8.5875 -13.2675 8.175 -12.375 7.75 C-8.95043153 6.06193844 -8.95043153 6.06193844 -5.8125 3.8125 C-3 2 -3 2 0 2 C0 1.34 0 0.68 0 0 Z " fill="#A6C5DE" transform="translate(302,439)"/>
<path d="M0 0 C-0.95261719 0.39832031 -1.90523438 0.79664063 -2.88671875 1.20703125 C-4.1537288 1.74199105 -5.42065126 2.27715832 -6.6875 2.8125 C-7.31333984 3.07353516 -7.93917969 3.33457031 -8.58398438 3.60351562 C-12.2471541 5.15700645 -15.63025598 6.889413 -19 9 C-22.82350624 10.86273381 -25.75715638 11.19734156 -30 11 C-25.45337526 7.33685513 -20.36334147 5.44661401 -15 3.25 C-14.00226563 2.82589844 -13.00453125 2.40179688 -11.9765625 1.96484375 C-10.53410156 1.37123047 -10.53410156 1.37123047 -9.0625 0.765625 C-8.18722656 0.40243164 -7.31195313 0.03923828 -6.41015625 -0.33496094 C-3.8020824 -1.05461179 -2.51105515 -0.91033032 0 0 Z " fill="#ADCDE4" transform="translate(335,408)"/>
<path d="M0 0 C-1.72850345 0.79311367 -3.45783354 1.5844259 -5.1875 2.375 C-6.63189453 3.03628906 -6.63189453 3.03628906 -8.10546875 3.7109375 C-10.71645205 4.87372359 -13.33860685 5.95896405 -16 7 C-16.680625 7.26941406 -17.36125 7.53882813 -18.0625 7.81640625 C-21.68837014 9.21265866 -25.14066626 10.3969791 -29 11 C-25.13631503 7.65217488 -20.5770801 5.8870816 -15.9375 3.875 C-14.71450195 3.33552734 -14.71450195 3.33552734 -13.46679688 2.78515625 C-4.1699874 -1.29413402 -4.1699874 -1.29413402 0 0 Z " fill="#91B0D1" transform="translate(317,570)"/>
<path d="M0 0 C6.18277267 2.21125046 12.01760304 4.93215523 17.8125 8 C18.76298218 8.49790039 18.76298218 8.49790039 19.73266602 9.00585938 C23.47694414 11.01862512 26.76754239 13.24163618 30 16 C25.41091605 15.40560436 21.79513891 13.46994774 17.8125 11.25 C16.48493544 10.52501447 15.15680806 9.80105861 13.828125 9.078125 C13.18037109 8.72427734 12.53261719 8.37042969 11.86523438 8.00585938 C7.9624509 5.90121698 3.98220395 3.94893746 0 2 C0 1.34 0 0.68 0 0 Z " fill="#98B9D6" transform="translate(206,416)"/>
<path d="M0 0 C1.65 0 3.3 0 5 0 C5 0.66 5 1.32 5 2 C5.86625 2.2475 6.7325 2.495 7.625 2.75 C11.18928941 4.07010719 13.88136802 5.85160908 17 8 C17.99 8.33 18.98 8.66 20 9 C22.1875 10.9375 22.1875 10.9375 24 13 C24 13.66 24 14.32 24 15 C24.66 15 25.32 15 26 15 C25.67 15.66 25.34 16.32 25 17 C23.94941406 16.26394531 22.89882812 15.52789062 21.81640625 14.76953125 C14.71131368 9.82049594 7.70289459 4.98899898 0 1 C0 0.67 0 0.34 0 0 Z " fill="#9AB9D6" transform="translate(215,442)"/>
<path d="M0 0 C0.33 0.99 0.66 1.98 1 3 C-0.91356773 4.94064652 -2.83067938 6.877557 -4.75 8.8125 C-5.55824219 9.63331055 -5.55824219 9.63331055 -6.3828125 10.47070312 C-9.11740863 13.22197363 -11.79683904 15.78422118 -15 18 C-15.66 17.67 -16.32 17.34 -17 17 C-11.39 11.39 -5.78 5.78 0 0 Z " fill="#9DBCD8" transform="translate(319,486)"/>
<path d="M0 0 C5.94 0 11.88 0 18 0 C19 8 19 8 17.75 10.875 C16 13 16 13 13 15 C12.34 14.34 11.68 13.68 11 13 C11.804375 12.319375 12.60875 11.63875 13.4375 10.9375 C16.68283702 7.75506676 16.68283702 7.75506676 17 1 C11.39 1 5.78 1 0 1 C0 0.67 0 0.34 0 0 Z " fill="#54647A" transform="translate(511,518)"/>
<path d="M0 0 C0.33 0.66 0.66 1.32 1 2 C-0.15757812 2.13277344 -1.31515625 2.26554687 -2.5078125 2.40234375 C-4.04688408 2.58065082 -5.58594607 2.75904062 -7.125 2.9375 C-8.26582031 3.06801758 -8.26582031 3.06801758 -9.4296875 3.20117188 C-13.64329577 3.6915487 -17.821195 4.25902978 -22 5 C-15.53829293 -0.68630223 -8.13500898 -0.26479234 0 0 Z " fill="#3A4C63" transform="translate(581,487)"/>
<path d="M0 0 C0.66 0.33 1.32 0.66 2 1 C1.01 2.485 1.01 2.485 0 4 C-0.6300298 9.90189682 -0.37705775 15.50305396 2 21 C1.34 21.33 0.68 21.66 0 22 C-3.4821147 17.79244474 -3.32271215 13.9236833 -3.30078125 8.71875 C-2.9511912 5.55881913 -2.32255109 2.32255109 0 0 Z " fill="#8FAFD0" transform="translate(242,470)"/>
<path d="M0 0 C-2.02960063 6.08880188 -8.75438998 9.67351559 -14 13 C-14.66 12.67 -15.32 12.34 -16 12 C-14.61068357 10.55620057 -13.21323422 9.12022488 -11.8125 7.6875 C-11.03519531 6.88699219 -10.25789063 6.08648438 -9.45703125 5.26171875 C-3.74093264 0 -3.74093264 0 0 0 Z " fill="#97BDDD" transform="translate(346,511)"/>
<path d="M0 0 C0.66 0.33 1.32 0.66 2 1 C0.46356148 4.68069887 -1.78150945 6.98775204 -4.625 9.75 C-5.85089844 10.94882812 -5.85089844 10.94882812 -7.1015625 12.171875 C-7.72804688 12.77515625 -8.35453125 13.3784375 -9 14 C-9.33 12.68 -9.66 11.36 -10 10 C-9.34 10 -8.68 10 -8 10 C-8 9.34 -8 8.68 -8 8 C-7.34 8 -6.68 8 -6 8 C-6 7.34 -6 6.68 -6 6 C-5.34 6 -4.68 6 -4 6 C-3.71125 5.38125 -3.4225 4.7625 -3.125 4.125 C-2 2 -2 2 0 0 Z " fill="#A0BFDA" transform="translate(331,507)"/>
<path d="M0 0 C0.99 0.33 1.98 0.66 3 1 C0.71637821 3.68661387 -1.96020716 5.14283066 -5.02734375 6.81640625 C-7.94912001 8.56947201 -10.55596305 10.68921814 -13.203125 12.828125 C-15 14 -15 14 -18 14 C-16.72619795 11.45239589 -15.33235605 10.77810712 -12.9375 9.25 C-9.0051045 6.70993592 -5.34356236 3.97341848 -1.7265625 1.00390625 C-1.15679687 0.67261719 -0.58703125 0.34132813 0 0 Z " fill="#9DBEDA" transform="translate(275,435)"/>
<path d="M0 0 C1.66611905 -0.042721 3.33382885 -0.04063832 5 0 C6 1 6 1 6.11352539 2.85766602 C6.10828857 3.64842529 6.10305176 4.43918457 6.09765625 5.25390625 C6.09443359 6.10791016 6.09121094 6.96191406 6.08789062 7.84179688 C6.07951172 8.73962891 6.07113281 9.63746094 6.0625 10.5625 C6.05798828 11.46419922 6.05347656 12.36589844 6.04882812 13.29492188 C6.03700225 15.53001314 6.0205222 17.76497437 6 20 C5.67 20 5.34 20 5 20 C4.10395632 13.95170514 3.88730557 8.1105424 4 2 C2.35 2 0.7 2 -1 2 C-0.67 1.34 -0.34 0.68 0 0 Z " fill="#92B0CC" transform="translate(155,431)"/>
<path d="M0 0 C5.47361889 0.5439085 9.58317001 2.55393801 14.375 5.0625 C15.11105469 5.43955078 15.84710938 5.81660156 16.60546875 6.20507812 C18.40739646 7.12944364 20.20423099 8.06372614 22 9 C22 9.66 22 10.32 22 11 C17.27915654 9.20248446 12.74793489 7.03862628 8.1875 4.875 C7.39923828 4.50246094 6.61097656 4.12992187 5.79882812 3.74609375 C3.86526295 2.83204476 1.93254612 1.91620158 0 1 C0 0.67 0 0.34 0 0 Z " fill="#98B7D3" transform="translate(193,431)"/>
<path d="M0 0 C0.99 0.33 1.98 0.66 3 1 C2.360625 1.61875 1.72125 2.2375 1.0625 2.875 C-1.74799713 7.13332898 -1.80559267 10.99401138 -2 16 C-4 14 -4 14 -4.375 10.25 C-4.29288504 5.75010023 -2.77033261 3.46291577 0 0 Z " fill="#2D3F59" transform="translate(496,515)"/>
<path d="M0 0 C-1.53643852 3.68069887 -3.78150945 5.98775204 -6.625 8.75 C-7.85089844 9.94882812 -7.85089844 9.94882812 -9.1015625 11.171875 C-9.72804688 11.77515625 -10.35453125 12.3784375 -11 13 C-11.33 12.01 -11.66 11.02 -12 10 C-11.34 10 -10.68 10 -10 10 C-9.79375 9.46375 -9.5875 8.9275 -9.375 8.375 C-7.43786251 5.02903524 -4.15282732 0 0 0 Z " fill="#9AB9D3" transform="translate(318,523)"/>
<path d="M0 0 C0 3 0 3 -2.5546875 5.91796875 C-3.65369246 7.01564319 -4.76084093 8.10521047 -5.875 9.1875 C-6.43058594 9.74630859 -6.98617188 10.30511719 -7.55859375 10.88085938 C-11.73305861 15 -11.73305861 15 -14 15 C-14 14.34 -14 13.68 -14 13 C-12.948125 12.1646875 -12.948125 12.1646875 -11.875 11.3125 C-8.94967119 8.95951813 -6.77624753 6.49059829 -4.4296875 3.5859375 C-3 2 -3 2 0 0 Z " fill="#A4C5E0" transform="translate(379,460)"/>
<path d="M0 0 C1.32 0.33 2.64 0.66 4 1 C-0.62 4.3 -5.24 7.6 -10 11 C-10.33 10.01 -10.66 9.02 -11 8 C-9.54550599 6.9944239 -8.08627557 5.99569565 -6.625 5 C-5.40683594 4.1646875 -5.40683594 4.1646875 -4.1640625 3.3125 C-2 2 -2 2 0 2 C0 1.34 0 0.68 0 0 Z " fill="#9DBEDA" transform="translate(287,448)"/>
<path d="M0 0 C4.00055301 3.66717359 6.66825595 7.06746451 9 12 C8.75 14.4375 8.75 14.4375 8 16 C7.67 16 7.34 16 7 16 C7 14.02 7 12.04 7 10 C6.34 10 5.68 10 5 10 C5 9.01 5 8.02 5 7 C4.34 7 3.68 7 3 7 C0.70351351 4.4385343 0 3.52032428 0 0 Z " fill="#A5C3DB" transform="translate(276,460)"/>
<path d="M0 0 C0.53109375 0.40992188 1.0621875 0.81984375 1.609375 1.2421875 C2.31578125 1.78101563 3.0221875 2.31984375 3.75 2.875 C4.44609375 3.40867187 5.1421875 3.94234375 5.859375 4.4921875 C7.84722603 5.89238914 9.79843386 6.97855265 12 8 C10.265625 8.671875 10.265625 8.671875 8 9 C5.859375 7.890625 5.859375 7.890625 3.75 6.25 C3.04359375 5.71890625 2.3371875 5.1878125 1.609375 4.640625 C0 3 0 3 0 0 Z " fill="#30435B" transform="translate(839,532)"/>
<path d="M0 0 C0 3 0 3 -1 5 C-0.01 5.33 0.98 5.66 2 6 C-2.95 7.485 -2.95 7.485 -8 9 C-2.25 2.25 -2.25 2.25 0 0 Z " fill="#AABED2" transform="translate(316,537)"/>
<path d="M0 0 C1.07765625 0.01804687 2.1553125 0.03609375 3.265625 0.0546875 C4.49539063 0.08949219 4.49539063 0.08949219 5.75 0.125 C5.75 0.455 5.75 0.785 5.75 1.125 C5.09773438 1.16238281 4.44546875 1.19976562 3.7734375 1.23828125 C-1.56622957 1.63993762 -5.5704092 2.29261609 -10.25 5.125 C-10.25 4.135 -10.25 3.145 -10.25 2.125 C-6.7733662 -0.01836161 -4.03770805 -0.08777626 0 0 Z " fill="#96B6D3" transform="translate(257.25,461.875)"/>
<path d="M0 0 C-1.5830577 4.2742558 -4.50568404 6.26531794 -8 9 C-7.53918323 4.85264908 -4.48412936 0 0 0 Z " fill="#8FABCB" transform="translate(246,547)"/>
<path d="M0 0 C0.99 0.33 1.98 0.66 3 1 C-0.465 3.97 -0.465 3.97 -4 7 C-4.33 6.01 -4.66 5.02 -5 4 C-2.6875 1.9375 -2.6875 1.9375 0 0 Z " fill="#273C58" transform="translate(774,492)"/>
<path d="M0 0 C0.66 0.33 1.32 0.66 2 1 C1.51789063 1.39832031 1.03578125 1.79664063 0.5390625 2.20703125 C-0.09257812 2.73683594 -0.72421875 3.26664062 -1.375 3.8125 C-2.00148438 4.33457031 -2.62796875 4.85664063 -3.2734375 5.39453125 C-5.2221048 7.08225739 -5.2221048 7.08225739 -7 10 C-7.66 9.01 -8.32 8.02 -9 7 C-6.03 4.69 -3.06 2.38 0 0 Z " fill="#E9F7FD" transform="translate(285,452)"/>
<path d="M0 0 C2.475 0.495 2.475 0.495 5 1 C4.51917969 1.39832031 4.03835937 1.79664063 3.54296875 2.20703125 C1.62608175 4.43450247 1.52258357 5.78834669 1.3125 8.6875 C1.24675781 9.49574219 1.18101562 10.30398438 1.11328125 11.13671875 C1.07589844 11.75160156 1.03851563 12.36648438 1 13 C0.67 13 0.34 13 0 13 C0 8.71 0 4.42 0 0 Z " fill="#ECFAFD" transform="translate(190,431)"/>
<path d="M0 0 C0.66 0 1.32 0 2 0 C0.68775452 3.93673644 -0.91910327 6.22719294 -4 9 C-4.66 8.34 -5.32 7.68 -6 7 C-5.01 6.67 -4.02 6.34 -3 6 C-2.67 5.01 -2.34 4.02 -2 3 C-1.34 3 -0.68 3 0 3 C0 2.01 0 1.02 0 0 Z " fill="#91AFCD" transform="translate(267,523)"/>
<path d="M0 0 C1.8871875 0.061875 1.8871875 0.061875 3.8125 0.125 C2.8125 1.6875 2.8125 1.6875 0.8125 3.125 C-1.95364782 3.09226452 -4.44780547 2.61904328 -7.1875 2.125 C-4.09861478 0.06574319 -3.47814073 -0.1140374 0 0 Z " fill="#E1F2FA" transform="translate(335.1875,538.875)"/>
<path d="M0 0 C0.33 0 0.66 0 1 0 C1.1799928 5.21979128 0.97094808 9.07262981 -1 14 C-2.13732426 10.59598052 -1.83989957 8.22543336 -1.0625 4.75 C-0.86785156 3.85796875 -0.67320312 2.9659375 -0.47265625 2.046875 C-0.31667969 1.37140625 -0.16070313 0.6959375 0 0 Z " fill="#C2CCD6" transform="translate(807,510)"/>
<path d="M0 0 C0.66 0 1.32 0 2 0 C1.34 1.65 0.68 3.3 0 5 C-1.98 4.34 -3.96 3.68 -6 3 C-6 2.34 -6 1.68 -6 1 C-3.03 1.495 -3.03 1.495 0 2 C0 1.34 0 0.68 0 0 Z " fill="#33435B" transform="translate(591,497)"/>
<path d="M0 0 C0.33 0.66 0.66 1.32 1 2 C1.639375 2.309375 2.27875 2.61875 2.9375 2.9375 C5 4 5 4 7 7 C4 7 4 7 1.8125 5.1875 C0 3 0 3 0 0 Z " fill="#293B55" transform="translate(768,529)"/>
<path d="M0 0 C0.66 0.33 1.32 0.66 2 1 C1.01 2.485 1.01 2.485 0 4 C-0.45394552 6.27912938 -0.45394552 6.27912938 -0.625 8.6875 C-0.69976562 9.49574219 -0.77453125 10.30398438 -0.8515625 11.13671875 C-0.90054688 11.75160156 -0.94953125 12.36648438 -1 13 C-1.33 13 -1.66 13 -2 13 C-2.05391993 11.20866022 -2.09275571 9.41686101 -2.125 7.625 C-2.14820313 6.62726563 -2.17140625 5.62953125 -2.1953125 4.6015625 C-2 2 -2 2 0 0 Z " fill="#9DB8D2" transform="translate(242,470)"/>
<path d="M0 0 C0.33 1.32 0.66 2.64 1 4 C-1.375 5.5625 -1.375 5.5625 -4 7 C-4.66 6.67 -5.32 6.34 -6 6 C-4.02 4.02 -2.04 2.04 0 0 Z " fill="#A9C4DE" transform="translate(336,517)"/>
</svg>
