<?xml version="1.0" encoding="UTF-8"?>
<svg version="1.1" xmlns="http://www.w3.org/2000/svg" width="500" height="500">
<path d="M0 0 C13.74877316 3.57844781 25.96965036 9.67849325 37.765625 17.5546875 C39.7942534 18.86691216 41.81781914 19.9689696 44 21 C44.54785156 20.5875 45.09570312 20.175 45.66015625 19.75 C55.97250392 12.23791584 73.56427167 0 87 0 C88.20272819 2.40545638 88.10071472 3.94996953 88.0625 6.625 C88.05347656 7.44226563 88.04445313 8.25953125 88.03515625 9.1015625 C88.02355469 9.72804687 88.01195312 10.35453125 88 11 C91.00041238 10.37693049 94.00032443 9.7515989 97 9.125 C98.25876953 8.86396484 98.25876953 8.86396484 99.54296875 8.59765625 C103.5123359 7.76685847 107.45260442 6.8987266 111.375 5.8671875 C115 5 115 5 119 5 C119.49899078 12.07943167 117.65781689 18.59340461 116 25.4375 C115.71382813 26.64599609 115.42765625 27.85449219 115.1328125 29.09960938 C114.42881435 32.06813492 113.71768918 35.03476027 113 38 C111.68 38 110.36 38 109 38 C108.360625 37.319375 107.72125 36.63875 107.0625 35.9375 C106.381875 35.298125 105.70125 34.65875 105 34 C101.06246533 34.29267622 99.11120527 35.39883522 96.40625 38.203125 C95.76816406 38.85410156 95.13007813 39.50507813 94.47265625 40.17578125 C93.82167969 40.86027344 93.17070312 41.54476562 92.5 42.25 C91.84902344 42.91902344 91.19804687 43.58804688 90.52734375 44.27734375 C89.25587698 45.5847712 87.9881781 46.89587538 86.72460938 48.2109375 C84.51341165 50.50477342 82.26067931 52.75501985 80 55 C79.3915625 55.6084375 78.783125 56.216875 78.15625 56.84375 C77.6096875 57.3903125 77.063125 57.936875 76.5 58.5 C75.90316406 59.098125 75.30632812 59.69625 74.69140625 60.3125 C73.28283609 61.71781711 71.86170573 63.110531 70.4375 64.5 C68.55299652 66.43282408 66.84351286 68.36530904 65.125 70.4375 C62.08399838 74.04868943 58.66580534 77.03915723 55 80 C55.27617533 81.94074861 55.27617533 81.94074861 56 84 C56.99 84.66 57.98 85.32 59 86 C61.31245282 85.25076458 61.31245282 85.25076458 63.875 83.875 C72.7997346 79.85336033 82.39971964 78.59060294 92 77 C91.92930298 75.61663452 91.92930298 75.61663452 91.85717773 74.20532227 C91.70267342 70.74386066 91.59047981 67.28611603 91.50561523 63.82250977 C91.46067288 62.33135782 91.39948824 60.84059536 91.32104492 59.35083008 C90.6854043 46.95791518 90.6854043 46.95791518 94.04345703 41.95654297 C96.25670247 39.74329753 98.45209971 37.81254237 101 36 C102.485 36.495 102.485 36.495 104 37 C104.02526739 44.24486551 104.0428318 51.48971974 104.05493164 58.73461914 C104.05997356 61.20142033 104.06680691 63.66821852 104.07543945 66.13500977 C104.08751125 69.67204529 104.09322956 73.20904145 104.09765625 76.74609375 C104.10281754 77.85649521 104.10797882 78.96689667 104.11329651 80.11094666 C104.11337204 81.13192947 104.11344757 82.15291229 104.11352539 83.20483398 C104.115746 84.10862289 104.11796661 85.0124118 104.12025452 85.94358826 C104 88 104 88 103 89 C101.00805025 89.19578993 99.01530079 89.3854287 97.02001953 89.54370117 C77.79982793 91.11714255 61.4039336 96.61119761 46.21875 108.91015625 C44 110 44 110 41.65625 109.4609375 C38.33949718 107.63672345 35.15526802 105.64915695 32 103.5625 C30.79212043 102.77144212 29.58379493 101.98106468 28.375 101.19140625 C27.80394531 100.81773926 27.23289062 100.44407227 26.64453125 100.05908203 C24.46090815 98.65282357 22.23773004 97.3180569 20 96 C20.33 94.68 20.66 93.36 21 92 C21.66 92 22.32 92 23 92 C23 91.34 23 90.68 23 90 C23.66 90 24.32 90 25 90 C25 89.34 25 88.68 25 88 C25.66 88 26.32 88 27 88 C27.268125 87.360625 27.53625 86.72125 27.8125 86.0625 C29 84 29 84 32 83 C32 82.34 32 81.68 32 81 C32.66 81 33.32 81 34 81 C34 80.34 34 79.68 34 79 C34.66 79 35.32 79 36 79 C36.37125 78.071875 36.37125 78.071875 36.75 77.125 C38.20628639 74.64931313 39.37812506 74.04874998 42 73 C42 72.34 42 71.68 42 71 C42.66 71 43.32 71 44 71 C44 70.34 44 69.68 44 69 C44.66 69 45.32 69 46 69 C46.2475 68.42765625 46.495 67.8553125 46.75 67.265625 C48.19316199 64.64989389 49.88216222 62.85226544 52 60.75 C53.051875 59.69039062 53.051875 59.69039062 54.125 58.609375 C56 57 56 57 58 57 C58.2475 56.4225 58.495 55.845 58.75 55.25 C60.18299988 52.67060021 61.78424676 50.93878408 64 49 C64.66 49 65.32 49 66 49 C66 48.34 66 47.68 66 47 C66.66 47 67.32 47 68 47 C68 46.34 68 45.68 68 45 C68.66 45 69.32 45 70 45 C70.268125 44.401875 70.53625 43.80375 70.8125 43.1875 C71.99917406 41.00152146 73.09599113 39.58667406 75 38 C75.66 38 76.32 38 77 38 C77 37.34 77 36.68 77 36 C77.66 36 78.32 36 79 36 C79 35.34 79 34.68 79 34 C79.66 34 80.32 34 81 34 C81.36738281 33.14148438 81.36738281 33.14148438 81.7421875 32.265625 C83.21110099 29.61975598 84.95348244 27.85146861 87.125 25.75 C87.84945312 25.04359375 88.57390625 24.3371875 89.3203125 23.609375 C89.87460938 23.07828125 90.42890625 22.5471875 91 22 C89.68 20.68 88.36 19.36 87 18 C87.12375 19.03125 87.2475 20.0625 87.375 21.125 C86.9276507 25.74760948 85.77969299 26.90670914 82.5078125 29.93359375 C81 31 81 31 79 31 C79 31.66 79 32.32 79 33 C78.01 33 77.02 33 76 33 C74.99890485 29.68929162 74.89643866 26.69915231 74.9375 23.25 C74.94652344 22.26515625 74.95554687 21.2803125 74.96484375 20.265625 C74.97644531 19.51796875 74.98804688 18.7703125 75 18 C67.78543017 20.86801418 61.45300725 24.7060363 55 29 C55.31324219 29.75667969 55.62648437 30.51335937 55.94921875 31.29296875 C58.27011247 37.27207414 58.23483446 41.47058175 55.88671875 47.30078125 C55 49 55 49 53 51 C52.4884663 52.58800296 52.03704611 54.19582497 51.625 55.8125 C50.20802983 60.73985355 48.67076685 64.44923215 44.0625 67.125 C42 67 42 67 39.25 64.8125 C37 62 37 62 37 58 C36.34 58 35.68 58 35 58 C34.7525 56.96875 34.505 55.9375 34.25 54.875 C33.4521034 51.97828844 32.76296096 50.68627186 30.875 48.1875 C28.31481425 43.83518422 28.16312279 39.94586892 29 35 C29.93628325 32.96939081 30.92546182 30.96096091 32 29 C29.23191444 27.34951167 26.46007909 25.70542682 23.6875 24.0625 C22.90181641 23.59392578 22.11613281 23.12535156 21.30664062 22.64257812 C20.1706543 21.9706543 20.1706543 21.9706543 19.01171875 21.28515625 C18.31522217 20.87144775 17.61872559 20.45773926 16.90112305 20.03149414 C14.87873663 18.86264913 14.87873663 18.86264913 12 18 C12 31.2 12 44.4 12 58 C16.29 59.32 20.58 60.64 25 62 C35.56307281 66.46480397 35.56307281 66.46480397 40 70 C38.55481219 73.3721049 36.87649547 75.69880363 34 78 C30.07565109 78.42881958 27.883298 77.6731214 24.5625 75.625 C18.81602328 72.10926648 13.34772616 70.77442388 6.6875 69.9375 C0.10526316 69.10526316 0.10526316 69.10526316 -1 68 C-1.09943972 65.91924591 -1.12799596 63.83508152 -1.12939453 61.75195312 C-1.13114685 61.09992416 -1.13289917 60.4478952 -1.13470459 59.77610779 C-1.13912204 57.61112847 -1.13618551 55.44623021 -1.1328125 53.28125 C-1.13348557 51.78291813 -1.13445562 50.28458637 -1.13571167 48.78625488 C-1.1371885 45.64216067 -1.13503458 42.49809483 -1.13037109 39.35400391 C-1.1246738 35.31513461 -1.12795289 31.27633176 -1.13394356 27.2374649 C-1.13754958 24.1423492 -1.13641039 21.04724935 -1.13381577 17.95213318 C-1.13314661 16.46251925 -1.13397452 14.9729039 -1.13629532 13.48329163 C-1.13882253 11.40483765 -1.13498033 9.32649269 -1.12939453 7.24804688 C-1.12859894 6.06303589 -1.12780334 4.8780249 -1.12698364 3.65710449 C-1 1 -1 1 0 0 Z M38.25 33.5625 C35.73027414 35.86239067 35.73027414 35.86239067 35.375 39.25 C36.17055478 44.0233287 38.1889666 47.13482908 41 51 C43.34148231 51.12213894 43.34148231 51.12213894 46 50 C48.76783266 46.79829087 50.63943193 43.40949335 51.6875 39.3125 C50.57461236 35.56915067 48.15498078 34.12354475 45 32 C41.0524885 31.67066039 41.0524885 31.67066039 38.25 33.5625 Z M44 90 C44 90.66 44 91.32 44 92 C43.34 92 42.68 92 42 92 C42 92.99 42 93.98 42 95 C43.65 94.34 45.3 93.68 47 93 C46.01 92.01 45.02 91.02 44 90 Z " fill="#8CB8E4" transform="translate(83,195)"/>
<path d="M0 0 C13.74877316 3.57844781 25.96965036 9.67849325 37.765625 17.5546875 C39.7942534 18.86691216 41.81781914 19.9689696 44 21 C45.051875 20.01 45.051875 20.01 46.125 19 C49.43460229 16.69766797 51.06225823 16.63369844 55 17 C55 17.66 55 18.32 55 19 C56.32 19.33 57.64 19.66 59 20 C59.25 22.8125 59.25 22.8125 59 26 C57 27.875 57 27.875 55 29 C55.309375 29.680625 55.61875 30.36125 55.9375 31.0625 C58.1488441 37.17621603 58.28147029 41.3547884 55.88671875 47.30078125 C55 49 55 49 53 51 C52.4884663 52.58800296 52.03704611 54.19582497 51.625 55.8125 C50.20802983 60.73985355 48.67076685 64.44923215 44.0625 67.125 C42 67 42 67 39.25 64.8125 C37 62 37 62 37 58 C36.34 58 35.68 58 35 58 C34.7525 56.96875 34.505 55.9375 34.25 54.875 C33.4521034 51.97828844 32.76296096 50.68627186 30.875 48.1875 C28.31481425 43.83518422 28.16312279 39.94586892 29 35 C29.93628325 32.96939081 30.92546182 30.96096091 32 29 C29.23191444 27.34951167 26.46007909 25.70542682 23.6875 24.0625 C22.90181641 23.59392578 22.11613281 23.12535156 21.30664062 22.64257812 C20.1706543 21.9706543 20.1706543 21.9706543 19.01171875 21.28515625 C18.31522217 20.87144775 17.61872559 20.45773926 16.90112305 20.03149414 C14.87873663 18.86264913 14.87873663 18.86264913 12 18 C12 31.2 12 44.4 12 58 C16.29 59.32 20.58 60.64 25 62 C35.56307281 66.46480397 35.56307281 66.46480397 40 70 C38.55481219 73.3721049 36.87649547 75.69880363 34 78 C30.07565109 78.42881958 27.883298 77.6731214 24.5625 75.625 C18.81602328 72.10926648 13.34772616 70.77442388 6.6875 69.9375 C0.10526316 69.10526316 0.10526316 69.10526316 -1 68 C-1.09943972 65.91924591 -1.12799596 63.83508152 -1.12939453 61.75195312 C-1.13114685 61.09992416 -1.13289917 60.4478952 -1.13470459 59.77610779 C-1.13912204 57.61112847 -1.13618551 55.44623021 -1.1328125 53.28125 C-1.13348557 51.78291813 -1.13445562 50.28458637 -1.13571167 48.78625488 C-1.1371885 45.64216067 -1.13503458 42.49809483 -1.13037109 39.35400391 C-1.1246738 35.31513461 -1.12795289 31.27633176 -1.13394356 27.2374649 C-1.13754958 24.1423492 -1.13641039 21.04724935 -1.13381577 17.95213318 C-1.13314661 16.46251925 -1.13397452 14.9729039 -1.13629532 13.48329163 C-1.13882253 11.40483765 -1.13498033 9.32649269 -1.12939453 7.24804688 C-1.12859894 6.06303589 -1.12780334 4.8780249 -1.12698364 3.65710449 C-1 1 -1 1 0 0 Z M38.25 33.5625 C35.73027414 35.86239067 35.73027414 35.86239067 35.375 39.25 C36.17055478 44.0233287 38.1889666 47.13482908 41 51 C43.34148231 51.12213894 43.34148231 51.12213894 46 50 C48.76783266 46.79829087 50.63943193 43.40949335 51.6875 39.3125 C50.57461236 35.56915067 48.15498078 34.12354475 45 32 C41.0524885 31.67066039 41.0524885 31.67066039 38.25 33.5625 Z " fill="#83ACD8" transform="translate(83,195)"/>
<path d="M0 0 C1.12591553 0.00523682 2.25183105 0.01047363 3.41186523 0.01586914 C4.62680664 0.0190918 5.84174805 0.02231445 7.09350586 0.02563477 C8.37290039 0.03401367 9.65229492 0.04239258 10.97045898 0.05102539 C12.2537207 0.05553711 13.53698242 0.06004883 14.85913086 0.06469727 C18.04211921 0.07652994 21.22501661 0.09301471 24.40795898 0.11352539 C24.73795898 2.42352539 25.06795898 4.73352539 25.40795898 7.11352539 C18.80795898 7.44352539 12.20795898 7.77352539 5.40795898 8.11352539 C5.40795898 10.42352539 5.40795898 12.73352539 5.40795898 15.11352539 C11.34795898 15.11352539 17.28795898 15.11352539 23.40795898 15.11352539 C23.40795898 17.09352539 23.40795898 19.07352539 23.40795898 21.11352539 C19.57071726 22.01766212 16.03293624 22.21929437 12.09545898 22.17602539 C10.49250977 22.16249023 10.49250977 22.16249023 8.85717773 22.14868164 C8.04893555 22.13708008 7.24069336 22.12547852 6.40795898 22.11352539 C6.07795898 24.42352539 5.74795898 26.73352539 5.40795898 29.11352539 C12.33795898 29.11352539 19.26795898 29.11352539 26.40795898 29.11352539 C27.39795898 25.64852539 27.39795898 25.64852539 28.40795898 22.11352539 C32.8084133 18.97034373 37.15840627 18.56607304 42.40795898 18.11352539 C42.40795898 17.45352539 42.40795898 16.79352539 42.40795898 16.11352539 C40.40841152 16.07098183 38.40754262 16.07271756 36.40795898 16.11352539 C35.91295898 16.60852539 35.91295898 16.60852539 35.40795898 17.11352539 C32.47045898 17.36352539 32.47045898 17.36352539 29.40795898 17.11352539 C27.40795898 14.11352539 27.40795898 14.11352539 27.78295898 11.92602539 C28.09233398 11.02883789 28.09233398 11.02883789 28.40795898 10.11352539 C35.43546468 8.0691601 41.80787248 6.80440303 48.84545898 9.36352539 C51.60716281 11.24956703 52.22128572 12.07623081 53.40795898 15.11352539 C53.72680664 17.5871582 53.72680664 17.5871582 53.82202148 20.31665039 C53.8800293 21.78618164 53.8800293 21.78618164 53.93920898 23.28540039 C53.97014648 24.30118164 54.00108398 25.31696289 54.03295898 26.36352539 C54.0909668 27.91040039 54.0909668 27.91040039 54.15014648 29.48852539 C54.24427572 32.03001479 54.32990877 34.57149972 54.40795898 37.11352539 C53.76076904 37.0398877 53.1135791 36.96625 52.44677734 36.89038086 C46.55286348 36.25399753 40.89939919 36.10868971 34.97436523 36.37133789 C31.9310008 36.06561178 31.384921 35.31527317 29.40795898 33.11352539 C28.41795898 33.11352539 27.42795898 33.11352539 26.40795898 33.11352539 C26.07795898 34.10352539 25.74795898 35.09352539 25.40795898 36.11352539 C16.14346055 37.87819176 6.69161713 37.50469262 -2.59204102 36.11352539 C-2.75928213 31.14748826 -2.91987885 26.18129861 -3.07421875 21.21484375 C-3.12771216 19.52402916 -3.18304699 17.83327181 -3.24023438 16.14257812 C-3.32194143 13.71765492 -3.39710497 11.29260546 -3.47094727 8.86743164 C-3.49798233 8.10701065 -3.5250174 7.34658966 -3.5528717 6.56312561 C-3.604954 4.74729205 -3.60390687 2.93006696 -3.59204102 1.11352539 C-2.59204102 0.11352539 -2.59204102 0.11352539 0 0 Z M37.40795898 25.11352539 C36.41795898 26.59852539 36.41795898 26.59852539 35.40795898 28.11352539 C35.73795898 28.77352539 36.06795898 29.43352539 36.40795898 30.11352539 C38.71795898 30.11352539 41.02795898 30.11352539 43.40795898 30.11352539 C43.40795898 29.45352539 43.40795898 28.79352539 43.40795898 28.11352539 C44.06795898 28.11352539 44.72795898 28.11352539 45.40795898 28.11352539 C45.40795898 27.12352539 45.40795898 26.13352539 45.40795898 25.11352539 C44.12920898 25.05165039 42.85045898 24.98977539 41.53295898 24.92602539 C40.81366211 24.8912207 40.09436523 24.85641602 39.35327148 24.82055664 C38.3903418 24.96557617 38.3903418 24.96557617 37.40795898 25.11352539 Z " fill="#233A60" transform="translate(211.592041015625,228.886474609375)"/>
<path d="M0 0 C1.8150957 0.03787519 3.62886085 0.15492026 5.4375 0.3125 C6.92056641 0.43044922 6.92056641 0.43044922 8.43359375 0.55078125 C11 1 11 1 13 3 C13.1953125 5.3828125 13.1953125 5.3828125 13.125 8.125 C13.10695313 9.03507813 13.08890625 9.94515625 13.0703125 10.8828125 C13.04710938 11.58148438 13.02390625 12.28015625 13 13 C12.01 13.495 12.01 13.495 11 14 C11 30.83 11 47.66 11 65 C14.96 65.33 18.92 65.66 23 66 C26.00439473 66.68086115 28.78142557 67.37606661 31.6875 68.3125 C32.38810547 68.51294922 33.08871094 68.71339844 33.81054688 68.91992188 C38.70148954 70.45219586 38.70148954 70.45219586 40.08984375 73 C40 75 40 75 37.875 77.6875 C34.8968547 80.0829647 33.69666201 80.61204447 30 81 C27.80859375 80.51171875 27.80859375 80.51171875 25.4375 79.6875 C16.86814814 77.11433374 7.87839266 76.72671046 -1 76 C-1.85529083 71.59585803 -2.10049346 67.48344879 -2.03759766 63.00073242 C-2.02959641 62.32846619 -2.02159515 61.65619995 -2.01335144 60.96356201 C-1.98566402 58.76075328 -1.95012507 56.55815507 -1.9140625 54.35546875 C-1.89227616 52.81944743 -1.87082737 51.28342129 -1.84970093 49.74739075 C-1.80434355 46.53896865 -1.75512799 43.33063553 -1.703125 40.12231445 C-1.63661992 36.00185977 -1.57945818 31.88133757 -1.52509499 27.7607069 C-1.48236404 24.59434794 -1.43491722 21.42807345 -1.38599777 18.26180458 C-1.36304992 16.74150991 -1.34154659 15.22119274 -1.32149124 13.70085716 C-1.29283448 11.58456176 -1.25788807 9.46846407 -1.22119141 7.35229492 C-1.20263092 6.14683517 -1.18407043 4.94137543 -1.16494751 3.6993866 C-1 1 -1 1 0 0 Z " fill="#729BCC" transform="translate(67,208)"/>
<path d="M0 0 C1.56234375 -0.08121094 1.56234375 -0.08121094 3.15625 -0.1640625 C10.64112359 -0.29806279 10.64112359 -0.29806279 13.421875 1.95751953 C16.27789719 5.82780105 17.51232934 9.86387224 18.625 14.5 C19.12 14.995 19.12 14.995 19.625 15.5 C22.36962431 10.1460389 22.36962431 10.1460389 24.75 4.625 C25.625 2.5 25.625 2.5 27.625 0.5 C30.75 0.375 30.75 0.375 33.625 0.5 C34.96123836 4.50871509 34.00727053 6.56052898 32.625 10.5 C32.13 11.139375 31.635 11.77875 31.125 12.4375 C29.28131923 14.97256106 28.88879131 17.46751169 28.21875 20.48828125 C27.31061285 23.56519332 25.4563831 25.89166649 23.625 28.5 C22.51838917 30.8019373 21.57446423 33.12633943 20.625 35.5 C19.965 35.5 19.305 35.5 18.625 35.5 C18.625 36.16 18.625 36.82 18.625 37.5 C13.15690155 39.9606443 10.13772919 39.21084699 4.625 37.5 C3.69076355 34.48968256 3.58050089 33.63349732 4.625 30.5 C7.8217 29.12998571 10.32403842 29.6747596 13.625 30.5 C14.3064823 28.60820797 14.3064823 28.60820797 14.625 26.5 C13.965 25.84 13.305 25.18 12.625 24.5 C11.9140625 22.65234375 11.9140625 22.65234375 11.25 20.4375 C9.72417936 15.61747173 7.75749632 11.07891343 5.625 6.5 C5.18414062 6.98984375 4.74328125 7.4796875 4.2890625 7.984375 C2.625 9.5 2.625 9.5 0 9.75 C-2.375 9.5 -2.375 9.5 -3.375 8.5 C-5.37458364 8.45919217 -7.37545254 8.45745644 -9.375 8.5 C-9.375 9.16 -9.375 9.82 -9.375 10.5 C-8.78332031 10.62117187 -8.19164062 10.74234375 -7.58203125 10.8671875 C-3.33696415 11.76744643 0.64939661 12.70456621 4.625 14.5 C5.91071429 23.07142857 5.91071429 23.07142857 4.625 26.5 C3.965 26.5 3.305 26.5 2.625 26.5 C2.625 27.16 2.625 27.82 2.625 28.5 C1.0471875 28.7165625 1.0471875 28.7165625 -0.5625 28.9375 C-4.1920951 29.39810494 -4.1920951 29.39810494 -6.9375 30.1875 C-10.21277008 30.60740642 -12.32661782 29.70665128 -15.375 28.5 C-16.32375 28.12875 -17.2725 27.7575 -18.25 27.375 C-19.301875 26.941875 -19.301875 26.941875 -20.375 26.5 C-18.5 20.625 -18.5 20.625 -17.375 19.5 C-15.70882885 19.45936168 -14.04111905 19.457279 -12.375 19.5 C-12.375 20.16 -12.375 20.82 -12.375 21.5 C-8.37245544 21.59181134 -8.37245544 21.59181134 -4.375 21.5 C-4.045 21.17 -3.715 20.84 -3.375 20.5 C-3.95507812 20.40203125 -4.53515625 20.3040625 -5.1328125 20.203125 C-10.26231018 19.22124096 -14.57159348 18.30340652 -18.375 14.5 C-19.12070971 11.3610824 -19.0632054 8.64608182 -18.375 5.5 C-13.82970429 -0.76937339 -7.05147085 0.15592933 0 0 Z " fill="#1F3454" transform="translate(287.375,236.5)"/>
<path d="M0 0 C1.20272819 2.40545638 1.10071472 3.94996953 1.0625 6.625 C1.05347656 7.44226563 1.04445312 8.25953125 1.03515625 9.1015625 C1.02355469 9.72804687 1.01195312 10.35453125 1 11 C4.00041238 10.37693049 7.00032443 9.7515989 10 9.125 C10.83917969 8.95097656 11.67835938 8.77695313 12.54296875 8.59765625 C16.5123359 7.76685847 20.45260442 6.8987266 24.375 5.8671875 C28 5 28 5 32 5 C32.49899078 12.07943167 30.65781689 18.59340461 29 25.4375 C28.71382813 26.64599609 28.42765625 27.85449219 28.1328125 29.09960938 C27.42881435 32.06813492 26.71768918 35.03476027 26 38 C24.68 38 23.36 38 22 38 C21.360625 37.319375 20.72125 36.63875 20.0625 35.9375 C19.0415625 34.9784375 19.0415625 34.9784375 18 34 C14.01592883 34.28964737 12.05146216 35.45471323 9.30078125 38.2734375 C8.64916016 38.9334375 7.99753906 39.5934375 7.32617188 40.2734375 C6.66166016 40.96695313 5.99714844 41.66046875 5.3125 42.375 C4.63638672 43.06078125 3.96027344 43.7465625 3.26367188 44.453125 C0.55948145 47.21920237 -1.84744147 49.7711622 -4 53 C-4.66 53 -5.32 53 -6 53 C-6.3125 49.75 -6.3125 49.75 -6 46 C-3.625 43.875 -3.625 43.875 -1 42 C0.33298974 39.38181544 0.33298974 39.38181544 1 37 C2.98 37.66 4.96 38.32 7 39 C6.814375 38.2575 6.62875 37.515 6.4375 36.75 C6.00370693 34.02330072 5.91885638 32.52266846 7 30 C10.26928433 28.91023856 10.85111347 29.15446566 14 30 C15.58211573 30.06548492 17.16670081 30.08578381 18.75 30.0625 C19.94882813 30.04896484 19.94882813 30.04896484 21.171875 30.03515625 C21.77515625 30.02355469 22.3784375 30.01195312 23 30 C23.66 27.69 24.32 25.38 25 23 C25.66 23 26.32 23 27 23 C27 21.68 27 20.36 27 19 C26.01 19.33 25.02 19.66 24 20 C24 16.7 24 13.4 24 10 C18.86823622 9.62450509 15.65984043 10.96661508 11 13 C8.0625 13.1875 8.0625 13.1875 6 13 C5.855625 13.5775 5.71125 14.155 5.5625 14.75 C5.04166667 16.83333333 4.52083333 18.91666667 4 21 C2.68 20.01 1.36 19.02 0 18 C0.12375 19.03125 0.2475 20.0625 0.375 21.125 C-0.0723493 25.74760948 -1.22030701 26.90670914 -4.4921875 29.93359375 C-6 31 -6 31 -8 31 C-8 31.66 -8 32.32 -8 33 C-8.99 33 -9.98 33 -11 33 C-12.00109515 29.68929162 -12.10356134 26.69915231 -12.0625 23.25 C-12.05347656 22.26515625 -12.04445312 21.2803125 -12.03515625 20.265625 C-12.02355469 19.51796875 -12.01195312 18.7703125 -12 18 C-16.86502394 20.0880386 -21.46664714 22.25251342 -26 25 C-26.66 25 -27.32 25 -28 25 C-28.33 23.35 -28.66 21.7 -29 20 C-29.99 19.67 -30.98 19.34 -32 19 C-32 18.34 -32 17.68 -32 17 C-33.32 16.67 -34.64 16.34 -36 16 C-10.29787234 0 -10.29787234 0 0 0 Z " fill="#A2CAEC" transform="translate(170,195)"/>
<path d="M0 0 C0.99 0.33 1.98 0.66 3 1 C3.02526739 8.24486551 3.0428318 15.48971974 3.05493164 22.73461914 C3.05997356 25.20142033 3.06680691 27.66821852 3.07543945 30.13500977 C3.08751125 33.67204529 3.09322956 37.20904145 3.09765625 40.74609375 C3.10281754 41.85649521 3.10797882 42.96689667 3.11329651 44.11094666 C3.11337204 45.13192947 3.11344757 46.15291229 3.11352539 47.20483398 C3.115746 48.10862289 3.11796661 49.0124118 3.12025452 49.94358826 C3 52 3 52 2 53 C0.00719964 53.19587354 -1.98637485 53.38574202 -3.98242188 53.54516602 C-14.50617467 54.40139455 -24.01142975 56.65102843 -34 60 C-35.485 60.495 -35.485 60.495 -37 61 C-36.505 58.03 -36.505 58.03 -36 55 C-35.34 55 -34.68 55 -34 55 C-34.33 53.68 -34.66 52.36 -35 51 C-37.31 51 -39.62 51 -42 51 C-35.62539786 45.42222313 -27.06425138 44.24181904 -19 42.8125 C-17.55173828 42.54663086 -17.55173828 42.54663086 -16.07421875 42.27539062 C-13.71726006 41.84367047 -11.35930027 41.41869903 -9 41 C-9.04713135 40.07775635 -9.0942627 39.1555127 -9.14282227 38.20532227 C-9.29732658 34.74386066 -9.40952019 31.28611603 -9.49438477 27.82250977 C-9.53932712 26.33135782 -9.60051176 24.84059536 -9.67895508 23.35083008 C-10.3145957 10.95791518 -10.3145957 10.95791518 -6.95654297 5.95654297 C-4.74329753 3.74329753 -2.54790029 1.81254237 0 0 Z " fill="#90BBE5" transform="translate(184,231)"/>
<path d="M0 0 C3.65510714 1.14222098 6.09452573 2.83977703 9 5.25 C10.9890401 6.86627635 10.9890401 6.86627635 13 8 C16.4330005 7.40295643 17.55987626 6.44012374 20 4 C23.125 3.875 23.125 3.875 26 4 C26 4.66 26 5.32 26 6 C27.32 6.33 28.64 6.66 30 7 C30.25 9.8125 30.25 9.8125 30 13 C28 14.875 28 14.875 26 16 C26.4640625 17.0209375 26.4640625 17.0209375 26.9375 18.0625 C29.1488441 24.17621603 29.28147029 28.3547884 26.88671875 34.30078125 C26 36 26 36 24 38 C23.4884663 39.58800296 23.03704611 41.19582497 22.625 42.8125 C21.20802983 47.73985355 19.67076685 51.44923215 15.0625 54.125 C13 54 13 54 10.25 51.8125 C8 49 8 49 8 45 C7.34 45 6.68 45 6 45 C5.7525 43.96875 5.505 42.9375 5.25 41.875 C4.4521034 38.97828844 3.76296096 37.68627186 1.875 35.1875 C-0.72700353 30.764094 -0.70676483 27.02046743 0 22 C1.5 18.375 1.5 18.375 3 16 C1.02 14.68 -0.96 13.36 -3 12 C-2.34 11.67 -1.68 11.34 -1 11 C-1 10.34 -1 9.68 -1 9 C-0.34 9 0.32 9 1 9 C0.835 7.88625 0.67 6.7725 0.5 5.625 C0 2 0 2 0 0 Z M9.25 20.5625 C6.73027414 22.86239067 6.73027414 22.86239067 6.375 26.25 C7.17055478 31.0233287 9.1889666 34.13482908 12 38 C14.34148231 38.12213894 14.34148231 38.12213894 17 37 C19.76783266 33.79829087 21.63943193 30.40949335 22.6875 26.3125 C21.57461236 22.56915067 19.15498078 21.12354475 16 19 C12.0524885 18.67066039 12.0524885 18.67066039 9.25 20.5625 Z " fill="#97BCDF" transform="translate(112,208)"/>
<path d="M0 0 C0 12.21 0 24.42 0 37 C-16.68539326 39.2247191 -16.68539326 39.2247191 -24.6875 35.875 C-29.05462243 32.33408992 -30.77406166 27.87206056 -31.4375 22.375 C-30.72784603 16.90052652 -29.35947582 14.07625169 -25 10.625 C-20.26472302 8.16061929 -15.19176385 8.66201899 -10 9 C-9.95101563 8.28972656 -9.90203125 7.57945312 -9.8515625 6.84765625 C-9.77679688 5.92855469 -9.70203125 5.00945312 -9.625 4.0625 C-9.55539062 3.14597656 -9.48578125 2.22945312 -9.4140625 1.28515625 C-9.27742188 0.53105469 -9.14078125 -0.22304687 -9 -1 C-7 -2 -7 -2 0 0 Z M-19.6875 18.0625 C-22.36302735 20.85179243 -22.36302735 20.85179243 -22.0625 24.625 C-21.24932579 27.96529109 -21.24932579 27.96529109 -19.3125 30 C-16.08293114 31.39657032 -14.3005853 31.14802967 -11 30 C-8.75904066 26.43483742 -8.80793261 23.12944888 -9 19 C-14.4574497 15.65434976 -14.4574497 15.65434976 -19.6875 18.0625 Z " fill="#172F52" transform="translate(402,228)"/>
<path d="M0 0 C1.12591553 0.00523682 2.25183105 0.01047363 3.41186523 0.01586914 C4.62680664 0.0190918 5.84174805 0.02231445 7.09350586 0.02563477 C8.37290039 0.03401367 9.65229492 0.04239258 10.97045898 0.05102539 C12.2537207 0.05553711 13.53698242 0.06004883 14.85913086 0.06469727 C18.04211921 0.07652994 21.22501661 0.09301471 24.40795898 0.11352539 C24.78859119 2.43961109 25.12065843 4.77407803 25.40795898 7.11352539 C24.40795898 8.11352539 24.40795898 8.11352539 22.55029297 8.13525391 C21.36415405 8.06455688 21.36415405 8.06455688 20.15405273 7.99243164 C18.87304688 7.91992188 18.87304688 7.91992188 17.56616211 7.84594727 C16.21941406 7.76183594 16.21941406 7.76183594 14.84545898 7.67602539 C13.94375977 7.62381836 13.04206055 7.57161133 12.11303711 7.51782227 C9.87769348 7.3877229 7.64275009 7.25274603 5.40795898 7.11352539 C5.40795898 9.75352539 5.40795898 12.39352539 5.40795898 15.11352539 C11.01795898 15.11352539 16.62795898 15.11352539 22.40795898 15.11352539 C22.40795898 17.09352539 22.40795898 19.07352539 22.40795898 21.11352539 C16.79795898 21.11352539 11.18795898 21.11352539 5.40795898 21.11352539 C5.73795898 23.75352539 6.06795898 26.39352539 6.40795898 29.11352539 C12.67795898 29.11352539 18.94795898 29.11352539 25.40795898 29.11352539 C25.40795898 31.75352539 25.40795898 34.39352539 25.40795898 37.11352539 C18.68337293 37.24424089 11.99594295 37.04830178 5.28295898 36.67602539 C4.52442627 36.63678955 3.76589355 36.59755371 2.984375 36.55712891 C-2.4717203 36.23384611 -2.4717203 36.23384611 -3.59204102 35.11352539 C-3.69291313 32.60428386 -3.73176134 30.12316155 -3.72485352 27.61352539 C-3.72581024 26.86264648 -3.72676697 26.11176758 -3.72775269 25.33813477 C-3.7284344 23.74763912 -3.72658073 22.15714072 -3.72241211 20.56665039 C-3.71706368 18.12387884 -3.72235736 15.68129118 -3.72875977 13.23852539 C-3.72809898 11.69685832 -3.72681782 10.15519136 -3.72485352 8.61352539 C-3.72687775 7.87811523 -3.72890198 7.14270508 -3.73098755 6.38500977 C-3.70203063 0.16214036 -3.70203063 0.16214036 0 0 Z " fill="#1B3253" transform="translate(344.592041015625,228.886474609375)"/>
<path d="M0 0 C1.12591553 0.00523682 2.25183105 0.01047363 3.41186523 0.01586914 C4.62680664 0.0190918 5.84174805 0.02231445 7.09350586 0.02563477 C8.37290039 0.03401367 9.65229492 0.04239258 10.97045898 0.05102539 C12.2537207 0.05553711 13.53698242 0.06004883 14.85913086 0.06469727 C18.04211921 0.07652994 21.22501661 0.09301471 24.40795898 0.11352539 C24.73795898 2.42352539 25.06795898 4.73352539 25.40795898 7.11352539 C18.80795898 7.44352539 12.20795898 7.77352539 5.40795898 8.11352539 C5.40795898 10.42352539 5.40795898 12.73352539 5.40795898 15.11352539 C11.34795898 15.11352539 17.28795898 15.11352539 23.40795898 15.11352539 C23.40795898 17.09352539 23.40795898 19.07352539 23.40795898 21.11352539 C19.57071726 22.01766212 16.03293624 22.21929437 12.09545898 22.17602539 C10.49250977 22.16249023 10.49250977 22.16249023 8.85717773 22.14868164 C8.04893555 22.13708008 7.24069336 22.12547852 6.40795898 22.11352539 C6.07795898 24.42352539 5.74795898 26.73352539 5.40795898 29.11352539 C11.67795898 29.11352539 17.94795898 29.11352539 24.40795898 29.11352539 C24.40795898 29.44352539 24.40795898 29.77352539 24.40795898 30.11352539 C18.46795898 30.44352539 12.52795898 30.77352539 6.40795898 31.11352539 C6.40795898 31.77352539 6.40795898 32.43352539 6.40795898 33.11352539 C4.13145932 35.30571026 2.96210252 36.09551777 -0.23657227 36.19946289 C-1.4025293 36.15692383 -1.4025293 36.15692383 -2.59204102 36.11352539 C-2.75928213 31.14748826 -2.91987885 26.18129861 -3.07421875 21.21484375 C-3.12771216 19.52402916 -3.18304699 17.83327181 -3.24023438 16.14257812 C-3.32194143 13.71765492 -3.39710497 11.29260546 -3.47094727 8.86743164 C-3.49798233 8.10701065 -3.5250174 7.34658966 -3.5528717 6.56312561 C-3.604954 4.74729205 -3.60390687 2.93006696 -3.59204102 1.11352539 C-2.59204102 0.11352539 -2.59204102 0.11352539 0 0 Z " fill="#223A58" transform="translate(211.592041015625,228.886474609375)"/>
<path d="M0 0 C3.5 0.125 3.5 0.125 4.5 1.125 C4.58631874 2.46767413 4.60706473 3.81474322 4.59765625 5.16015625 C4.59443359 5.96904297 4.59121094 6.77792969 4.58789062 7.61132812 C4.57951172 8.46146484 4.57113281 9.31160156 4.5625 10.1875 C4.55798828 11.04150391 4.55347656 11.89550781 4.54882812 12.77539062 C4.53700373 14.89195663 4.51906769 17.00848685 4.5 19.125 C5.16 19.125 5.82 19.125 6.5 19.125 C6.5 19.785 6.5 20.445 6.5 21.125 C8.81 21.125 11.12 21.125 13.5 21.125 C14.3386201 16.8008651 14.58110774 12.77509516 14.5 8.375 C14.38986784 2.34526432 14.38986784 2.34526432 15.5 0.125 C17.83294775 0.08258277 20.16702567 0.08407063 22.5 0.125 C23.5 1.125 23.5 1.125 23.61352539 3.80883789 C23.60828857 4.97664795 23.60305176 6.14445801 23.59765625 7.34765625 C23.59443359 8.60771484 23.59121094 9.86777344 23.58789062 11.16601562 C23.57953403 12.50651109 23.57106907 13.84700588 23.5625 15.1875 C23.5574866 16.53189942 23.55292342 17.8763006 23.54882812 19.22070312 C23.53699488 22.52217941 23.52050971 25.82356803 23.5 29.125 C18.5 29.125 13.5 29.125 8.5 29.125 C7.365625 29.228125 6.23125 29.33125 5.0625 29.4375 C1.5 29.125 1.5 29.125 -0.8125 27 C-4.27292581 21.10445973 -4.79546508 15.9779228 -4.6875 9.3125 C-4.68685547 8.53712891 -4.68621094 7.76175781 -4.68554688 6.96289062 C-4.63202356 0.16542941 -4.63202356 0.16542941 0 0 Z " fill="#203759" transform="translate(410.5,236.875)"/>
<path d="M0 0 C0.94875 0.04125 1.8975 0.0825 2.875 0.125 C4.21123836 4.13371509 3.25727053 6.18552898 1.875 10.125 C1.38 10.764375 0.885 11.40375 0.375 12.0625 C-1.46868077 14.59756106 -1.86120869 17.09251169 -2.53125 20.11328125 C-3.43938715 23.19019332 -5.2936169 25.51666649 -7.125 28.125 C-8.23161083 30.4269373 -9.17553577 32.75133943 -10.125 35.125 C-10.785 35.125 -11.445 35.125 -12.125 35.125 C-12.125 35.785 -12.125 36.445 -12.125 37.125 C-17.59309845 39.5856443 -20.61227081 38.83584699 -26.125 37.125 C-27.05923645 34.11468256 -27.16949911 33.25849732 -26.125 30.125 C-22.9283 28.75498571 -20.42596158 29.2997596 -17.125 30.125 C-16.4435177 28.23320797 -16.4435177 28.23320797 -16.125 26.125 C-16.785 25.465 -17.445 24.805 -18.125 24.125 C-18.70059839 22.62403768 -19.21630417 21.09943718 -19.6875 19.5625 C-20.45711636 16.5824868 -20.45711636 16.5824868 -22.125 14.125 C-22.16563832 12.45882885 -22.167721 10.79111905 -22.125 9.125 C-20.805 9.455 -19.485 9.785 -18.125 10.125 C-18.125 8.145 -18.125 6.165 -18.125 4.125 C-14.80805284 6.00460339 -14.15793463 7.02446272 -12.9375 10.75 C-12.669375 11.86375 -12.40125 12.9775 -12.125 14.125 C-11.795 14.455 -11.465 14.785 -11.125 15.125 C-8.38037569 9.7710389 -8.38037569 9.7710389 -6 4.25 C-4.57813894 0.79690884 -3.7745487 0.15098195 0 0 Z " fill="#1C3453" transform="translate(318.125,236.875)"/>
<path d="M0 0 C2.18954675 0.98152096 3.76467978 1.72637183 5.34375 3.5625 C7.54412246 5.47225723 8.82107764 5.31212706 11.6875 5.1875 C12.49574219 5.16042969 13.30398437 5.13335937 14.13671875 5.10546875 C15.05904297 5.05326172 15.05904297 5.05326172 16 5 C16.46944611 8.8729304 15.68670673 11.82283976 13.66796875 15.16796875 C10.69523218 18.43310564 6.83881075 20.27628103 2.97265625 22.32421875 C0.04025922 23.97730459 -2.43359747 25.83061002 -5 28 C-7.49361571 26.79618552 -9.68143083 25.54571278 -12 24 C-10 18 -10 18 -9 16 C-9.99 16.33 -10.98 16.66 -12 17 C-12.99 15.68 -13.98 14.36 -15 13 C-14.01 12.01 -13.02 11.02 -12 10 C-12.66 8.02 -13.32 6.04 -14 4 C-11.69 4 -9.38 4 -7 4 C-7 4.66 -7 5.32 -7 6 C-4.69 5.34 -2.38 4.68 0 4 C0 2.68 0 1.36 0 0 Z M-7 9 C-7 9.66 -7 10.32 -7 11 C-7.66 11 -8.32 11 -9 11 C-9 11.99 -9 12.98 -9 14 C-7.35 13.34 -5.7 12.68 -4 12 C-4.99 11.01 -5.98 10.02 -7 9 Z " fill="#7EA5D4" transform="translate(134,276)"/>
<path d="M0 0 C0.33 0 0.66 0 1 0 C1 6.6 1 13.2 1 20 C3.0109375 20.309375 3.0109375 20.309375 5.0625 20.625 C9.85711375 21.58392275 14.27800293 23.0879238 18.8125 24.875 C19.76298218 25.24165771 19.76298218 25.24165771 20.73266602 25.61572266 C24.70034542 27.22793615 27.78973588 29.17496757 31 32 C29.55481219 35.3721049 27.87649547 37.69880363 25 40 C21.07565109 40.42881958 18.883298 39.6731214 15.5625 37.625 C10.76597826 34.82307146 6.47439116 33.11980125 0.9375 32.5 C-2.46115654 32.06842457 -4.92917381 31.43944978 -8 30 C-8 27.69 -8 25.38 -8 23 C-7.01 23 -6.02 23 -5 23 C-4.71125 22.2575 -4.4225 21.515 -4.125 20.75 C-3 18 -3 18 -1.96875 16.28125 C-0.62268885 13.11149309 -0.56540713 10.17732827 -0.375 6.75 C-0.30023438 5.48671875 -0.22546875 4.2234375 -0.1484375 2.921875 C-0.09945312 1.95765625 -0.05046875 0.9934375 0 0 Z " fill="#78A1D1" transform="translate(92,233)"/>
<path d="M0 0 C1.51400391 0.01740234 1.51400391 0.01740234 3.05859375 0.03515625 C4.07050781 0.04417969 5.08242188 0.05320313 6.125 0.0625 C7.29869141 0.07990234 7.29869141 0.07990234 8.49609375 0.09765625 C8.49609375 0.42765625 8.49609375 0.75765625 8.49609375 1.09765625 C5.19609375 1.09765625 1.89609375 1.09765625 -1.50390625 1.09765625 C-0.67057292 3.26432292 -0.67057292 3.26432292 1.49609375 4.09765625 C1.16609375 4.75765625 0.83609375 5.41765625 0.49609375 6.09765625 C0.41159747 7.83809795 0.38886351 9.58175347 0.3984375 11.32421875 C0.40166016 12.35546875 0.40488281 13.38671875 0.40820312 14.44921875 C0.41658203 15.52945313 0.42496094 16.6096875 0.43359375 17.72265625 C0.43810547 18.810625 0.44261719 19.89859375 0.44726562 21.01953125 C0.45907599 23.71229414 0.47554597 26.40494813 0.49609375 29.09765625 C1.15609375 29.09765625 1.81609375 29.09765625 2.49609375 29.09765625 C2.82609375 29.42765625 3.15609375 29.75765625 3.49609375 30.09765625 C3.49609375 28.44765625 3.49609375 26.79765625 3.49609375 25.09765625 C4.15609375 25.09765625 4.81609375 25.09765625 5.49609375 25.09765625 C5.82609375 26.41765625 6.15609375 27.73765625 6.49609375 29.09765625 C12.76609375 29.09765625 19.03609375 29.09765625 25.49609375 29.09765625 C25.49609375 31.73765625 25.49609375 34.37765625 25.49609375 37.09765625 C18.77150769 37.22837175 12.08407771 37.03243264 5.37109375 36.66015625 C4.61256104 36.62092041 3.85402832 36.58168457 3.07250977 36.54125977 C-2.38358553 36.21797697 -2.38358553 36.21797697 -3.50390625 35.09765625 C-3.60477837 32.58841472 -3.64362657 30.10729241 -3.63671875 27.59765625 C-3.63767548 26.84677734 -3.6386322 26.09589844 -3.63961792 25.32226562 C-3.64029963 23.73176998 -3.63844597 22.14127158 -3.63427734 20.55078125 C-3.62892892 18.1080097 -3.63422259 15.66542204 -3.640625 13.22265625 C-3.63996422 11.68098918 -3.63868305 10.13932222 -3.63671875 8.59765625 C-3.63874298 7.86224609 -3.64076721 7.12683594 -3.64285278 6.36914062 C-3.61387109 0.14094661 -3.61387109 0.14094661 0 0 Z " fill="#19335C" transform="translate(344.50390625,228.90234375)"/>
<path d="M0 0 C1.12591553 0.00523682 2.25183105 0.01047363 3.41186523 0.01586914 C4.62680664 0.0190918 5.84174805 0.02231445 7.09350586 0.02563477 C8.37290039 0.03401367 9.65229492 0.04239258 10.97045898 0.05102539 C12.2537207 0.05553711 13.53698242 0.06004883 14.85913086 0.06469727 C18.04211921 0.07652994 21.22501661 0.09301471 24.40795898 0.11352539 C24.73795898 2.42352539 25.06795898 4.73352539 25.40795898 7.11352539 C18.80795898 7.44352539 12.20795898 7.77352539 5.40795898 8.11352539 C5.40795898 10.09352539 5.40795898 12.07352539 5.40795898 14.11352539 C4.60358398 14.23727539 3.79920898 14.36102539 2.97045898 14.48852539 C2.12483398 14.69477539 1.27920898 14.90102539 0.40795898 15.11352539 C0.07795898 15.77352539 -0.25204102 16.43352539 -0.59204102 17.11352539 C-0.92204102 15.46352539 -1.25204102 13.81352539 -1.59204102 12.11352539 C-1.92204102 12.11352539 -2.25204102 12.11352539 -2.59204102 12.11352539 C-2.78605735 10.30171134 -2.97208476 8.48904007 -3.15454102 6.67602539 C-3.25895508 5.66668945 -3.36336914 4.65735352 -3.47094727 3.61743164 C-3.5109082 2.79114258 -3.55086914 1.96485352 -3.59204102 1.11352539 C-2.59204102 0.11352539 -2.59204102 0.11352539 0 0 Z " fill="#162A47" transform="translate(211.592041015625,228.886474609375)"/>
<path d="M0 0 C2.33294775 -0.04241723 4.66702567 -0.04092937 7 0 C8 1 8 1 8.11352539 3.68383789 C8.10828857 4.85164795 8.10305176 6.01945801 8.09765625 7.22265625 C8.09443359 8.48271484 8.09121094 9.74277344 8.08789062 11.04101562 C8.07953403 12.38151109 8.07106907 13.72200588 8.0625 15.0625 C8.0574866 16.40689942 8.05292342 17.7513006 8.04882812 19.09570312 C8.03699488 22.39717941 8.02050971 25.69856803 8 29 C4.66666667 29 1.33333333 29 -2 29 C-1.7525 27.32550781 -1.7525 27.32550781 -1.5 25.6171875 C-0.8936474 20.77277183 -0.9243114 15.99934615 -1 11.125 C-1.02545064 9.44016759 -1.04650365 7.7552612 -1.0625 6.0703125 C-1.07410156 5.33570801 -1.08570313 4.60110352 -1.09765625 3.84423828 C-1 2 -1 2 0 0 Z " fill="#173256" transform="translate(426,237)"/>
<path d="M0 0 C2.67246129 1.82509551 3.73993213 2.6425214 4.5625 5.75 C4.1875 8.5 4.1875 8.5 3.5625 10.75 C2.5725 9.76 1.5825 8.77 0.5625 7.75 C-1.32141785 11.01545761 -1.93037967 14.03111761 -2.4375 17.75 C-2.7675 17.09 -3.0975 16.43 -3.4375 15.75 C-4.7575 15.75 -6.0775 15.75 -7.4375 15.75 C-9.1875 13.75 -9.1875 13.75 -10.4375 11.75 C-9.1175 11.75 -7.7975 11.75 -6.4375 11.75 C-8.7475 11.42 -11.0575 11.09 -13.4375 10.75 C-13.7675 11.41 -14.0975 12.07 -14.4375 12.75 C-15.0975 12.09 -15.7575 11.43 -16.4375 10.75 C-13.1375 10.09 -9.8375 9.43 -6.4375 8.75 C-6.4375 8.09 -6.4375 7.43 -6.4375 6.75 C-8.43704746 6.70745644 -10.43791636 6.70919217 -12.4375 6.75 C-12.7675 7.08 -13.0975 7.41 -13.4375 7.75 C-16.375 8 -16.375 8 -19.4375 7.75 C-21.4375 4.75 -21.4375 4.75 -21.0625 2.5625 C-20.85625 1.964375 -20.65 1.36625 -20.4375 0.75 C-13.4099943 -1.29436529 -7.0375865 -2.55912236 0 0 Z " fill="#273A58" transform="translate(260.4375,238.25)"/>
<path d="M0 0 C0.66666667 1.33333333 1.33333333 2.66666667 2 4 C2.37125 4.598125 2.7425 5.19625 3.125 5.8125 C4.35379783 8.88449458 4.05330732 11.72159965 4 15 C1.64763914 15.39357389 -0.70495693 15.76503584 -3.0625 16.125 C-3.71927734 16.23714844 -4.37605469 16.34929687 -5.05273438 16.46484375 C-11.85828856 17.47059067 -17.42439455 15.98257532 -23 12 C-25 9 -25 9 -25 6 C-24.34 6 -23.68 6 -23 6 C-23 6.99 -23 7.98 -23 9 C-20.03 9.495 -20.03 9.495 -17 10 C-16.67 9.01 -16.34 8.02 -16 7 C-13.03 7.33 -10.06 7.66 -7 8 C-6.67 7.01 -6.34 6.02 -6 5 C-5.34 5.66 -4.68 6.32 -4 7 C-2.68 4.69 -1.36 2.38 0 0 Z " fill="#1E3655" transform="translate(398,250)"/>
<path d="M0 0 C0.99 0.33 1.98 0.66 3 1 C3.02691685 3.45840605 3.04679802 5.91651882 3.0625 8.375 C3.07087891 9.07367188 3.07925781 9.77234375 3.08789062 10.4921875 C3.11328125 15.7734375 3.11328125 15.7734375 2 18 C-0.61597465 18.64438698 -3.16314363 19.17069217 -5.8125 19.625 C-6.53759766 19.7590625 -7.26269531 19.893125 -8.00976562 20.03125 C-11.41240094 20.64142065 -14.5321696 21 -18 21 C-16.40069566 16.95864413 -13.51339591 14.32092848 -10.4375 11.375 C-6.77285984 8.03597098 -6.77285984 8.03597098 -4 4 C-3.34 4 -2.68 4 -2 4 C-1.34 2.68 -0.68 1.36 0 0 Z " fill="#A5C0D8" transform="translate(168,246)"/>
<path d="M0 0 C1.20272819 2.40545638 1.10071472 3.94996953 1.0625 6.625 C1.05347656 7.44226563 1.04445312 8.25953125 1.03515625 9.1015625 C1.02355469 9.72804687 1.01195312 10.35453125 1 11 C4.00041238 10.37693049 7.00032443 9.7515989 10 9.125 C10.83917969 8.95097656 11.67835938 8.77695313 12.54296875 8.59765625 C16.5123359 7.76685847 20.45260442 6.8987266 24.375 5.8671875 C28 5 28 5 32 5 C32.28571429 12.42857143 32.28571429 12.42857143 30 16 C28 13 28 13 27 10 C22.401307 9.71844737 18.89980099 9.60008845 14.625 11.5 C9.69539971 13.5398346 5.26309473 13.25696846 0 13 C-1.74565111 9.78360346 -2.204437 7.67986596 -2 4 C-6.91504925 4.72280136 -11.05223484 6.42922164 -14.9375 9.5625 C-17.80574388 11.56157907 -20.6052876 12.25933548 -24 13 C-24.99 12.67 -25.98 12.34 -27 12 C-24.76679887 9.50140652 -22.74486661 8.2625478 -19.65625 6.9921875 C-18.82222656 6.64542969 -17.98820313 6.29867187 -17.12890625 5.94140625 C-16.26136719 5.58949219 -15.39382812 5.23757812 -14.5 4.875 C-13.19869141 4.33552734 -13.19869141 4.33552734 -11.87109375 3.78515625 C-2.69882374 0 -2.69882374 0 0 0 Z " fill="#AFCDE4" transform="translate(170,195)"/>
<path d="M0 0 C1.32 0 2.64 0 4 0 C4 0.66 4 1.32 4 2 C5.32 2.33 6.64 2.66 8 3 C8.25 5.8125 8.25 5.8125 8 9 C6 10.875 6 10.875 4 12 C4.66 14.31 5.32 16.62 6 19 C5.01 19.66 4.02 20.32 3 21 C1.5 19.625 1.5 19.625 0 18 C0 17.34 0 16.68 0 16 C-3.3 15.01 -6.6 14.02 -10 13 C-8.64096145 8.42868851 -7.01311731 7.34914184 -3 5 C-2.484375 4.113125 -1.96875 3.22625 -1.4375 2.3125 C-0.7259375 1.1678125 -0.7259375 1.1678125 0 0 Z " fill="#92BDE5" transform="translate(134,212)"/>
<path d="M0 0 C1.77119803 0.14133499 3.54195287 0.28823208 5.3125 0.4375 C6.29863281 0.51871094 7.28476563 0.59992188 8.30078125 0.68359375 C11 1 11 1 14 2 C14.36516955 5.83428028 14.11001082 7.78812732 12.3125 11.25 C9.93404776 14.07842969 8.50811852 15.02552263 5 16 C2.07562498 13.45054486 0.22528863 11.77241817 -0.875 8 C-0.99567221 5.10386702 -0.61765221 2.81269315 0 0 Z " fill="#85A8CC" transform="translate(120,246)"/>
<path d="M0 0 C0.99 0.495 0.99 0.495 2 1 C1.01 1.495 1.01 1.495 0 2 C0 1.34 0 0.68 0 0 Z M-2 5 C-3.91214223 7.62034305 -5.45250181 9.68070432 -8.27734375 11.328125 C-11.53761801 13.33012985 -14.16974425 15.76444968 -16.875 18.4375 C-17.38546875 18.91509766 -17.8959375 19.39269531 -18.421875 19.88476562 C-20.06489762 21.44523968 -20.06489762 21.44523968 -22 24 C-21.92396565 27.09025304 -21.20206307 27.79793693 -19 30 C-20.125 31.5625 -20.125 31.5625 -22 33 C-25.85248595 32.75921963 -27.76039934 32.15973378 -31 30 C-30.67 28.68 -30.34 27.36 -30 26 C-29.34 26 -28.68 26 -28 26 C-28 25.34 -28 24.68 -28 24 C-27.34 24 -26.68 24 -26 24 C-26 23.34 -26 22.68 -26 22 C-25.34 22 -24.68 22 -24 22 C-23.731875 21.360625 -23.46375 20.72125 -23.1875 20.0625 C-22 18 -22 18 -19 17 C-19 16.34 -19 15.68 -19 15 C-18.34 15 -17.68 15 -17 15 C-17 14.34 -17 13.68 -17 13 C-16.34 13 -15.68 13 -15 13 C-14.7525 12.38125 -14.505 11.7625 -14.25 11.125 C-12.79371361 8.64931313 -11.62187494 8.04874998 -9 7 C-9 6.34 -9 5.68 -9 5 C-5.98968256 4.06576355 -5.13349732 3.95550089 -2 5 Z " fill="#94AFCF" transform="translate(134,261)"/>
<path d="M0 0 C0.94875 0.04125 1.8975 0.0825 2.875 0.125 C4.21123836 4.13371509 3.25727053 6.18552898 1.875 10.125 C1.1015625 11.1459375 1.1015625 11.1459375 0.3125 12.1875 C-1.57777929 14.73526774 -1.77167016 17.01569742 -2.125 20.125 C-2.455 19.465 -2.785 18.805 -3.125 18.125 C-4.07375 18.145625 -5.0225 18.16625 -6 18.1875 C-9.125 18.125 -9.125 18.125 -11.125 17.125 C-5.92873832 0.23714953 -5.92873832 0.23714953 0 0 Z " fill="#273B56" transform="translate(318.125,236.875)"/>
<path d="M0 0 C0.38218767 1.65614657 0.71395102 3.32457024 1 5 C0.67 5.33 0.34 5.66 0 6 C-0.56473534 11.76030044 0.58797318 14.41508895 4 19 C4 19.66 4 20.32 4 21 C2.68 21 1.36 21 0 21 C-0.33 23.31 -0.66 25.62 -1 28 C-1.33 28 -1.66 28 -2 28 C-2.2475 26.96875 -2.495 25.9375 -2.75 24.875 C-3.55218409 21.97434882 -4.28597535 20.60468114 -6.125 18.0625 C-8.6032489 14.01469347 -8.32210289 11.6704919 -8 7 C-7.34 7 -6.68 7 -6 7 C-5.896875 6.401875 -5.79375 5.80375 -5.6875 5.1875 C-4.71993159 2.10887325 -3.39245825 0 0 0 Z " fill="#92ABD0" transform="translate(120,225)"/>
<path d="M0 0 C5.61 0 11.22 0 17 0 C19.17766075 4.35532149 19.03039555 5.46625958 18 10 C16.35 10.33 14.7 10.66 13 11 C12.34 9.35 11.68 7.7 11 6 C10.608125 6.495 10.21625 6.99 9.8125 7.5 C8 9 8 9 5.75 9.3125 C2.35698514 8.92693013 -0.74686566 8.02059116 -4 7 C-4 6.67 -4 6.34 -4 6 C-2.35 5.67 -0.7 5.34 1 5 C0.67 3.35 0.34 1.7 0 0 Z " fill="#283E5F" transform="translate(282,237)"/>
<path d="M0 0 C0 0.99 0 1.98 0 3 C-0.99 3.495 -0.99 3.495 -2 4 C-2.33 4.99 -2.66 5.98 -3 7 C-7.75069141 7.9048936 -12.41363585 8.14986824 -17.25 8.25 C-18.45140625 8.27578125 -19.6528125 8.3015625 -20.890625 8.328125 C-24 8 -24 8 -25.921875 6.484375 C-26.27765625 5.99453125 -26.6334375 5.5046875 -27 5 C-25.35 4.67 -23.7 4.34 -22 4 C-22.33 3.01 -22.66 2.02 -23 1 C-19.91675903 0.83159521 -16.83339379 0.66558138 -13.75 0.5 C-12.87730469 0.45230469 -12.00460938 0.40460938 -11.10546875 0.35546875 C-10.26113281 0.31035156 -9.41679687 0.26523437 -8.546875 0.21875 C-7.38430176 0.1559082 -7.38430176 0.1559082 -6.19824219 0.09179688 C-4.13373418 0.00558463 -2.0663073 0 0 0 Z " fill="#15244C" transform="translate(240,258)"/>
<path d="M0 0 C1.32 0.66 2.64 1.32 4 2 C4.33 8.27 4.66 14.54 5 21 C2.36 20.67 -0.28 20.34 -3 20 C-5.57935087 16.1309737 -4.97777757 14.52954941 -4.3125 10 C-4.14363281 8.7625 -3.97476562 7.525 -3.80078125 6.25 C-3.02040318 3.08280705 -2.55588344 1.91515233 0 0 Z " fill="#1C3051" transform="translate(261,245)"/>
<path d="M0 0 C0.66 0 1.32 0 2 0 C2.02526838 6.96003447 2.04283222 13.9200572 2.05493164 20.88012695 C2.05997341 23.24992312 2.06680665 25.61971615 2.07543945 27.98950195 C2.0875119 31.38754039 2.09322971 34.78553785 2.09765625 38.18359375 C2.10281754 39.25024765 2.10797882 40.31690155 2.11329651 41.4158783 C2.11340981 42.88729027 2.11340981 42.88729027 2.11352539 44.38842773 C2.115746 45.25668686 2.11796661 46.12494598 2.12025452 47.01951599 C2 49 2 49 1 50 C-0.34267413 50.08631874 -1.68974322 50.10706473 -3.03515625 50.09765625 C-3.84404297 50.09443359 -4.65292969 50.09121094 -5.48632812 50.08789062 C-6.33646484 50.07951172 -7.18660156 50.07113281 -8.0625 50.0625 C-8.91650391 50.05798828 -9.77050781 50.05347656 -10.65039062 50.04882812 C-12.76695663 50.03700373 -14.88348685 50.01906769 -17 50 C-14 48 -14 48 0 48 C0 32.16 0 16.32 0 0 Z " fill="#BFD1E1" transform="translate(185,234)"/>
<path d="M0 0 C1.2065625 0.0309375 1.2065625 0.0309375 2.4375 0.0625 C2.4375 0.7225 2.4375 1.3825 2.4375 2.0625 C5.7375 2.0625 9.0375 2.0625 12.4375 2.0625 C12.1075 3.3825 11.7775 4.7025 11.4375 6.0625 C10.4475 6.3925 9.4575 6.7225 8.4375 7.0625 C11.4075 7.5575 11.4075 7.5575 14.4375 8.0625 C10.27928985 10.37261675 7.13512922 11.52227458 2.4375 10.25 C0.9525 9.6621875 0.9525 9.6621875 -0.5625 9.0625 C-1.51125 8.69125 -2.46 8.32 -3.4375 7.9375 C-4.13875 7.64875 -4.84 7.36 -5.5625 7.0625 C-3.33446653 0.08132845 -3.33446653 0.08132845 0 0 Z " fill="#3B4E6C" transform="translate(272.5625,255.9375)"/>
<path d="M0 0 C0 6.93 0 13.86 0 21 C-0.33 21 -0.66 21 -1 21 C-1.33 17.7 -1.66 14.4 -2 11 C-2 12.65 -2 14.3 -2 16 C-2.33 14.68 -2.66 13.36 -3 12 C-5.64 11.67 -8.28 11.34 -11 11 C-10.67 10.34 -10.34 9.68 -10 9 C-9.72824182 6.40751328 -9.55427432 3.81551489 -9.37890625 1.21484375 C-9.19134766 0.11849609 -9.19134766 0.11849609 -9 -1 C-7 -2 -7 -2 0 0 Z " fill="#20355B" transform="translate(402,228)"/>
<path d="M0 0 C2.4375 0.375 2.4375 0.375 5 1 C6.28446919 3.56893838 6.32977144 5.76576337 6.5625 8.625 C6.64628906 9.62789062 6.73007813 10.63078125 6.81640625 11.6640625 C6.87699219 12.43492187 6.93757812 13.20578125 7 14 C9.73277221 11.82779645 11.72888915 10.14172035 12.5546875 6.6640625 C12.78650022 4.43725548 12.94637012 2.23782882 13 0 C16.465 1.485 16.465 1.485 20 3 C19.67 4.32 19.34 5.64 19 7 C17.68 6.01 16.36 5.02 15 4 C15.12375 5.03125 15.2475 6.0625 15.375 7.125 C14.9276507 11.74760948 13.77969299 12.90670914 10.5078125 15.93359375 C9 17 9 17 7 17 C7 17.66 7 18.32 7 19 C6.01 19 5.02 19 4 19 C2.99890485 15.68929162 2.89643866 12.69915231 2.9375 9.25 C2.94652344 8.26515625 2.95554688 7.2803125 2.96484375 6.265625 C2.97644531 5.51796875 2.98804688 4.7703125 3 4 C1.35 4.33 -0.3 4.66 -2 5 C-1.34 3.35 -0.68 1.7 0 0 Z " fill="#B5D1E5" transform="translate(155,209)"/>
<path d="M0 0 C-0.33 0.66 -0.66 1.32 -1 2 C-3.64860427 2.59355614 -6.29197322 2.74209269 -9 3 C-9 3.33 -9 3.66 -9 4 C-11.31 4.33 -13.62 4.66 -16 5 C-16 6.32 -16 7.64 -16 9 C-13.69 9.33 -11.38 9.66 -9 10 C-9.33 10.99 -9.66 11.98 -10 13 C-12.72265625 14.16796875 -12.72265625 14.16796875 -16.0625 15.1875 C-17.16722656 15.53167969 -18.27195313 15.87585938 -19.41015625 16.23046875 C-20.26480469 16.48441406 -21.11945313 16.73835938 -22 17 C-21.67 15.02 -21.34 13.04 -21 11 C-20.34 11 -19.68 11 -19 11 C-19.33 9.68 -19.66 8.36 -20 7 C-22.31 7 -24.62 7 -27 7 C-19.42553042 0.37233911 -9.60103981 -0.1920208 0 0 Z " fill="#92B5D7" transform="translate(169,275)"/>
<path d="M0 0 C5.02265357 1.18180084 8.0949151 2.44992282 12 6 C10.55481219 9.3721049 8.87649547 11.69880363 6 14 C2.05670965 14.43232087 -0.20177866 13.64727754 -3.5625 11.625 C-6.33811225 9.97983641 -9.09607006 8.40916328 -12 7 C-6.01006953 6.6847405 -2.36439644 7.31780178 3 10 C3 7.69 3 5.38 3 3 C2.01 2.67 1.02 2.34 0 2 C0 1.34 0 0.68 0 0 Z " fill="#8BACCF" transform="translate(111,259)"/>
<path d="M0 0 C3 1 3 1 4 3 C4 4.98 4 6.96 4 9 C10.27 9 16.54 9 23 9 C23 9.33 23 9.66 23 10 C17.06 10.33 11.12 10.66 5 11 C5 11.66 5 12.32 5 13 C2.69723426 15.21747812 1.47519908 15.96760006 -1.75 16.1875 C-2.86375 16.0946875 -2.86375 16.0946875 -4 16 C-4.28169014 7.54929577 -4.28169014 7.54929577 -2 4 C-1.62875 3.2575 -1.2575 2.515 -0.875 1.75 C-0.58625 1.1725 -0.2975 0.595 0 0 Z " fill="#183458" transform="translate(213,249)"/>
<path d="M0 0 C0.66 0 1.32 0 2 0 C2 14.52 2 29.04 2 44 C1.01 43.67 0.02 43.34 -1 43 C-1.85808189 33.1650614 -2.05943575 23.49267568 -1.625 13.625 C-1.58189697 12.62073975 -1.53879395 11.61647949 -1.49438477 10.58178711 C-1.1354612 3.40638361 -1.1354612 3.40638361 0 0 Z " fill="#A2BED7" transform="translate(92,209)"/>
<path d="M0 0 C0.99 0.33 1.98 0.66 3 1 C2.34 3.64 1.68 6.28 1 9 C-0.32 8.67 -1.64 8.34 -3 8 C-4.87363977 8.90534328 -4.87363977 8.90534328 -6 11 C-6.39935892 13.49752784 -6.62679064 15.78214089 -6.73046875 18.29296875 C-6.770616 18.99899734 -6.81076324 19.70502594 -6.85212708 20.43244934 C-6.97710647 22.68365097 -7.08253914 24.93528495 -7.1875 27.1875 C-7.26889533 28.71556389 -7.35156264 30.24356059 -7.43554688 31.77148438 C-7.63845593 35.51370383 -7.82384315 39.25642972 -8 43 C-11.1758707 43.66461016 -14.06491238 44.11754386 -17.3125 44.0625 C-19.1378125 44.0315625 -19.1378125 44.0315625 -21 44 C-21 43.67 -21 43.34 -21 43 C-17.04 42.34 -13.08 41.68 -9 41 C-9.04713135 40.07775635 -9.0942627 39.1555127 -9.14282227 38.20532227 C-9.29732658 34.74386066 -9.40952019 31.28611603 -9.49438477 27.82250977 C-9.53932712 26.33135782 -9.60051176 24.84059536 -9.67895508 23.35083008 C-10.3145957 10.95791518 -10.3145957 10.95791518 -6.95654297 5.95654297 C-4.74329753 3.74329753 -2.54790029 1.81254237 0 0 Z " fill="#A5C1DC" transform="translate(184,231)"/>
<path d="M0 0 C2.33294775 -0.04241723 4.66702567 -0.04092937 7 0 C8 1 8 1 8.1875 3.125 C7.89317384 7.63800108 6.42268068 11.73195795 5 16 C4.01 15.67 3.02 15.34 2 15 C2 15.99 2 16.98 2 18 C1.01 18 0.02 18 -1 18 C-1.02690844 15.37493198 -1.04679404 12.75013827 -1.0625 10.125 C-1.07087891 9.37863281 -1.07925781 8.63226563 -1.08789062 7.86328125 C-1.11328125 2.2265625 -1.11328125 2.2265625 0 0 Z " fill="#2C4462" transform="translate(426,237)"/>
<path d="M0 0 C1.26328125 0.01804688 2.5265625 0.03609375 3.828125 0.0546875 C4.79234375 0.07789063 5.7565625 0.10109375 6.75 0.125 C6.75 2.105 6.75 4.085 6.75 6.125 C0.81 6.125 -5.13 6.125 -11.25 6.125 C-11.58 6.785 -11.91 7.445 -12.25 8.125 C-12 5.25 -12 5.25 -11.25 2.125 C-7.77866371 -0.46148586 -4.18461595 -0.07749289 0 0 Z " fill="#193255" transform="translate(360.25,243.875)"/>
<path d="M0 0 C2.47923801 -0.02685095 4.9581884 -0.04676547 7.4375 -0.0625 C8.14455078 -0.07087891 8.85160156 -0.07925781 9.58007812 -0.08789062 C11.38693559 -0.09653588 13.19387603 -0.05220011 15 0 C16 1 16 1 16 7 C11.05 7 6.1 7 1 7 C0.67 4.69 0.34 2.38 0 0 Z " fill="#193256" transform="translate(321,247)"/>
<path d="M0 0 C0.33 0 0.66 0 1 0 C1 1.65 1 3.3 1 5 C0.360625 5.144375 -0.27875 5.28875 -0.9375 5.4375 C-2.97545146 5.81007181 -2.97545146 5.81007181 -4 7 C-3.71395102 8.67542976 -3.38218767 10.34385343 -3 12 C-14.0509287 9.86279209 -14.0509287 9.86279209 -17.75 6.5 C-19 4 -19 4 -19 1 C-18.34 1 -17.68 1 -17 1 C-17 1.99 -17 2.98 -17 4 C-14.03 4.495 -14.03 4.495 -11 5 C-10.67 4.01 -10.34 3.02 -10 2 C-7.03 2.33 -4.06 2.66 -1 3 C-0.67 2.01 -0.34 1.02 0 0 Z " fill="#334B67" transform="translate(392,255)"/>
<path d="M0 0 C4.62 0 9.24 0 14 0 C14.33 2.31 14.66 4.62 15 7 C12.72975032 7.08097324 10.45867925 7.13917704 8.1875 7.1875 C6.29064453 7.23970703 6.29064453 7.23970703 4.35546875 7.29296875 C1 7 1 7 -0.94921875 5.48828125 C-1.29597656 4.99714844 -1.64273438 4.50601563 -2 4 C-1.34 3.34 -0.68 2.68 0 2 C0.99 2 1.98 2 3 2 C2.01 1.34 1.02 0.68 0 0 Z " fill="#364A6C" transform="translate(222,229)"/>
<path d="M0 0 C0.66 0.66 1.32 1.32 2 2 C2.33 1.34 2.66 0.68 3 0 C3.66 0 4.32 0 5 0 C5 3.96 5 7.92 5 12 C-4.5 14 -4.5 14 -9 14 C-7.48328036 9.44984107 -3.83108947 7.49942736 0 5 C-0.33 4.01 -0.66 3.02 -1 2 C-0.67 1.34 -0.34 0.68 0 0 Z " fill="#92BCE4" transform="translate(164,250)"/>
<path d="M0 0 C3.5 0.125 3.5 0.125 4.5 1.125 C4.58631874 2.46767413 4.60706473 3.81474322 4.59765625 5.16015625 C4.59443359 5.96904297 4.59121094 6.77792969 4.58789062 7.61132812 C4.57951172 8.46146484 4.57113281 9.31160156 4.5625 10.1875 C4.55798828 11.04150391 4.55347656 11.89550781 4.54882812 12.77539062 C4.53700373 14.89195663 4.51906769 17.00848685 4.5 19.125 C4.17 19.125 3.84 19.125 3.5 19.125 C3.17 14.175 2.84 9.225 2.5 4.125 C1.18 3.795 -0.14 3.465 -1.5 3.125 C-1.39300781 4.02863281 -1.28601563 4.93226563 -1.17578125 5.86328125 C-1.05589844 7.04277344 -0.93601562 8.22226563 -0.8125 9.4375 C-0.68488281 10.60925781 -0.55726563 11.78101563 -0.42578125 12.98828125 C-0.5 16.125 -0.5 16.125 -1.98046875 18.04296875 C-2.73263672 18.57857422 -2.73263672 18.57857422 -3.5 19.125 C-5.3855253 17.2394747 -4.63246689 14.54731169 -4.63671875 12.04296875 C-4.63285156 11.24503906 -4.62898438 10.44710937 -4.625 9.625 C-4.62886719 8.82707031 -4.63273437 8.02914062 -4.63671875 7.20703125 C-4.62476313 0.16517011 -4.62476313 0.16517011 0 0 Z " fill="#465467" transform="translate(410.5,236.875)"/>
<path d="M0 0 C0 1.98 0 3.96 0 6 C-3.83724172 6.90413673 -7.37502274 7.10576898 -11.3125 7.0625 C-12.38113281 7.05347656 -13.44976562 7.04445312 -14.55078125 7.03515625 C-15.35902344 7.02355469 -16.16726562 7.01195312 -17 7 C-17.33 5.02 -17.66 3.04 -18 1 C-15.56257869 0.83210874 -13.12507454 0.66563867 -10.6875 0.5 C-9.99720703 0.45230469 -9.30691406 0.40460938 -8.59570312 0.35546875 C-5.72337641 0.16120511 -2.87986212 0 0 0 Z " fill="#1B324F" transform="translate(235,244)"/>
<path d="M0 0 C-0.58234312 3.37759011 -1.5775736 4.65662715 -4 7 C-5.77528232 9.07385253 -7.53133543 11.16252005 -9.28125 13.2578125 C-11 15 -11 15 -14 16 C-14.28875 16.66 -14.5775 17.32 -14.875 18 C-16 20 -16 20 -18.625 20.75 C-19.40875 20.8325 -20.1925 20.915 -21 21 C-21 20.34 -21 19.68 -21 19 C-20.34 19 -19.68 19 -19 19 C-18.7525 18.42765625 -18.505 17.8553125 -18.25 17.265625 C-16.80683801 14.64989389 -15.11783778 12.85226544 -13 10.75 C-12.29875 10.04359375 -11.5975 9.3371875 -10.875 8.609375 C-9 7 -9 7 -7 7 C-6.731875 6.401875 -6.46375 5.80375 -6.1875 5.1875 C-3.37142857 0 -3.37142857 0 0 0 Z " fill="#97B9D6" transform="translate(148,245)"/>
<path d="M0 0 C4.62 0 9.24 0 14 0 C14.38063221 2.3260857 14.71269945 4.66055264 15 7 C14 8 14 8 10.4375 8.0625 C9.303125 8.041875 8.16875 8.02125 7 8 C7 7.34 7 6.68 7 6 C4.36 6 1.72 6 -1 6 C-0.649375 5.38125 -0.29875 4.7625 0.0625 4.125 C0.371875 3.42375 0.68125 2.7225 1 2 C0.67 1.34 0.34 0.68 0 0 Z " fill="#1F3767" transform="translate(355,229)"/>
<path d="M0 0 C2.0625 1.625 2.0625 1.625 4 4 C3.75 7.25 3.75 7.25 3 10 C2.01 9.01 1.02 8.02 0 7 C-1.88391785 10.26545761 -2.49287967 13.28111761 -3 17 C-3.33 16.34 -3.66 15.68 -4 15 C-5.32 15 -6.64 15 -8 15 C-9.75 13 -9.75 13 -11 11 C-9.68 11 -8.36 11 -7 11 C-9.31 10.67 -11.62 10.34 -14 10 C-14.33 10.66 -14.66 11.32 -15 12 C-15.66 11.34 -16.32 10.68 -17 10 C-16.32453125 9.86722656 -15.6490625 9.73445312 -14.953125 9.59765625 C-13.61507812 9.33275391 -13.61507812 9.33275391 -12.25 9.0625 C-11.36828125 8.88847656 -10.4865625 8.71445313 -9.578125 8.53515625 C-8.30195313 8.27025391 -8.30195313 8.27025391 -7 8 C-6.2575 7.855625 -5.515 7.71125 -4.75 7.5625 C-2.77611718 7.13899973 -2.77611718 7.13899973 -1.75 4.9375 C-1.37875 3.9784375 -1.37875 3.9784375 -1 3 C-0.01 3.66 0.98 4.32 2 5 C1.34 3.35 0.68 1.7 0 0 Z " fill="#324668" transform="translate(261,239)"/>
<path d="M0 0 C0.33 0.66 0.66 1.32 1 2 C3.32156597 2.40729228 5.6568787 2.74438677 8 3 C8.36075949 7.44936709 8.36075949 7.44936709 6.8125 9.8125 C4.44017475 11.36678206 2.77958655 11.22537188 0 11 C-3 4.25 -3 4.25 -3 2 C-2.01 1.34 -1.02 0.68 0 0 Z " fill="#7FA6D3" transform="translate(122,249)"/>
<path d="M0 0 C-0.50707544 4.36084875 -1.28030369 7.5032476 -4 11 C-6.6875 12.3125 -6.6875 12.3125 -9 13 C-9 11.68 -9 10.36 -9 9 C-9.66 8.67 -10.32 8.34 -11 8 C-10.34 8 -9.68 8 -9 8 C-8.7525 6.88625 -8.505 5.7725 -8.25 4.625 C-7 1 -7 1 -5.0625 -0.5 C-3 -1 -3 -1 0 0 Z " fill="#83ABD7" transform="translate(150,282)"/>
<path d="M0 0 C1.51400391 0.01740234 1.51400391 0.01740234 3.05859375 0.03515625 C4.07050781 0.04417969 5.08242188 0.05320313 6.125 0.0625 C7.29869141 0.07990234 7.29869141 0.07990234 8.49609375 0.09765625 C8.49609375 0.42765625 8.49609375 0.75765625 8.49609375 1.09765625 C5.19609375 1.09765625 1.89609375 1.09765625 -1.50390625 1.09765625 C-0.67057292 3.26432292 -0.67057292 3.26432292 1.49609375 4.09765625 C1.16609375 4.75765625 0.83609375 5.41765625 0.49609375 6.09765625 C0.35445974 7.94747679 0.27003725 9.80183637 0.21484375 11.65625 C0.17746094 12.76419922 0.14007813 13.87214844 0.1015625 15.01367188 C0.06675781 16.17576172 0.03195312 17.33785156 -0.00390625 18.53515625 C-0.0727357 20.8256473 -0.14547261 23.11602524 -0.22265625 25.40625 C-0.25294922 26.42517334 -0.28324219 27.44409668 -0.31445312 28.49389648 C-0.50390625 31.09765625 -0.50390625 31.09765625 -1.50390625 34.09765625 C-2.16390625 34.09765625 -2.82390625 34.09765625 -3.50390625 34.09765625 C-3.52855913 29.41626371 -3.54674364 24.73490866 -3.55883789 20.0534668 C-3.56387782 18.45971011 -3.57070975 16.86595806 -3.5793457 15.2722168 C-3.59142624 12.98615372 -3.5971378 10.70015158 -3.6015625 8.4140625 C-3.60672379 7.69738907 -3.61188507 6.98071564 -3.61720276 6.24232483 C-3.61739888 4.52701953 -3.56582632 2.81184359 -3.50390625 1.09765625 C-2.50390625 0.09765625 -2.50390625 0.09765625 0 0 Z " fill="#425165" transform="translate(344.50390625,228.90234375)"/>
<path d="M0 0 C0.94875 0.185625 1.8975 0.37125 2.875 0.5625 C5.89868793 1.28686632 5.89868793 1.28686632 8 0 C6.48099978 3.6241364 4.31929546 5.857624 1.5 8.5625 C-1.02809153 10.9961985 -3.04672934 13.07009401 -5 16 C-5.66 16 -6.32 16 -7 16 C-7.3125 12.75 -7.3125 12.75 -7 9 C-4.625 6.875 -4.625 6.875 -2 5 C-0.66701026 2.38181544 -0.66701026 2.38181544 0 0 Z " fill="#A5C4E2" transform="translate(171,232)"/>
<path d="M0 0 C6.27 0 12.54 0 19 0 C19 2.64 19 5.28 19 8 C17.25034642 8.05429959 15.50020213 8.09292823 13.75 8.125 C12.77546875 8.14820313 11.8009375 8.17140625 10.796875 8.1953125 C7.9803502 7.99862781 6.39050964 7.44568916 4 6 C5.134375 5.71125 6.26875 5.4225 7.4375 5.125 C8.613125 4.75375 9.78875 4.3825 11 4 C11.33 3.34 11.66 2.68 12 2 C13.2065625 2.0309375 13.2065625 2.0309375 14.4375 2.0625 C16.93354885 2.29633621 16.93354885 2.29633621 18 1 C12.06 1 6.12 1 0 1 C0 0.67 0 0.34 0 0 Z " fill="#3F526D" transform="translate(351,258)"/>
<path d="M0 0 C0.33 0.99 0.66 1.98 1 3 C2.65 3 4.3 3 6 3 C7.24209108 6.58826313 6.85783719 9.33469563 6 13 C5.01 14.485 5.01 14.485 4 16 C2.35 14.68 0.7 13.36 -1 12 C1 6 1 6 2 4 C1.01 4.33 0.02 4.66 -1 5 C-1.33 3.68 -1.66 2.36 -2 1 C-1.34 0.67 -0.68 0.34 0 0 Z " fill="#749DCF" transform="translate(123,288)"/>
<path d="M0 0 C0.66 0 1.32 0 2 0 C2 4.95 2 9.9 2 15 C3.32 15.66 4.64 16.32 6 17 C5.67 18.32 5.34 19.64 5 21 C3.35 21 1.7 21 0 21 C-2.125 14.375 -2.125 14.375 -1 11 C-0.95635078 9.29222439 -0.96016632 7.58286886 -1 5.875 C-1.03767103 4.25043671 -1.04657584 2.62433238 -1 1 C-0.67 0.67 -0.34 0.34 0 0 Z " fill="#6798D0" transform="translate(75,261)"/>
<path d="M0 0 C0.33 0 0.66 0 1 0 C1.268125 1.051875 1.53625 2.10375 1.8125 3.1875 C2.87161308 6.58781041 4.12535015 9.0176025 6 12 C6 12.66 6 13.32 6 14 C4.68 14 3.36 14 2 14 C1.67 16.31 1.34 18.62 1 21 C0.67 21 0.34 21 0 21 C-0.309375 19.906875 -0.61875 18.81375 -0.9375 17.6875 C-1.58337897 15.44592006 -2.2623117 13.2130649 -3 11 C-2.33333333 9.66666667 -1.66666667 8.33333333 -1 7 C-0.61250787 4.67504723 -0.27017161 2.34148732 0 0 Z " fill="#A3BCD8" transform="translate(118,232)"/>
<path d="M0 0 C2.475 0.99 2.475 0.99 5 2 C4.66964245 4.97321792 3.73847206 6.35662901 1.9375 8.8125 C-1.16241112 11.12094445 -1.5438565 11.32001625 -5.125 10.9375 C-9 10 -9 10 -12 8 C-10.7625 7.855625 -9.525 7.71125 -8.25 7.5625 C-5.43495501 7.21311498 -2.7298503 6.79620634 0 6 C0 4.02 0 2.04 0 0 Z " fill="#739CCD" transform="translate(102,278)"/>
<path d="M0 0 C2.3125 2.5 2.3125 2.5 4 5 C2.875 6.5625 2.875 6.5625 1 8 C-2.85248595 7.75921963 -4.76039934 7.15973378 -8 5 C-7.625 3.0625 -7.625 3.0625 -7 1 C-4.37869511 -0.31065245 -2.90828303 -0.415469 0 0 Z " fill="#7FA0CB" transform="translate(111,286)"/>
<path d="M0 0 C2.04367572 0.59733549 4.08486043 1.20319657 6.125 1.8125 C7.26195313 2.14894531 8.39890625 2.48539063 9.5703125 2.83203125 C12.89932763 3.96571636 15.89703414 5.354202 19 7 C18.67 7.66 18.34 8.32 18 9 C16.51882199 8.71872579 15.04006751 8.42466268 13.5625 8.125 C12.73878906 7.96257812 11.91507813 7.80015625 11.06640625 7.6328125 C10.38449219 7.42398438 9.70257813 7.21515625 9 7 C8.67 6.34 8.34 5.68 8 5 C5.67843403 4.59270772 3.3431213 4.25561323 1 4 C1 6.31 1 8.62 1 11 C0.67 11 0.34 11 0 11 C-0.19406478 9.35492782 -0.38007935 7.70890406 -0.5625 6.0625 C-0.66691406 5.14597656 -0.77132812 4.22945312 -0.87890625 3.28515625 C-0.91886719 2.53105469 -0.95882812 1.77695313 -1 1 C-0.67 0.67 -0.34 0.34 0 0 Z " fill="#A6C0D8" transform="translate(83,195)"/>
<path d="M0 0 C2.475 0.495 2.475 0.495 5 1 C5 4.96 5 8.92 5 13 C3.68 12.67 2.36 12.34 1 12 C0.03929566 9.11788698 -0.10581883 7.30149956 -0.0625 4.3125 C-0.05347656 3.50425781 -0.04445313 2.69601563 -0.03515625 1.86328125 C-0.02355469 1.24839844 -0.01195312 0.63351563 0 0 Z " fill="#132E52" transform="translate(409,240)"/>
<path d="M0 0 C2.64 0 5.28 0 8 0 C8.33 0.66 8.66 1.32 9 2 C8.01 2.495 8.01 2.495 7 3 C7 3.99 7 4.98 7 6 C6.67 6.66 6.34 7.32 6 8 C6.66 8.33 7.32 8.66 8 9 C3.66831683 9.26252625 0.1196377 8.29243536 -4 7 C-4 6.67 -4 6.34 -4 6 C-2.35 5.67 -0.7 5.34 1 5 C0.67 3.35 0.34 1.7 0 0 Z " fill="#2F4462" transform="translate(282,237)"/>
<path d="M0 0 C0.33 0.99 0.66 1.98 1 3 C7.27 3 13.54 3 20 3 C20 3.33 20 3.66 20 4 C14.06 4.33 8.12 4.66 2 5 C2 5.66 2 6.32 2 7 C-0.30276574 9.21747812 -1.52480092 9.96760006 -4.75 10.1875 C-5.4925 10.125625 -6.235 10.06375 -7 10 C-6.3125 7.625 -6.3125 7.625 -5 5 C-2.375 3.6875 -2.375 3.6875 0 3 C0 2.01 0 1.02 0 0 Z " fill="#425672" transform="translate(216,255)"/>
<path d="M0 0 C2.625 -0.1875 2.625 -0.1875 5 0 C4.7834375 1.04800781 4.7834375 1.04800781 4.5625 2.1171875 C4.376875 3.02726563 4.19125 3.93734375 4 4.875 C3.814375 5.77992188 3.62875 6.68484375 3.4375 7.6171875 C2.93980405 9.92407903 2.93980405 9.92407903 3 12 C1.35 12.33 -0.3 12.66 -2 13 C-2.05416188 11.39620659 -2.09286638 9.79188594 -2.125 8.1875 C-2.14820313 7.29417969 -2.17140625 6.40085938 -2.1953125 5.48046875 C-2 3 -2 3 0 0 Z " fill="#16335B" transform="translate(346,232)"/>
<path d="M0 0 C1.79240663 0.11389875 3.58394835 0.24147687 5.375 0.375 C6.87160156 0.47941406 6.87160156 0.47941406 8.3984375 0.5859375 C11 1 11 1 13 3 C13.1953125 5.3828125 13.1953125 5.3828125 13.125 8.125 C13.10695313 9.03507813 13.08890625 9.94515625 13.0703125 10.8828125 C13.04710938 11.58148438 13.02390625 12.28015625 13 13 C12.67 13 12.34 13 12 13 C11.67 11.02 11.34 9.04 11 7 C10.38125 6.896875 9.7625 6.79375 9.125 6.6875 C7 6 7 6 5 3 C2.43717258 2.27034634 2.43717258 2.27034634 0 2 C-0.33 2.99 -0.66 3.98 -1 5 C-0.67 3.35 -0.34 1.7 0 0 Z " fill="#A3BEDE" transform="translate(67,208)"/>
<path d="M0 0 C-0.51949219 0.44730469 -1.03898438 0.89460938 -1.57421875 1.35546875 C-4.75336094 4.11150884 -7.83889184 6.83156874 -10.75 9.875 C-12.94996549 11.95274519 -14.04092976 12.67121442 -17 13 C-16.40138258 10.64828869 -15.73075648 8.3140622 -15 6 C-12.6921509 4.84607545 -10.52769669 4.46562834 -8 4 C-8 3.34 -8 2.68 -8 2 C-3.61016949 -1.20338983 -3.61016949 -1.20338983 0 0 Z " fill="#8CACCF" transform="translate(155,259)"/>
<path d="M0 0 C0.33 0 0.66 0 1 0 C1.04241723 2.33294775 1.04092937 4.66702567 1 7 C0.67 7.33 0.34 7.66 0 8 C-0.23678716 10.69235776 -0.42198025 13.36498156 -0.5625 16.0625 C-0.60568359 16.82111328 -0.64886719 17.57972656 -0.69335938 18.36132812 C-0.79973633 20.24065438 -0.90039934 22.12030244 -1 24 C-1.309375 23.360625 -1.61875 22.72125 -1.9375 22.0625 C-2.8345163 20.06389179 -2.8345163 20.06389179 -4 19 C-4.1245486 17.35769636 -4.17568524 15.70947724 -4.1875 14.0625 C-4.20167969 13.16660156 -4.21585937 12.27070313 -4.23046875 11.34765625 C-4 9 -4 9 -2 7 C-1.63371323 5.00577205 -1.29868656 3.00546689 -1 1 C-0.67 0.67 -0.34 0.34 0 0 Z " fill="#84A2C7" transform="translate(78,214)"/>
<path d="M0 0 C0.763125 0.103125 1.52625 0.20625 2.3125 0.3125 C2.3125 0.9725 2.3125 1.6325 2.3125 2.3125 C2.9725 2.6425 3.6325 2.9725 4.3125 3.3125 C3.6525 3.3125 2.9925 3.3125 2.3125 3.3125 C2.3125 4.6325 2.3125 5.9525 2.3125 7.3125 C2.3125 7.6425 2.3125 7.9725 2.3125 8.3125 C0.0025 8.3125 -2.3075 8.3125 -4.6875 8.3125 C-5.6875 5.3125 -5.6875 5.3125 -4.5625 2.625 C-2.6875 0.3125 -2.6875 0.3125 0 0 Z " fill="#2D425B" transform="translate(272.6875,255.6875)"/>
<path d="M0 0 C-0.45034123 1.62723299 -0.91055354 3.25173664 -1.375 4.875 C-1.63023437 5.77992188 -1.88546875 6.68484375 -2.1484375 7.6171875 C-3 10 -3 10 -5 12 C-8 5.375 -8 5.375 -8 2 C-3.71900826 -1.23966942 -3.71900826 -1.23966942 0 0 Z " fill="#253955" transform="translate(382,239)"/>
<path d="M0 0 C2.45898655 -0.08076963 4.91533742 -0.14037143 7.375 -0.1875 C8.07367188 -0.21263672 8.77234375 -0.23777344 9.4921875 -0.26367188 C11.5234375 -0.29296875 11.5234375 -0.29296875 15 0 C15.66 0.99 16.32 1.98 17 3 C14.1805932 4.4097034 11.76732774 4.16984647 8.625 4.1875 C7.48289063 4.20167969 6.34078125 4.21585937 5.1640625 4.23046875 C2.16063184 4.01170034 0.52074066 3.57080637 -2 2 C-1.34 2 -0.68 2 0 2 C0 1.34 0 0.68 0 0 Z " fill="#1A345B" transform="translate(218,260)"/>
<path d="M0 0 C0.99 0.495 0.99 0.495 2 1 C1.01 1.495 1.01 1.495 0 2 C0 1.34 0 0.68 0 0 Z M-2 5 C-4.67478605 8.66544755 -7.03864522 10.82125487 -11 13 C-12.34631825 13.98244845 -13.68441297 14.97676564 -15 16 C-13.80100302 12.9168649 -12.52299523 9.93720508 -11 7 C-10.34 7 -9.68 7 -9 7 C-9 6.34 -9 5.68 -9 5 C-5.98968256 4.06576355 -5.13349732 3.95550089 -2 5 Z " fill="#82A7D2" transform="translate(134,261)"/>
<path d="M0 0 C2 1.125 2 1.125 4 3 C4.25 6.1875 4.25 6.1875 4 9 C1.10765685 9.82638376 -0.88742431 10 -4 10 C-4 8.35 -4 6.7 -4 5 C-2.68 5.33 -1.36 5.66 0 6 C0 4.02 0 2.04 0 0 Z " fill="#1D2F4C" transform="translate(300,241)"/>
<path d="M0 0 C0.33 0.99 0.66 1.98 1 3 C1.969375 2.67 2.93875 2.34 3.9375 2 C7 1 7 1 8 1 C8 3.31 8 5.62 8 8 C7.195625 8.12375 6.39125 8.2475 5.5625 8.375 C4.716875 8.58125 3.87125 8.7875 3 9 C2.67 9.66 2.34 10.32 2 11 C1.67 9.35 1.34 7.7 1 6 C0.67 6 0.34 6 0 6 C0 4.02 0 2.04 0 0 Z " fill="#2F4666" transform="translate(209,235)"/>
<path d="M0 0 C1.20272819 2.40545638 1.10071472 3.94996953 1.0625 6.625 C1.05347656 7.44226563 1.04445312 8.25953125 1.03515625 9.1015625 C1.02355469 9.72804687 1.01195312 10.35453125 1 11 C0.01 11.495 0.01 11.495 -1 12 C-1.97608217 9.07175348 -2.08226668 7.04386724 -2 4 C-4.43986989 4.47441915 -6.8143842 4.94166361 -9.1875 5.6875 C-9.785625 5.790625 -10.38375 5.89375 -11 6 C-11.66 5.34 -12.32 4.68 -13 4 C-11.2097939 3.32942113 -9.41778511 2.6636531 -7.625 2 C-6.62726563 1.62875 -5.62953125 1.2575 -4.6015625 0.875 C-2 0 -2 0 0 0 Z " fill="#BDD2E5" transform="translate(170,195)"/>
<path d="M0 0 C1.2065625 0.0309375 1.2065625 0.0309375 2.4375 0.0625 C1.86623204 4.06137575 0.56466428 6.65903716 -1.5625 10.0625 C-1.8925 10.97 -2.2225 11.8775 -2.5625 12.8125 C-2.8925 13.555 -3.2225 14.2975 -3.5625 15.0625 C-4.5525 15.3925 -5.5425 15.7225 -6.5625 16.0625 C-5.01980076 11.34184033 -3.48455381 6.64585908 -1.5625 2.0625 C-2.2225 1.7325 -2.8825 1.4025 -3.5625 1.0625 C-2.5625 0.0625 -2.5625 0.0625 0 0 Z " fill="#1D2D48" transform="translate(312.5625,254.9375)"/>
<path d="M0 0 C0.33 0.66 0.66 1.32 1 2 C1.66 2.33 2.32 2.66 3 3 C3.33 3.66 3.66 4.32 4 5 C0.37 7.31 -3.26 9.62 -7 12 C-6 7 -6 7 -4 5 C-3.34 4.67 -2.68 4.34 -2 4 C-2.33 3.34 -2.66 2.68 -3 2 C-2.01 1.34 -1.02 0.68 0 0 Z " fill="#88AFD6" transform="translate(135,292)"/>
<path d="M0 0 C0.99 0.33 1.98 0.66 3 1 C3.33 2.98 3.66 4.96 4 7 C3.34 7 2.68 7 2 7 C1.67 8.32 1.34 9.64 1 11 C0.01 10.67 -0.98 10.34 -2 10 C-2.25 3.375 -2.25 3.375 0 0 Z " fill="#132A4F" transform="translate(373,244)"/>
<path d="M0 0 C0.125 2.875 0.125 2.875 0 6 C-2.15634036 8.15634036 -4.37098712 9.47793991 -7 11 C-7.99 10.34 -8.98 9.68 -10 9 C-8.52386015 7.49702124 -7.04400843 5.99768715 -5.5625 4.5 C-4.73878906 3.6646875 -3.91507813 2.829375 -3.06640625 1.96875 C-1 0 -1 0 0 0 Z M-9 11 C-7 12 -7 12 -7 12 Z " fill="#BDD5E9" transform="translate(176,216)"/>
<path d="M0 0 C0.33 1.32 0.66 2.64 1 4 C-1.75078884 4.91692961 -3.35948913 5.10886083 -6.1875 5.0625 C-8.0746875 5.0315625 -8.0746875 5.0315625 -10 5 C-10.33 4.01 -10.66 3.02 -11 2 C-7.17010894 0.19769832 -4.21878192 -0.19622241 0 0 Z " fill="#1D324E" transform="translate(254,260)"/>
<path d="M0 0 C-0.33 1.65 -0.66 3.3 -1 5 C-1.66 5 -2.32 5 -3 5 C-3.33 5.66 -3.66 6.32 -4 7 C-4.66 7 -5.32 7 -6 7 C-8 4 -8 4 -7.8125 1.875 C-7.544375 1.25625 -7.27625 0.6375 -7 0 C-3.86650268 -1.04449911 -3.01031744 -0.93423645 0 0 Z " fill="#3F4D66" transform="translate(247,239)"/>
<path d="M0 0 C1.8871875 0.0309375 1.8871875 0.0309375 3.8125 0.0625 C3.1525 0.7225 2.4925 1.3825 1.8125 2.0625 C1.8125 3.0525 1.8125 4.0425 1.8125 5.0625 C-0.95014289 5.65982819 -3.34782769 6.0625 -6.1875 6.0625 C-6.8475 5.0725 -7.5075 4.0825 -8.1875 3.0625 C-6.45706736 -0.39836529 -3.47359009 -0.0569441 0 0 Z " fill="#162D4C" transform="translate(251.1875,248.9375)"/>
<path d="M0 0 C2.4375 0.375 2.4375 0.375 5 1 C6.4783226 3.95664519 6.06032783 6.74229737 6 10 C5.67 10 5.34 10 5 10 C4.67 11.65 4.34 13.3 4 15 C3.67 15 3.34 15 3 15 C3 11.37 3 7.74 3 4 C1.35 4.33 -0.3 4.66 -2 5 C-1.34 3.35 -0.68 1.7 0 0 Z " fill="#C1D6E6" transform="translate(155,209)"/>
<path d="M0 0 C0.9075 0.185625 1.815 0.37125 2.75 0.5625 C5.68314324 0.95734621 7.2644657 0.94691572 10 0 C10.33 0.66 10.66 1.32 11 2 C9.27473958 2.94401042 7.54947917 3.88802083 5.82421875 4.83203125 C3.65976925 6.12600149 3.65976925 6.12600149 1 9 C0.67 6.03 0.34 3.06 0 0 Z " fill="#86B2DC" transform="translate(144,256)"/>
<path d="M0 0 C0.8971875 0.5259375 0.8971875 0.5259375 1.8125 1.0625 C4.10813214 2.33304698 4.10813214 2.33304698 7 1 C7 2.32 7 3.64 7 5 C6.34 5 5.68 5 5 5 C4.7525 5.61875 4.505 6.2375 4.25 6.875 C2.79371361 9.35068687 1.62187494 9.95125002 -1 11 C-0.73958333 9.01432292 -0.47916667 7.02864583 -0.21875 5.04296875 C0.053233 2.84528294 0.053233 2.84528294 0 0 Z " fill="#132954" transform="translate(425,255)"/>
<path d="M0 0 C2.64 0 5.28 0 8 0 C7.67 0.99 7.34 1.98 7 3 C7.99 3.33 8.98 3.66 10 4 C8.68 4.33 7.36 4.66 6 5 C6 5.66 6 6.32 6 7 C4.35 7 2.7 7 1 7 C1.020625 6.21625 1.04125 5.4325 1.0625 4.625 C1.18684063 2.01885039 1.18684063 2.01885039 0 0 Z " fill="#233957" transform="translate(382,237)"/>
<path d="M0 0 C0 4.95 0 9.9 0 15 C-0.33 15 -0.66 15 -1 15 C-1.33 11.7 -1.66 8.4 -2 5 C-2 6.65 -2 8.3 -2 10 C-2.33 8.68 -2.66 7.36 -3 6 C-4.32 5.67 -5.64 5.34 -7 5 C-6.1875 3.0625 -6.1875 3.0625 -5 1 C-2 0 -2 0 0 0 Z " fill="#465577" transform="translate(402,234)"/>
<path d="M0 0 C0.33 0 0.66 0 1 0 C1 2.64 1 5.28 1 8 C1.99 8.33 2.98 8.66 4 9 C3.01 9.33 2.02 9.66 1 10 C-0.20882096 12.00016466 -0.20882096 12.00016466 -1 14 C-1.66 14 -2.32 14 -3 14 C-3.33 12.02 -3.66 10.04 -4 8 C-3.34 7.67 -2.68 7.34 -2 7 C-1.34 7.33 -0.68 7.66 0 8 C-0.185625 7.236875 -0.37125 6.47375 -0.5625 5.6875 C-1 3 -1 3 0 0 Z " fill="#143663" transform="translate(349,236)"/>
<path d="M0 0 C0.8125 2.1875 0.8125 2.1875 1 5 C-1.3125 7.8125 -1.3125 7.8125 -4 10 C-4.66 10 -5.32 10 -6 10 C-5.38909774 3.52443609 -5.38909774 3.52443609 -3.5625 1.0625 C-2 0 -2 0 0 0 Z " fill="#8DB2D9" transform="translate(120,225)"/>
<path d="M0 0 C0.99 0.33 1.98 0.66 3 1 C3 3.64 3 6.28 3 9 C1.02 9.99 1.02 9.99 -1 11 C-1.02688151 9.35425434 -1.04634123 7.70838587 -1.0625 6.0625 C-1.07410156 5.14597656 -1.08570313 4.22945312 -1.09765625 3.28515625 C-1 1 -1 1 0 0 Z " fill="#9CCCF4" transform="translate(195,204)"/>
<path d="M0 0 C1.98 0.66 3.96 1.32 6 2 C5.34 2.66 4.68 3.32 4 4 C4.33 4.99 4.66 5.98 5 7 C4.01 7.495 4.01 7.495 3 8 C1.86649466 10.01669827 1.86649466 10.01669827 1 12 C0.63762737 10.37681021 0.28534843 8.7513642 -0.0625 7.125 C-0.25972656 6.22007812 -0.45695312 5.31515625 -0.66015625 4.3828125 C-1 2 -1 2 0 0 Z " fill="#142944" transform="translate(426,237)"/>
<path d="M0 0 C0.33 1.32 0.66 2.64 1 4 C-2.08809695 5.76462683 -3.23312136 6 -7 6 C-7 4.35 -7 2.7 -7 1 C-4.53721199 -0.231394 -2.7204945 -0.07159196 0 0 Z " fill="#193360" transform="translate(218,232)"/>
<path d="M0 0 C3.3 0 6.6 0 10 0 C10 1.98 10 3.96 10 6 C8.35 5.67 6.7 5.34 5 5 C5 4.01 5 3.02 5 2 C3.35 1.67 1.7 1.34 0 1 C0 0.67 0 0.34 0 0 Z " fill="#A0C6E8" transform="translate(184,225)"/>
<path d="M0 0 C2.47923801 -0.02685095 4.9581884 -0.04676547 7.4375 -0.0625 C8.14455078 -0.07087891 8.85160156 -0.07925781 9.58007812 -0.08789062 C11.38693559 -0.09653588 13.19387603 -0.05220011 15 0 C16 1 16 1 16.0625 4.0625 C16.041875 5.031875 16.02125 6.00125 16 7 C15.67 7 15.34 7 15 7 C15 5.35 15 3.7 15 2 C14.01 2.33 13.02 2.66 12 3 C9.34028447 3.41192535 6.67480199 3.69305551 4 4 C4 3.34 4 2.68 4 2 C2.68 1.67 1.36 1.34 0 1 C0 0.67 0 0.34 0 0 Z " fill="#2A5478" transform="translate(321,247)"/>
<path d="M0 0 C1 3 1 3 -0.3125 5.6875 C-0.869375 6.450625 -1.42625 7.21375 -2 8 C-2.66 8 -3.32 8 -4 8 C-4.33 8.99 -4.66 9.98 -5 11 C-6.65 11 -8.3 11 -10 11 C-8.625 9 -8.625 9 -7 7 C-6.34 7 -5.68 7 -5 7 C-5 6.34 -5 5.68 -5 5 C-4.34 5 -3.68 5 -3 5 C-3 4.34 -3 3.68 -3 3 C-2.34 3 -1.68 3 -1 3 C-0.67 2.01 -0.34 1.02 0 0 Z " fill="#B0CBDF" transform="translate(165,226)"/>
<path d="M0 0 C0.66 0.33 1.32 0.66 2 1 C1.67 2.65 1.34 4.3 1 6 C2.98 5.01 4.96 4.02 7 3 C6.67 4.32 6.34 5.64 6 7 C4.02 7 2.04 7 0 7 C-0.33 6.34 -0.66 5.68 -1 5 C-1.99 6.485 -1.99 6.485 -3 8 C-3.66 7.01 -4.32 6.02 -5 5 C-3.35 3.35 -1.7 1.7 0 0 Z " fill="#8DACD2" transform="translate(124,284)"/>
<path d="M0 0 C4.62 0 9.24 0 14 0 C14 1.65 14 3.3 14 5 C13.01 5.495 13.01 5.495 12 6 C9.375 5.0625 9.375 5.0625 7 4 C7.33 3.34 7.66 2.68 8 2 C5.36 1.67 2.72 1.34 0 1 C0 0.67 0 0.34 0 0 Z " fill="#6D8296" transform="translate(355,229)"/>
<path d="M0 0 C0.66 0 1.32 0 2 0 C2.33 1.65 2.66 3.3 3 5 C8.94 5 14.88 5 21 5 C20.67 5.66 20.34 6.32 20 7 C17.04132082 6.85953745 14.08317736 6.71287776 11.125 6.5625 C10.28324219 6.52318359 9.44148438 6.48386719 8.57421875 6.44335938 C7.76855469 6.40146484 6.96289062 6.35957031 6.1328125 6.31640625 C5.01737061 6.26141968 5.01737061 6.26141968 3.87939453 6.20532227 C2 6 2 6 0 5 C0 3.35 0 1.7 0 0 Z " fill="#162740" transform="translate(348,254)"/>
<path d="M0 0 C0.66 1.98 1.32 3.96 2 6 C-0.31 6.33 -2.62 6.66 -5 7 C-5 5.02 -5 3.04 -5 1 C-3 0 -3 0 0 0 Z " fill="#152A48" transform="translate(280,248)"/>
<path d="M0 0 C2.33294775 -0.04241723 4.66702567 -0.04092937 7 0 C8 1 8 1 8.11352539 2.76586914 C8.10828857 3.51473389 8.10305176 4.26359863 8.09765625 5.03515625 C8.09443359 5.84404297 8.09121094 6.65292969 8.08789062 7.48632812 C8.07951172 8.33646484 8.07113281 9.18660156 8.0625 10.0625 C8.05798828 10.91650391 8.05347656 11.77050781 8.04882812 12.65039062 C8.03700373 14.76695663 8.01906769 16.88348685 8 19 C7.67 19 7.34 19 7 19 C6.67 13.39 6.34 7.78 6 2 C4.35 2 2.7 2 1 2 C0.67 1.34 0.34 0.68 0 0 Z " fill="#83919B" transform="translate(407,237)"/>
<path d="M0 0 C0.66 0.33 1.32 0.66 2 1 C1.67 1.99 1.34 2.98 1 4 C1.99 4.33 2.98 4.66 4 5 C3.67 5.99 3.34 6.98 3 8 C3.66 8.33 4.32 8.66 5 9 C4.34 9 3.68 9 3 9 C3 9.66 3 10.32 3 11 C2.01 11.33 1.02 11.66 0 12 C0.04125 11.05125 0.0825 10.1025 0.125 9.125 C0.34973818 5.89755144 0.34973818 5.89755144 -2 4 C-1.34 2.68 -0.68 1.36 0 0 Z " fill="#223966" transform="translate(303,263)"/>
<path d="M0 0 C0.33 1.32 0.66 2.64 1 4 C-0.32 4 -1.64 4 -3 4 C-2.67 4.99 -2.34 5.98 -2 7 C-3.32 7.33 -4.64 7.66 -6 8 C-6.6875 5.6875 -6.6875 5.6875 -7 3 C-4.87164172 -0.24854684 -4.06968429 0 0 0 Z " fill="#374A66" transform="translate(305,249)"/>
<path d="M0 0 C1.125 1.75 1.125 1.75 2 4 C1.125 6.25 1.125 6.25 0 8 C-0.33 6.68 -0.66 5.36 -1 4 C-1.66 4 -2.32 4 -3 4 C-3 5.65 -3 7.3 -3 9 C-3.66 9 -4.32 9 -5 9 C-5 6.69 -5 4.38 -5 2 C-3.35 1.34 -1.7 0.68 0 0 Z " fill="#96B6D3" transform="translate(139,231)"/>
<path d="M0 0 C1.65 0 3.3 0 5 0 C5 2.67884659 4.88590541 4.50335747 4 7 C3.01 7.66 2.02 8.32 1 9 C0.67 6.03 0.34 3.06 0 0 Z " fill="#7FA4D5" transform="translate(67,210)"/>
<path d="M0 0 C2.31 0 4.62 0 7 0 C7 0.66 7 1.32 7 2 C7.99 1.67 8.98 1.34 10 1 C10.33 1.66 10.66 2.32 11 3 C7.7 3.66 4.4 4.32 1 5 C0.67 3.35 0.34 1.7 0 0 Z " fill="#75A2D5" transform="translate(120,280)"/>
<path d="M0 0 C0.66 0.66 1.32 1.32 2 2 C-2.29 2.66 -6.58 3.32 -11 4 C-11 3.01 -11 2.02 -11 1 C-3.36565097 -1.49584488 -3.36565097 -1.49584488 0 0 Z " fill="#A4C0DC" transform="translate(171,283)"/>
<path d="M0 0 C0.66 0 1.32 0 2 0 C2 4.29 2 8.58 2 13 C1.01 12.34 0.02 11.68 -1 11 C-1.328125 8.65234375 -1.328125 8.65234375 -1.25 5.9375 C-1.23453125 5.03902344 -1.2190625 4.14054687 -1.203125 3.21484375 C-1 1 -1 1 0 0 Z " fill="#688EB9" transform="translate(75,261)"/>
<path d="M0 0 C9.59453303 1.74259681 9.59453303 1.74259681 13 5 C10.36 5 7.72 5 5 5 C5 4.34 5 3.68 5 3 C3.35 2.67 1.7 2.34 0 2 C0 1.34 0 0.68 0 0 Z " fill="#9AB4D0" transform="translate(97,254)"/>
<path d="M0 0 C1.65 0 3.3 0 5 0 C4.01 0.66 3.02 1.32 2 2 C2 2.66 2 3.32 2 4 C2.99 4 3.98 4 5 4 C5.33 5.98 5.66 7.96 6 10 C3.69 9.01 1.38 8.02 -1 7 C-0.34 6.34 0.32 5.68 1 5 C0.67958603 2.39719432 0.67958603 2.39719432 0 0 Z " fill="#4F617A" transform="translate(280,248)"/>
<path d="M0 0 C0.99 0.33 1.98 0.66 3 1 C2.67 3.64 2.34 6.28 2 9 C0.68 9 -0.64 9 -2 9 C-2.66 8.34 -3.32 7.68 -4 7 C-2.68 7 -1.36 7 0 7 C0 4.69 0 2.38 0 0 Z " fill="#B0C9DD" transform="translate(194,224)"/>
<path d="M0 0 C0 0.66 0 1.32 0 2 C-2.64 2 -5.28 2 -8 2 C-8.33 3.32 -8.66 4.64 -9 6 C-9 3.69 -9 1.38 -9 -1 C-5.79937313 -2.60031344 -3.27728194 -1.03173691 0 0 Z " fill="#445060" transform="translate(402,228)"/>
<path d="M0 0 C1.32 0 2.64 0 4 0 C4 0.66 4 1.32 4 2 C3.01 2.66 2.02 3.32 1 4 C1.66 6.31 2.32 8.62 3 11 C2.01 11 1.02 11 0 11 C-1.16461426 7.50615721 -1.13568319 4.66344611 -1 1 C-0.67 0.67 -0.34 0.34 0 0 Z " fill="#ABCADE" transform="translate(137,220)"/>
<path d="M0 0 C0.33 0 0.66 0 1 0 C1 1.98 1 3.96 1 6 C0.01 6.33 -0.98 6.66 -2 7 C-2.33 7.99 -2.66 8.98 -3 10 C-4.98 10 -6.96 10 -9 10 C-8.39542969 9.75507813 -7.79085937 9.51015625 -7.16796875 9.2578125 C-4.6068972 7.77192954 -3.7630634 6.42835766 -2.3125 3.875 C-1.56296645 2.57085804 -0.79775205 1.27521703 0 0 Z " fill="#A8C4DD" transform="translate(133,237)"/>
<path d="M0 0 C1.84948187 3.69896374 3.03559141 6.99399508 4 11 C3.67 11.66 3.34 12.32 3 13 C2.01 13 1.02 13 0 13 C0 8.71 0 4.42 0 0 Z " fill="#A8C0D3" transform="translate(159,215)"/>
<path d="M0 0 C1.84765625 0.33984375 1.84765625 0.33984375 4.0625 0.9375 C5.16271484 1.22947266 5.16271484 1.22947266 6.28515625 1.52734375 C7.13400391 1.76130859 7.13400391 1.76130859 8 2 C8 2.66 8 3.32 8 4 C5.69 4 3.38 4 1 4 C1 6.31 1 8.62 1 11 C0.67 11 0.34 11 0 11 C-0.19406478 9.35492782 -0.38007935 7.70890406 -0.5625 6.0625 C-0.66691406 5.14597656 -0.77132812 4.22945312 -0.87890625 3.28515625 C-0.91886719 2.53105469 -0.95882812 1.77695313 -1 1 C-0.67 0.67 -0.34 0.34 0 0 Z " fill="#9EB8D4" transform="translate(83,195)"/>
<path d="M0 0 C0.97582031 0.19464844 1.95164062 0.38929688 2.95703125 0.58984375 C4.06111328 0.82380859 4.06111328 0.82380859 5.1875 1.0625 C5.1875 1.3925 5.1875 1.7225 5.1875 2.0625 C0.2375 2.0625 -4.7125 2.0625 -9.8125 2.0625 C-10.1425 1.4025 -10.4725 0.7425 -10.8125 0.0625 C-6.8710998 -0.96788433 -3.97634848 -0.81443282 0 0 Z " fill="#7795BE" transform="translate(77.8125,281.9375)"/>
<path d="M0 0 C0.33 0 0.66 0 1 0 C1 1.65 1 3.3 1 5 C4.96 5.33 8.92 5.66 13 6 C13 6.33 13 6.66 13 7 C10.69 7.66 8.38 8.32 6 9 C6 8.34 6 7.68 6 7 C4.02 7 2.04 7 0 7 C0 4.69 0 2.38 0 0 Z " fill="#99B4D1" transform="translate(77,268)"/>
<path d="M0 0 C0.33 0 0.66 0 1 0 C1.19522373 2.58296017 1.38144403 5.16604079 1.5625 7.75 C1.61857422 8.47960937 1.67464844 9.20921875 1.73242188 9.9609375 C1.97709908 13.54953651 1.99666259 16.55027225 1 20 C0.34 20 -0.32 20 -1 20 C-1.33 18.02 -1.66 16.04 -2 14 C-1.67 14 -1.34 14 -1 14 C-0.67 9.38 -0.34 4.76 0 0 Z " fill="#86A4CD" transform="translate(67,264)"/>
<path d="M0 0 C-0.57093136 3.3114019 -1.54604826 4.75054423 -4 7 C-4.33 7.66 -4.66 8.32 -5 9 C-6.32 8.34 -7.64 7.68 -9 7 C-8.34 7 -7.68 7 -7 7 C-6.731875 6.401875 -6.46375 5.80375 -6.1875 5.1875 C-3.37142857 0 -3.37142857 0 0 0 Z " fill="#A8C0D8" transform="translate(148,245)"/>
<path d="M0 0 C-0.33 1.98 -0.66 3.96 -1 6 C-3.5 4.6875 -3.5 4.6875 -6 3 C-6 2.01 -6 1.02 -6 0 C-3 -1 -3 -1 0 0 Z " fill="#182E51" transform="translate(304,269)"/>
<path d="M0 0 C8.57142857 -0.28571429 8.57142857 -0.28571429 12 2 C11 3 11 3 8.05859375 3.09765625 C6.26615234 3.08025391 6.26615234 3.08025391 4.4375 3.0625 C2.64119141 3.04896484 2.64119141 3.04896484 0.80859375 3.03515625 C-0.11824219 3.02355469 -1.04507812 3.01195312 -2 3 C-1.34 2.67 -0.68 2.34 0 2 C0 1.34 0 0.68 0 0 Z " fill="#1D304A" transform="translate(344,262)"/>
<path d="M0 0 C0.66 1.32 1.32 2.64 2 4 C-0.51407619 8.28324091 -2.12314139 10.64531705 -7 12 C-7.66 11.34 -8.32 10.68 -9 10 C-6.34771188 8.92474806 -3.71631546 7.90543849 -1 7 C-0.67 4.69 -0.34 2.38 0 0 Z " fill="#A3B7CD" transform="translate(132,250)"/>
<path d="M0 0 C1.125 1.75 1.125 1.75 2 4 C1.05773345 6.66975522 0.01384202 7.98615798 -2 10 C-2.6875 6.6875 -2.6875 6.6875 -3 3 C-1.5625 1.0625 -1.5625 1.0625 0 0 Z " fill="#19345C" transform="translate(261,245)"/>
<path d="M0 0 C0.66 0 1.32 0 2 0 C2 2.31 2 4.62 2 7 C0.35 7.33 -1.3 7.66 -3 8 C-2.34 7.34 -1.68 6.68 -1 6 C-1 5.01 -1 4.02 -1 3 C-2.65 3 -4.3 3 -6 3 C-6 2.67 -6 2.34 -6 2 C-4.02 2 -2.04 2 0 2 C0 1.34 0 0.68 0 0 Z " fill="#4F667C" transform="translate(255,257)"/>
<path d="M0 0 C2.29141286 -0.05384521 4.58318188 -0.09272087 6.875 -0.125 C8.78925781 -0.15980469 8.78925781 -0.15980469 10.7421875 -0.1953125 C14 0 14 0 16 2 C12.16275828 2.90413673 8.62497726 3.10576898 4.6875 3.0625 C3.61886719 3.05347656 2.55023438 3.04445312 1.44921875 3.03515625 C0.64097656 3.02355469 -0.16726562 3.01195312 -1 3 C-0.67 2.01 -0.34 1.02 0 0 Z " fill="#17253D" transform="translate(219,248)"/>
<path d="M0 0 C3.96 0 7.92 0 12 0 C12 0.99 12 1.98 12 3 C10.18674449 2.88648483 8.37436643 2.75887039 6.5625 2.625 C5.04849609 2.52058594 5.04849609 2.52058594 3.50390625 2.4140625 C2.67761719 2.27742187 1.85132813 2.14078125 1 2 C0.67 1.34 0.34 0.68 0 0 Z " fill="#1E3860" transform="translate(223,246)"/>
<path d="M0 0 C2.97 0 5.94 0 9 0 C9 1.98 9 3.96 9 6 C8.01 6 7.02 6 6 6 C6 5.01 6 4.02 6 3 C4.02 2.34 2.04 1.68 0 1 C0 0.67 0 0.34 0 0 Z " fill="#3B4B66" transform="translate(358,244)"/>
<path d="M0 0 C-1.875 4.875 -1.875 4.875 -3 6 C-5.33297433 6.04092937 -7.66705225 6.04241723 -10 6 C-10 5.01 -10 4.02 -10 3 C-9.01 3.33 -8.02 3.66 -7 4 C-1.70967742 0 -1.70967742 0 0 0 Z " fill="#ADC8DD" transform="translate(134,212)"/>
<path d="M0 0 C3.25543229 0.34879632 4.01873107 1.02133261 6.25 3.5625 C7.11625 4.7690625 7.11625 4.7690625 8 6 C7.01 6.495 7.01 6.495 6 7 C3.64018187 6.06421005 1.30368736 5.06652192 -1 4 C-0.67 2.68 -0.34 1.36 0 0 Z " fill="#9FBCD8" transform="translate(96,209)"/>
<path d="M0 0 C1.81325551 0.11351517 3.62563357 0.24112961 5.4375 0.375 C6.95150391 0.47941406 6.95150391 0.47941406 8.49609375 0.5859375 C9.73552734 0.79089844 9.73552734 0.79089844 11 1 C11.33 1.66 11.66 2.32 12 3 C7.31034294 4.11658501 4.46236469 3.80619523 0 2 C-0.33 2.99 -0.66 3.98 -1 5 C-0.67 3.35 -0.34 1.7 0 0 Z " fill="#9DB3CB" transform="translate(67,208)"/>
<path d="M0 0 C2.78211944 0.37596209 4.5879284 0.67318459 6.8125 2.4375 C8 4 8 4 8 6 C5.6875 5.8125 5.6875 5.8125 3 5 C1.1875 2.4375 1.1875 2.4375 0 0 Z " fill="#86A5CA" transform="translate(113,294)"/>
<path d="M0 0 C2 2 2 2 2.125 5.125 C2.08375 6.07375 2.0425 7.0225 2 8 C1.34 8 0.68 8 0 8 C-0.33 8.66 -0.66 9.32 -1 10 C-1.66666667 7.33333333 -2.33333333 4.66666667 -3 2 C-2.01 2 -1.02 2 0 2 C0 1.34 0 0.68 0 0 Z " fill="#364864" transform="translate(424,256)"/>
<path d="M0 0 C0.33 0 0.66 0 1 0 C1 4.29 1 8.58 1 13 C-2 9 -2 9 -2.109375 6.89453125 C-1.11111111 1.11111111 -1.11111111 1.11111111 0 0 Z " fill="#152B4B" transform="translate(433,243)"/>
<path d="M0 0 C0 0.99 0 1.98 0 3 C-0.66 3 -1.32 3 -2 3 C-2.33 4.32 -2.66 5.64 -3 7 C-3.99 7 -4.98 7 -6 7 C-5.814375 6.38125 -5.62875 5.7625 -5.4375 5.125 C-4.76313824 2.95839822 -4.76313824 2.95839822 -6 1 C-3 0 -3 0 0 0 Z " fill="#1E2C42" transform="translate(294,238)"/>
<path d="M0 0 C0.66 0 1.32 0 2 0 C2.80967438 2.91482778 3.21845993 4.46113217 2.0625 7.3125 C1.5365625 8.1478125 1.5365625 8.1478125 1 9 C-0.32 9 -1.64 9 -3 9 C-2.01 6.03 -1.02 3.06 0 0 Z " fill="#273954" transform="translate(394,230)"/>
<path d="M0 0 C0.66 0.66 1.32 1.32 2 2 C1 5 1 5 -1.9375 6.6875 C-5 8 -5 8 -7 8 C-7 7.34 -7 6.68 -7 6 C-5.46875 4.4921875 -5.46875 4.4921875 -3.5 2.875 C-2.8503125 2.33617187 -2.200625 1.79734375 -1.53125 1.2421875 C-1.0259375 0.83226562 -0.520625 0.42234375 0 0 Z " fill="#ABCBE2" transform="translate(152,210)"/>
<path d="M0 0 C2.64 0 5.28 0 8 0 C8.33 1.32 8.66 2.64 9 4 C8.2575 3.835 7.515 3.67 6.75 3.5 C3.80993422 2.88074304 3.80993422 2.88074304 0 3 C0 2.01 0 1.02 0 0 Z " fill="#4B5975" transform="translate(412,263)"/>
<path d="M0 0 C0.66 0 1.32 0 2 0 C2 0.99 2 1.98 2 3 C2.99 3.33 3.98 3.66 5 4 C6.38576923 5.62332967 7.72641268 7.28724465 9 9 C5.72766181 8.12737648 3.50912029 7.52609096 1.125 5.0625 C0 3 0 3 0 0 Z " fill="#5D6878" transform="translate(373,256)"/>
<path d="M0 0 C2 3 2 3 2 5 C1.34 5 0.68 5 0 5 C-0.33 5.66 -0.66 6.32 -1 7 C-2.5 5.6875 -2.5 5.6875 -4 4 C-4 3.01 -4 2.02 -4 1 C-2.68 0.67 -1.36 0.34 0 0 Z " fill="#1E304B" transform="translate(290,258)"/>
<path d="M0 0 C1.32 0.33 2.64 0.66 4 1 C3.34 1 2.68 1 2 1 C2 2.98 2 4.96 2 7 C1.01 7 0.02 7 -1 7 C-1.33 7.66 -1.66 8.32 -2 9 C-2 7.02 -2 5.04 -2 3 C-1.34 3 -0.68 3 0 3 C0 2.01 0 1.02 0 0 Z " fill="#152B4C" transform="translate(413,256)"/>
<path d="M0 0 C0.99 0.66 1.98 1.32 3 2 C2.34 4.31 1.68 6.62 1 9 C0.01 8.01 -0.98 7.02 -2 6 C-1.34 4.02 -0.68 2.04 0 0 Z " fill="#92B7DB" transform="translate(117,239)"/>
<path d="M0 0 C2.475 0.99 2.475 0.99 5 2 C4.42655063 4.86724686 4.1385485 5.8614515 2 8 C2 6.68 2 5.36 2 4 C1.34 4 0.68 4 0 4 C0 2.68 0 1.36 0 0 Z " fill="#91ACC7" transform="translate(102,278)"/>
<path d="M0 0 C0.33 0 0.66 0 1 0 C1 2.64 1 5.28 1 8 C-3 8 -3 8 -6 6 C-3 5 -3 5 0 5 C0 3.35 0 1.7 0 0 Z " fill="#27354B" transform="translate(433,258)"/>
<path d="M0 0 C0.66 0.33 1.32 0.66 2 1 C1.67 4.3 1.34 7.6 1 11 C0.34 10.67 -0.32 10.34 -1 10 C-0.67 6.7 -0.34 3.4 0 0 Z " fill="#1A2E48" transform="translate(210,253)"/>
<path d="M0 0 C0.99 0.33 1.98 0.66 3 1 C3 1.99 3 2.98 3 4 C3.99 4.33 4.98 4.66 6 5 C2.7 5 -0.6 5 -4 5 C-3.34 4.67 -2.68 4.34 -2 4 C-1.67 3.34 -1.34 2.68 -1 2 C-0.67 1.34 -0.34 0.68 0 0 Z " fill="#132B4E" transform="translate(355,245)"/>
<path d="M0 0 C1.32 0 2.64 0 4 0 C4 1.32 4 2.64 4 4 C4.66 4.33 5.32 4.66 6 5 C5 6 5 6 2.4375 6.0625 C1.2309375 6.0315625 1.2309375 6.0315625 0 6 C0 4.02 0 2.04 0 0 Z " fill="#162B49" transform="translate(278,237)"/>
<path d="M0 0 C2.97 0.495 2.97 0.495 6 1 C6 1.99 6 2.98 6 4 C4.02 4.99 4.02 4.99 2 6 C1.01 5.01 0.02 4.02 -1 3 C-0.34 2.67 0.32 2.34 1 2 C0.67 1.34 0.34 0.68 0 0 Z " fill="#3C4D6C" transform="translate(254,237)"/>
<path d="M0 0 C3.63 0.66 7.26 1.32 11 2 C7 4 7 4 3.25 3.125 C2.1775 2.75375 1.105 2.3825 0 2 C0 1.34 0 0.68 0 0 Z " fill="#8AAACB" transform="translate(90,275)"/>
<path d="M0 0 C1.32 0.33 2.64 0.66 4 1 C4.33 3.64 4.66 6.28 5 9 C1.7457985 6.16569547 0.4793247 4.31392226 0 0 Z " fill="#526174" transform="translate(288,250)"/>
<path d="M0 0 C0.33 1.32 0.66 2.64 1 4 C1.66 4 2.32 4 3 4 C3 6.64 3 9.28 3 12 C1.09598862 10.09598862 0.06479561 8.66574314 -0.19921875 5.953125 C-0.1886578 3.96766727 -0.09915043 1.9830086 0 0 Z " fill="#0C1A49" transform="translate(399,246)"/>
<path d="M0 0 C0.86625 0.4640625 0.86625 0.4640625 1.75 0.9375 C3.84294184 1.92583364 5.74535275 2.5168613 8 3 C7.67 3.99 7.34 4.98 7 6 C6.21625 5.649375 5.4325 5.29875 4.625 4.9375 C3.75875 4.628125 2.8925 4.31875 2 4 C1.01 4.495 1.01 4.495 0 5 C0 3.35 0 1.7 0 0 Z " fill="#85AEDB" transform="translate(120,246)"/>
<path d="M0 0 C0.33 0 0.66 0 1 0 C1.125 2.875 1.125 2.875 1 6 C-1 8 -1 8 -4 9 C-3.35499066 5.51694958 -1.95865224 2.93797836 0 0 Z " fill="#A3CAE7" transform="translate(175,216)"/>
<path d="M0 0 C0.99 0 1.98 0 3 0 C4.125 5.625 4.125 5.625 3 9 C0 2.25 0 2.25 0 0 Z " fill="#8DA7C3" transform="translate(119,251)"/>
<path d="M0 0 C2 3 2 3 2 5 C2.66 5.33 3.32 5.66 4 6 C2.35 7.65 0.7 9.3 -1 11 C-1.33 9.68 -1.66 8.36 -2 7 C-1.34 7 -0.68 7 0 7 C0 4.69 0 2.38 0 0 Z " fill="#122644" transform="translate(394,247)"/>
<path d="M0 0 C0.99 0.33 1.98 0.66 3 1 C0.69 3.31 -1.62 5.62 -4 8 C-4.66 7.67 -5.32 7.34 -6 7 C-4.02 4.69 -2.04 2.38 0 0 Z " fill="#9FBBD6" transform="translate(160,249)"/>
<path d="M0 0 C0 0.66 0 1.32 0 2 C0.66 2.33 1.32 2.66 2 3 C-4.625 4 -4.625 4 -8 4 C-5.57415142 1.34311822 -3.76063134 0 0 0 Z " fill="#435369" transform="translate(278,237)"/>
<path d="M0 0 C0.33 0 0.66 0 1 0 C1.17942163 3.94727588 1.09350689 6.5980513 -1 10 C-1.66 10 -2.32 10 -3 10 C-3 8.02 -3 6.04 -3 4 C-2.01 3.67 -1.02 3.34 0 3 C0 2.01 0 1.02 0 0 Z " fill="#83A8CF" transform="translate(117,233)"/>
<path d="M0 0 C6.52307692 0.61538462 6.52307692 0.61538462 8.9375 2.5625 C9.288125 3.036875 9.63875 3.51125 10 4 C9.67 4.99 9.34 5.98 9 7 C7.53515625 5.76302083 6.0703125 4.52604167 4.60546875 3.2890625 C3.1344954 2.10798901 1.56962206 1.04641471 0 0 Z " fill="#B6CBDE" transform="translate(125,226)"/>
<path d="M0 0 C1.32 0.33 2.64 0.66 4 1 C2.75453595 4.73639216 1.36595047 5.18756513 -2 7 C-1.125 2.25 -1.125 2.25 0 0 Z " fill="#8BABCA" transform="translate(130,297)"/>
<path d="M0 0 C1.258125 -0.020625 2.51625 -0.04125 3.8125 -0.0625 C4.52019531 -0.07410156 5.22789063 -0.08570313 5.95703125 -0.09765625 C8 0 8 0 11 1 C11 1.66 11 2.32 11 3 C9.741875 2.87625 8.48375 2.7525 7.1875 2.625 C6.12595703 2.52058594 6.12595703 2.52058594 5.04296875 2.4140625 C3 2 3 2 0 0 Z " fill="#97ADCA" transform="translate(90,286)"/>
<path d="M0 0 C0.33 0 0.66 0 1 0 C1 1.65 1 3.3 1 5 C-1.97 5 -4.94 5 -8 5 C-5.08235 3.0549 -3.37462715 2.54723683 0 2 C0 1.34 0 0.68 0 0 Z " fill="#192D49" transform="translate(335,249)"/>
<path d="M0 0 C0.99 0 1.98 0 3 0 C3 0.66 3 1.32 3 2 C3.66 2.33 4.32 2.66 5 3 C5 3.66 5 4.32 5 5 C3.35 5 1.7 5 0 5 C0 3.35 0 1.7 0 0 Z " fill="#2C4054" transform="translate(322,249)"/>
<path d="M0 0 C1.32 0 2.64 0 4 0 C3.25 4.75 3.25 4.75 1 7 C0.34 5.02 -0.32 3.04 -1 1 C-0.67 0.67 -0.34 0.34 0 0 Z " fill="#18335C" transform="translate(376,244)"/>
<path d="M0 0 C0.66 0 1.32 0 2 0 C2.66 1.65 3.32 3.3 4 5 C2.68 5 1.36 5 0 5 C-0.33 5.66 -0.66 6.32 -1 7 C-1.99 6.67 -2.98 6.34 -4 6 C-3.34 6 -2.68 6 -2 6 C-1.7834375 5.071875 -1.7834375 5.071875 -1.5625 4.125 C-1 2 -1 2 0 0 Z " fill="#142A49" transform="translate(259,239)"/>
<path d="M0 0 C2.64 0 5.28 0 8 0 C8.66 1.32 9.32 2.64 10 4 C8.68 4 7.36 4 6 4 C5.67 3.34 5.34 2.68 5 2 C2.47266765 1.34444881 2.47266765 1.34444881 0 1 C0 0.67 0 0.34 0 0 Z " fill="#4A5366" transform="translate(291,237)"/>
<path d="M0 0 C2.475 0.99 2.475 0.99 5 2 C4.01 2.33 3.02 2.66 2 3 C1.26676204 5.01508358 1.26676204 5.01508358 1 7 C0.01 6.67 -0.98 6.34 -2 6 C-1.34 4.02 -0.68 2.04 0 0 Z " fill="#98C2EA" transform="translate(171,232)"/>
<path d="M0 0 C3.96 0 7.92 0 12 0 C12 0.33 12 0.66 12 1 C7.71 1.66 3.42 2.32 -1 3 C-0.67 2.01 -0.34 1.02 0 0 Z " fill="#7884A0" transform="translate(209,229)"/>
<path d="M0 0 C-2.98646769 1.99097846 -5.59687262 2.94124926 -9 4 C-9 3.01 -9 2.02 -9 1 C-5.64919071 -1.10976881 -3.77897651 -1.0497157 0 0 Z " fill="#A7BDD7" transform="translate(156,288)"/>
<path d="M0 0 C0.66 0.33 1.32 0.66 2 1 C1.67 2.32 1.34 3.64 1 5 C0.34 5 -0.32 5 -1 5 C-0.67 6.65 -0.34 8.3 0 10 C-1.32 9.34 -2.64 8.68 -4 8 C-3.34 6.68 -2.68 5.36 -2 4 C-1.34 4 -0.68 4 0 4 C0 2.68 0 1.36 0 0 Z " fill="#4C5E7E" transform="translate(276,244)"/>
<path d="M0 0 C2.0625 1.625 2.0625 1.625 4 4 C3.75 7.25 3.75 7.25 3 10 C1 8 1 8 0.9375 5.5625 C0.958125 4.716875 0.97875 3.87125 1 3 C0.67 2.01 0.34 1.02 0 0 Z " fill="#4F5C6C" transform="translate(261,239)"/>
<path d="M0 0 C0.33 0 0.66 0 1 0 C1 2.64 1 5.28 1 8 C1.99 8.33 2.98 8.66 4 9 C2.35 9.66 0.7 10.32 -1 11 C-1.125 3.375 -1.125 3.375 0 0 Z " fill="#364967" transform="translate(349,236)"/>
<path d="M0 0 C0.66 0.66 1.32 1.32 2 2 C-2.33168317 2.26252625 -5.8803623 1.29243536 -10 0 C-10 -0.33 -10 -0.66 -10 -1 C-5.95037684 -2.15703519 -3.74854566 -1.92492885 0 0 Z " fill="#5D7388" transform="translate(288,244)"/>
<path d="M0 0 C0.33 1.32 0.66 2.64 1 4 C-0.65 5.32 -2.3 6.64 -4 8 C-4.33 7.01 -4.66 6.02 -5 5 C-4.34 5 -3.68 5 -3 5 C-3 4.34 -3 3.68 -3 3 C-2.34 3 -1.68 3 -1 3 C-0.67 2.01 -0.34 1.02 0 0 Z " fill="#AEC5DA" transform="translate(154,237)"/>
<path d="M0 0 C3 -0.3125 3 -0.3125 6 0 C6.66 0.66 7.32 1.32 8 2 C1.375 3 1.375 3 -2 3 C-1.34 2.01 -0.68 1.02 0 0 Z " fill="#1D2D48" transform="translate(248,237)"/>
<path d="M0 0 C0.99 0.33 1.98 0.66 3 1 C2.34 3.64 1.68 6.28 1 9 C0.67 9 0.34 9 0 9 C0 7.35 0 5.7 0 4 C-0.99 3.67 -1.98 3.34 -3 3 C-2.01 2.01 -1.02 1.02 0 0 Z " fill="#B8CCE4" transform="translate(184,231)"/>
<path d="M0 0 C0.33 0.66 0.66 1.32 1 2 C0.34 2 -0.32 2 -1 2 C-0.67 2.99 -0.34 3.98 0 5 C-0.99 5.33 -1.98 5.66 -3 6 C-3.33 6.99 -3.66 7.98 -4 9 C-4.33 8.01 -4.66 7.02 -5 6 C-2.66666667 1.33333333 -2.66666667 1.33333333 0 0 Z M-7 9 C-5 10 -5 10 -5 10 Z " fill="#9CC0E2" transform="translate(168,225)"/>
<path d="M0 0 C0.33 0.99 0.66 1.98 1 3 C1.66 3.33 2.32 3.66 3 4 C2.67 5.65 2.34 7.3 2 9 C1.01 9 0.02 9 -1 9 C-0.67 6.03 -0.34 3.06 0 0 Z " fill="#3A5069" transform="translate(426,246)"/>
<path d="M0 0 C0.33 0.66 0.66 1.32 1 2 C2.65 2 4.3 2 6 2 C5.67 2.99 5.34 3.98 5 5 C2.83125748 4.49396008 1.00032373 4.00016187 -1 3 C-0.67 2.01 -0.34 1.02 0 0 Z " fill="#112747" transform="translate(390,237)"/>
<path d="M0 0 C0.66 0 1.32 0 2 0 C2 1.98 2 3.96 2 6 C1.01 6.33 0.02 6.66 -1 7 C-1.625 5.1875 -1.625 5.1875 -2 3 C-1.34 2.01 -0.68 1.02 0 0 Z " fill="#7BA6D7" transform="translate(75,215)"/>
<path d="M0 0 C1.98 0 3.96 0 6 0 C5.67 0.99 5.34 1.98 5 3 C3.35 3 1.7 3 0 3 C0 2.01 0 1.02 0 0 Z " fill="#8BB1D2" transform="translate(154,285)"/>
<path d="M0 0 C0.99 0.66 1.98 1.32 3 2 C2.01 3.485 2.01 3.485 1 5 C-0.32 5 -1.64 5 -3 5 C-1.125 1.125 -1.125 1.125 0 0 Z " fill="#88B5DE" transform="translate(158,259)"/>
<path d="M0 0 C0.66 0 1.32 0 2 0 C2 3.3 2 6.6 2 10 C1.34 9.67 0.68 9.34 0 9 C0.33 7.02 0.66 5.04 1 3 C0.01 2.67 -0.98 2.34 -2 2 C-1.34 1.34 -0.68 0.68 0 0 Z " fill="#2A4A62" transform="translate(392,244)"/>
<path d="M0 0 C1.32 0.66 2.64 1.32 4 2 C3.34 2 2.68 2 2 2 C2 2.66 2 3.32 2 4 C0.68 4.33 -0.64 4.66 -2 5 C-2.33 4.01 -2.66 3.02 -3 2 C-2.01 1.34 -1.02 0.68 0 0 Z " fill="#1B3359" transform="translate(276,240)"/>
<path d="M0 0 C0 3 0 3 -1.875 5.1875 C-4 7 -4 7 -6 7 C-5.8125 5.1875 -5.8125 5.1875 -5 3 C-2.4375 1.25 -2.4375 1.25 0 0 Z " fill="#A3BED7" transform="translate(178,232)"/>
<path d="M0 0 C2.31 0.66 4.62 1.32 7 2 C6.67 2.66 6.34 3.32 6 4 C3.03 3.505 3.03 3.505 0 3 C0 2.01 0 1.02 0 0 Z " fill="#121F35" transform="translate(363,233)"/>
<path d="M0 0 C0.33 1.32 0.66 2.64 1 4 C-0.65 5.32 -2.3 6.64 -4 8 C-3.40072174 4.64404172 -2.15377564 2.62198774 0 0 Z " fill="#ACCADE" transform="translate(167,218)"/>
<path d="M0 0 C0.66 0.33 1.32 0.66 2 1 C0.875 2.5 0.875 2.5 -1 4 C-4.1875 4.1875 -4.1875 4.1875 -7 4 C-4.61426621 2.10786631 -2.92824652 0.97608217 0 0 Z " fill="#BFD6E6" transform="translate(155,200)"/>
</svg>
